M48
;Layer_Color=9474304
;FILE_FORMAT=4:4
METRIC
;TYPE=PLATED
T01F00S00C0.2500
T02F00S00C0.9000
T03F00S00C1.0000
T04F00S00C1.0200
T05F00S00C1.3000
T06F00S00C1.4000
T07F00S00C2.5000
%
T01
X00096000Y00046000
X00121000Y00096000
X00071000
X00146000Y00046000
X00196000
X00246000
X00296000
X00321000Y00096000
X00271000
X00221000
X00421000
X00444500Y00114300
X00462534Y00072644
X00446000Y00046000
X00496000
X00506730Y00082550
X00521000Y00096000
X00396000Y00046000
X00546000
X00596000
X00646000
X00630428Y00083058
X00668528Y00084074
X00651510Y00129540
X00606552Y00113284
X00571000Y00096000
X00771000
X00762000Y00109220
Y00118110
X00746000Y00146000
X00696000
X00646000
X00648970Y00161290
X00612140Y00172720
X00610870Y00208600
X00655320
X00671000Y00196000
X00771000
X00746000Y00246000
X00771000Y00296000
X00721000
X00671000
X00696000Y00346000
X00646000
X00605790Y00312420
X00546000Y00346000
X00549402Y00355600
X00567944Y00377698
X00621000Y00396000
X00671000
X00646000Y00446000
X00671000Y00496000
X00621000
X00521000
X00421000
X00415290Y00506560
X00422910Y00513080
X00407924Y00519330
X00375412Y00519430
X00382016Y00506476
X00396000Y00446000
X00336296Y00448818
X00296000Y00446000
X00246000
X00271000Y00396000
X00321000
X00371000
X00355600Y00416560
X00346000Y00346000
X00396000
X00446000
X00475234Y00356108
X00496000Y00346000
X00512318Y00356108
X00494792Y00377698
X00481330Y00388620
X00471000Y00396000
X00454660Y00388620
X00421000Y00396000
X00453500Y00452374
X00531622Y00378460
X00445730Y00303530
X00463550Y00276860
X00444500Y00255270
X00496000Y00246000
Y00146000
X00482600Y00143510
X00396000Y00146000
X00346000
X00421000Y00196000
X00371000Y00296000
X00321000
X00296000Y00346000
X00196000
X00146000
X00171000Y00396000
X00221000
X00171000Y00296000
X00196000Y00246000
X00146000
X00285750Y00242570
X00271000Y00196000
X00196000Y00146000
X00096000
X00046000
X00071000Y00196000
X00096000Y00246000
X00109220Y00265938
X00121000Y00296000
X00071000
X00096000Y00346000
X00046000
X00071000Y00396000
X00096000Y00446000
X00071000Y00496000
X00046000Y00246000
Y00546000
X00096000
X00121000Y00596000
X00071000
X00096000Y00646000
X00146000
X00196000
X00221000Y00596000
X00171000
X00196000Y00546000
X00246000
X00296000
X00317246Y00539750
X00330200Y00554990
X00343662Y00553720
X00352255Y00548640
X00362966Y00542544
X00360680Y00589788
X00320040Y00590296
X00310134Y00566674
X00409194Y00569468
X00448564Y00570738
X00458724Y00588264
X00471000Y00596000
X00521000
X00491998Y00563118
X00485140Y00555752
X00479044Y00549402
X00446000Y00646000
X00146000Y00546000
X00546000
X00596000
X00646000
X00696000
X00671000Y00596000
X00621000
X00571000
X00596000Y00646000
X00546000
X00696000
T02
X00050000Y00375000
Y00400400
Y00425800
Y00451200
Y00476600
Y00502000
Y00527500
T03
X00250000Y00655000
X00275400
X00300800
X00326200
X00351600
X00377000
X00402400
X00427800
T04
X00175000Y00072770
Y00102770
Y00132770
X00350000Y00131500
Y00101500
Y00071500
X00534400Y00080000
Y00110000
Y00140000
X00564400
Y00110000
Y00080000
Y00170000
Y00200000
X00534400Y00200000
Y00170000
X00350000Y00161500
Y00191500
X00175000Y00192770
Y00162770
Y00222770
T05
X00575000Y00437500
X00525000
X00275000
X00225000
Y00562500
X00275000
X00525000
X00575000
T06
X00725170Y00209550
Y00260350
Y00328930
Y00379730
X00725000Y00450000
Y00500800
T07
X00050000Y00050000
X00750000
X00050000Y00650000
X00750000Y00650000
M30
