G04*
G04 #@! TF.GenerationSoftware,Altium Limited,Altium Designer,24.8.2 (39)*
G04*
G04 Layer_Color=16711935*
%FSAX44Y44*%
%MOMM*%
G71*
G04*
G04 #@! TF.SameCoordinates,ED335716-89E2-4A76-9CEC-4F5FE7A58361*
G04*
G04*
G04 #@! TF.FilePolarity,Negative*
G04*
G01*
G75*
%ADD29C,1.6000*%
%ADD30R,1.0500X0.6500*%
%ADD35R,1.9000X1.9000*%
%ADD36C,1.9000*%
%ADD37C,1.8000*%
%ADD38R,1.8000X1.8000*%
%ADD39C,1.1200*%
%ADD40C,4.1000*%
%ADD41C,2.6000*%
%ADD42C,2.5000*%
%ADD43R,1.8000X1.7000*%
%ADD44O,1.8000X1.7000*%
%ADD45R,1.6000X1.6000*%
%ADD63R,1.6000X1.0000*%
D29*
X00050000Y00527500D02*
D03*
Y00502000D02*
D03*
Y00400400D02*
D03*
Y00425800D02*
D03*
Y00451200D02*
D03*
Y00476600D02*
D03*
D30*
X00402000Y00270500D02*
D03*
Y00289500D02*
D03*
X00428000Y00280000D02*
D03*
D35*
X00250000Y00655000D02*
D03*
D36*
X00275400D02*
D03*
X00300800D02*
D03*
X00326200D02*
D03*
X00351600D02*
D03*
X00377000D02*
D03*
X00402400D02*
D03*
X00427800D02*
D03*
D37*
X00534400Y00200000D02*
D03*
Y00080000D02*
D03*
Y00110000D02*
D03*
Y00140000D02*
D03*
Y00170000D02*
D03*
X00564400Y00080000D02*
D03*
Y00110000D02*
D03*
Y00140000D02*
D03*
Y00170000D02*
D03*
X00350000Y00161500D02*
D03*
Y00131500D02*
D03*
Y00101500D02*
D03*
X00175000Y00102770D02*
D03*
Y00132770D02*
D03*
Y00162770D02*
D03*
Y00192770D02*
D03*
Y00072770D02*
D03*
D38*
X00564400Y00200000D02*
D03*
D39*
X00525000Y00050000D02*
D03*
Y00230000D02*
D03*
D40*
X00750000Y00050000D02*
D03*
X00050000D02*
D03*
X00750000Y00650000D02*
D03*
X00050000Y00650000D02*
D03*
D41*
X00725170Y00260350D02*
D03*
Y00209550D02*
D03*
X00525000Y00562500D02*
D03*
Y00437500D02*
D03*
X00575000Y00562500D02*
D03*
Y00437500D02*
D03*
X00225000Y00562500D02*
D03*
Y00437500D02*
D03*
X00275000Y00562500D02*
D03*
Y00437500D02*
D03*
X00725000Y00450000D02*
D03*
Y00500800D02*
D03*
X00725170Y00328930D02*
D03*
Y00379730D02*
D03*
D42*
X00350000Y00050000D02*
D03*
Y00213000D02*
D03*
X00175000Y00244270D02*
D03*
Y00051270D02*
D03*
D43*
X00350000Y00191500D02*
D03*
X00175000Y00222770D02*
D03*
D44*
X00350000Y00071500D02*
D03*
D45*
X00050000Y00375000D02*
D03*
D63*
X00525500Y00258500D02*
D03*
Y00291500D02*
D03*
X00574500D02*
D03*
Y00258500D02*
D03*
X00225500D02*
D03*
Y00291500D02*
D03*
X00274500D02*
D03*
Y00258500D02*
D03*
M02*
