G04*
G04 #@! TF.GenerationSoftware,Altium Limited,Altium Designer,24.8.2 (39)*
G04*
G04 Layer_Color=8388736*
%FSAX44Y44*%
%MOMM*%
G71*
G04*
G04 #@! TF.SameCoordinates,ED335716-89E2-4A76-9CEC-4F5FE7A58361*
G04*
G04*
G04 #@! TF.FilePolarity,Negative*
G04*
G01*
G75*
%ADD24R,1.1000X0.9000*%
%ADD25R,1.3000X3.1000*%
%ADD26R,3.1000X1.3000*%
%ADD27R,0.6500X1.0500*%
%ADD28R,0.9000X1.1000*%
%ADD29C,1.6000*%
%ADD30R,1.0500X0.6500*%
%ADD31R,1.1000X0.7000*%
%ADD32R,0.4500X1.5000*%
%ADD33R,0.5500X1.5500*%
%ADD34C,2.1000*%
%ADD35R,1.9000X1.9000*%
%ADD36C,1.9000*%
%ADD37C,1.8000*%
%ADD38R,1.8000X1.8000*%
%ADD39C,1.1200*%
%ADD40C,4.1000*%
%ADD41C,2.6000*%
%ADD42C,2.5000*%
%ADD43R,1.8000X1.7000*%
%ADD44O,1.8000X1.7000*%
%ADD45R,1.6000X1.6000*%
D24*
X00410210Y00630220D02*
D03*
Y00617220D02*
D03*
X00426720D02*
D03*
Y00630220D02*
D03*
X00657860Y00328930D02*
D03*
Y00341930D02*
D03*
X00656590Y00262590D02*
D03*
Y00275590D02*
D03*
X00462280Y00050500D02*
D03*
Y00063500D02*
D03*
X00374650Y00438450D02*
D03*
Y00425450D02*
D03*
X00355600D02*
D03*
Y00438450D02*
D03*
X00336550Y00425450D02*
D03*
Y00438450D02*
D03*
X00317500D02*
D03*
Y00425450D02*
D03*
X00459740Y00565150D02*
D03*
Y00578150D02*
D03*
X00419100Y00579120D02*
D03*
Y00566120D02*
D03*
X00398780Y00579120D02*
D03*
Y00566120D02*
D03*
X00360680Y00579420D02*
D03*
Y00566420D02*
D03*
X00340360D02*
D03*
Y00579420D02*
D03*
X00320040Y00566420D02*
D03*
Y00579420D02*
D03*
X00300990D02*
D03*
Y00566420D02*
D03*
D25*
X00623570Y00475240D02*
D03*
Y00523240D02*
D03*
X00146050Y00401320D02*
D03*
Y00449320D02*
D03*
D26*
X00713870Y00133350D02*
D03*
X00761870D02*
D03*
D27*
X00485140Y00340060D02*
D03*
X00475640Y00366060D02*
D03*
X00494640D02*
D03*
X00558800Y00340060D02*
D03*
X00549300Y00366060D02*
D03*
X00568300D02*
D03*
X00521970Y00340060D02*
D03*
X00512470Y00366060D02*
D03*
X00531470D02*
D03*
D28*
X00220980Y00222250D02*
D03*
X00207980D02*
D03*
X00219710Y00193040D02*
D03*
X00206710D02*
D03*
X00219710Y00162560D02*
D03*
X00206710D02*
D03*
X00219710Y00132080D02*
D03*
X00206710D02*
D03*
X00394970Y00190500D02*
D03*
X00381970D02*
D03*
X00394970Y00161290D02*
D03*
X00381970D02*
D03*
X00394970Y00132080D02*
D03*
X00381970D02*
D03*
X00394970Y00101600D02*
D03*
X00381970D02*
D03*
X00284180Y00628650D02*
D03*
X00297180D02*
D03*
X00622300Y00261620D02*
D03*
X00635300D02*
D03*
X00622000Y00245110D02*
D03*
X00635000D02*
D03*
X00622300Y00190500D02*
D03*
X00635300D02*
D03*
X00622000Y00175260D02*
D03*
X00635000D02*
D03*
X00668560Y00073410D02*
D03*
X00655560D02*
D03*
Y00093410D02*
D03*
X00668560D02*
D03*
X00655560Y00113410D02*
D03*
X00668560D02*
D03*
X00617460Y00113100D02*
D03*
X00630460D02*
D03*
Y00093100D02*
D03*
X00617460D02*
D03*
Y00073100D02*
D03*
X00630460D02*
D03*
X00469900Y00134620D02*
D03*
X00482900D02*
D03*
Y00152400D02*
D03*
X00469900D02*
D03*
X00483000Y00170000D02*
D03*
X00470000D02*
D03*
X00298750Y00127000D02*
D03*
X00285750D02*
D03*
X00298750Y00146050D02*
D03*
X00285750D02*
D03*
X00298750Y00165100D02*
D03*
X00285750D02*
D03*
X00298750Y00184150D02*
D03*
X00285750D02*
D03*
X00122210Y00116270D02*
D03*
X00109210D02*
D03*
X00122210Y00136270D02*
D03*
X00109210D02*
D03*
X00122210Y00156270D02*
D03*
X00109210D02*
D03*
X00122210Y00176270D02*
D03*
X00109210D02*
D03*
D29*
X00775000Y00600000D02*
D03*
X00025000Y00100000D02*
D03*
Y00605000D02*
D03*
X00050000Y00527500D02*
D03*
Y00502000D02*
D03*
Y00400400D02*
D03*
Y00425800D02*
D03*
Y00451200D02*
D03*
Y00476600D02*
D03*
D30*
X00635000Y00209550D02*
D03*
Y00228550D02*
D03*
X00609000Y00219050D02*
D03*
X00636570Y00139090D02*
D03*
Y00158090D02*
D03*
X00610570Y00148590D02*
D03*
D31*
X00490000Y00099000D02*
D03*
Y00080000D02*
D03*
X00463000D02*
D03*
Y00089500D02*
D03*
Y00099000D02*
D03*
D32*
X00362750Y00527000D02*
D03*
X00356250D02*
D03*
X00349750D02*
D03*
X00343250D02*
D03*
X00336750D02*
D03*
X00330250D02*
D03*
X00323750D02*
D03*
X00317250D02*
D03*
X00362750Y00473000D02*
D03*
X00356250D02*
D03*
X00349750D02*
D03*
X00343250D02*
D03*
X00336750D02*
D03*
X00330250D02*
D03*
X00323750D02*
D03*
X00317250D02*
D03*
D33*
X00492250Y00535250D02*
D03*
X00485750D02*
D03*
X00479250D02*
D03*
X00472750D02*
D03*
X00466250D02*
D03*
X00459750D02*
D03*
X00453250D02*
D03*
X00446750D02*
D03*
X00440250D02*
D03*
X00433750D02*
D03*
X00427250D02*
D03*
X00420750D02*
D03*
X00414250D02*
D03*
X00407750D02*
D03*
X00492250Y00464750D02*
D03*
X00485750D02*
D03*
X00479250D02*
D03*
X00472750D02*
D03*
X00466250D02*
D03*
X00459750D02*
D03*
X00453250D02*
D03*
X00446750D02*
D03*
X00440250D02*
D03*
X00433750D02*
D03*
X00427250D02*
D03*
X00420750D02*
D03*
X00414250D02*
D03*
X00407750D02*
D03*
D34*
X00292100Y00530860D02*
D03*
D35*
X00250000Y00655000D02*
D03*
D36*
X00275400D02*
D03*
X00300800D02*
D03*
X00326200D02*
D03*
X00351600D02*
D03*
X00377000D02*
D03*
X00402400D02*
D03*
X00427800D02*
D03*
D37*
X00534400Y00200000D02*
D03*
Y00080000D02*
D03*
Y00110000D02*
D03*
Y00140000D02*
D03*
Y00170000D02*
D03*
X00564400Y00080000D02*
D03*
Y00110000D02*
D03*
Y00140000D02*
D03*
Y00170000D02*
D03*
X00350000Y00161500D02*
D03*
Y00131500D02*
D03*
Y00101500D02*
D03*
X00175000Y00102770D02*
D03*
Y00132770D02*
D03*
Y00162770D02*
D03*
Y00192770D02*
D03*
Y00072770D02*
D03*
D38*
X00564400Y00200000D02*
D03*
D39*
X00525000Y00050000D02*
D03*
Y00230000D02*
D03*
D40*
X00750000Y00050000D02*
D03*
X00050000D02*
D03*
X00750000Y00650000D02*
D03*
X00050000Y00650000D02*
D03*
D41*
X00725170Y00260350D02*
D03*
Y00209550D02*
D03*
X00525000Y00562500D02*
D03*
Y00437500D02*
D03*
X00575000Y00562500D02*
D03*
Y00437500D02*
D03*
X00225000Y00562500D02*
D03*
Y00437500D02*
D03*
X00275000Y00562500D02*
D03*
Y00437500D02*
D03*
X00725000Y00450000D02*
D03*
Y00500800D02*
D03*
X00725170Y00328930D02*
D03*
Y00379730D02*
D03*
D42*
X00350000Y00050000D02*
D03*
Y00213000D02*
D03*
X00175000Y00244270D02*
D03*
Y00051270D02*
D03*
D43*
X00350000Y00191500D02*
D03*
X00175000Y00222770D02*
D03*
D44*
X00350000Y00071500D02*
D03*
D45*
X00050000Y00375000D02*
D03*
M02*
