G04*
G04 #@! TF.GenerationSoftware,Altium Limited,Altium Designer,24.8.2 (39)*
G04*
G04 Layer_Physical_Order=2*
G04 Layer_Color=16711680*
%FSAX44Y44*%
%MOMM*%
G71*
G04*
G04 #@! TF.SameCoordinates,797AAC5B-F729-46B2-8772-93C60BB36BBD*
G04*
G04*
G04 #@! TF.FilePolarity,Positive*
G04*
G01*
G75*
%ADD10C,0.2500*%
%ADD34C,1.6000*%
%ADD39C,1.8000*%
%ADD41R,1.6000X1.6000*%
%ADD42C,1.7000*%
%ADD43R,1.7000X1.7000*%
%ADD48C,2.5000*%
%ADD53C,0.5000*%
%ADD54C,2.0000*%
%ADD55C,3.0000*%
%ADD56C,1.0200*%
%ADD57C,1.5000*%
%ADD58R,1.5000X1.5000*%
%ADD59R,1.8000X1.8000*%
%ADD60C,4.0000*%
%ADD61C,2.4000*%
%ADD62R,1.7000X1.6000*%
%ADD63O,1.7000X1.6000*%
%ADD64C,0.7000*%
%ADD65C,0.6000*%
%ADD66R,1.5000X0.9000*%
G36*
X00793065Y00006935D02*
X00007058Y00006350D01*
X00006351Y00007058D01*
X00006935Y00693065D01*
X00793065D01*
Y00006935D01*
D02*
G37*
%LPC*%
G36*
X00302438Y00666066D02*
X00302240D01*
Y00656316D01*
X00311990D01*
Y00656514D01*
X00311240Y00659312D01*
X00309792Y00661820D01*
X00307744Y00663868D01*
X00305236Y00665316D01*
X00302438Y00666066D01*
D02*
G37*
G36*
X00299740D02*
X00299542D01*
X00296744Y00665316D01*
X00294236Y00663868D01*
X00292188Y00661820D01*
X00290740Y00659312D01*
X00289990Y00656514D01*
Y00656316D01*
X00299740D01*
Y00666066D01*
D02*
G37*
G36*
X00752167Y00672000D02*
X00751250D01*
Y00651250D01*
X00772000D01*
Y00652167D01*
X00771154Y00656417D01*
X00769496Y00660421D01*
X00767088Y00664024D01*
X00764024Y00667088D01*
X00760421Y00669496D01*
X00756417Y00671155D01*
X00752167Y00672000D01*
D02*
G37*
G36*
X00748750D02*
X00747833D01*
X00743583Y00671155D01*
X00739579Y00669496D01*
X00735976Y00667088D01*
X00732912Y00664024D01*
X00730504Y00660421D01*
X00728846Y00656417D01*
X00728000Y00652167D01*
Y00651250D01*
X00748750D01*
Y00672000D01*
D02*
G37*
G36*
X00052167Y00672000D02*
X00051250D01*
Y00651250D01*
X00072000D01*
Y00652167D01*
X00071154Y00656417D01*
X00069496Y00660421D01*
X00067088Y00664024D01*
X00064024Y00667088D01*
X00060421Y00669496D01*
X00056417Y00671154D01*
X00052167Y00672000D01*
D02*
G37*
G36*
X00048750D02*
X00047833D01*
X00043583Y00671154D01*
X00039579Y00669496D01*
X00035976Y00667088D01*
X00032912Y00664024D01*
X00030504Y00660421D01*
X00028846Y00656417D01*
X00028000Y00652167D01*
Y00651250D01*
X00048750D01*
Y00672000D01*
D02*
G37*
G36*
X00429372Y00665566D02*
X00426608D01*
X00423937Y00664850D01*
X00421543Y00663468D01*
X00419588Y00661513D01*
X00418206Y00659119D01*
X00417490Y00656448D01*
Y00653684D01*
X00418206Y00651013D01*
X00419588Y00648619D01*
X00421543Y00646664D01*
X00423937Y00645282D01*
X00426608Y00644566D01*
X00429372D01*
X00432043Y00645282D01*
X00434437Y00646664D01*
X00436392Y00648619D01*
X00437774Y00651013D01*
X00438490Y00653684D01*
Y00656448D01*
X00437774Y00659119D01*
X00436392Y00661513D01*
X00434437Y00663468D01*
X00432043Y00664850D01*
X00429372Y00665566D01*
D02*
G37*
G36*
X00403972D02*
X00401208D01*
X00398537Y00664850D01*
X00396143Y00663468D01*
X00394188Y00661513D01*
X00392806Y00659119D01*
X00392090Y00656448D01*
Y00653684D01*
X00392806Y00651013D01*
X00394188Y00648619D01*
X00396143Y00646664D01*
X00398537Y00645282D01*
X00401208Y00644566D01*
X00403972D01*
X00406643Y00645282D01*
X00409037Y00646664D01*
X00410992Y00648619D01*
X00412374Y00651013D01*
X00413090Y00653684D01*
Y00656448D01*
X00412374Y00659119D01*
X00410992Y00661513D01*
X00409037Y00663468D01*
X00406643Y00664850D01*
X00403972Y00665566D01*
D02*
G37*
G36*
X00378572D02*
X00375808D01*
X00373137Y00664850D01*
X00370743Y00663468D01*
X00368788Y00661513D01*
X00367406Y00659119D01*
X00366690Y00656448D01*
Y00653684D01*
X00367406Y00651013D01*
X00368788Y00648619D01*
X00370743Y00646664D01*
X00373137Y00645282D01*
X00375808Y00644566D01*
X00378572D01*
X00381243Y00645282D01*
X00383637Y00646664D01*
X00385592Y00648619D01*
X00386974Y00651013D01*
X00387690Y00653684D01*
Y00656448D01*
X00386974Y00659119D01*
X00385592Y00661513D01*
X00383637Y00663468D01*
X00381243Y00664850D01*
X00378572Y00665566D01*
D02*
G37*
G36*
X00353172D02*
X00350408D01*
X00347737Y00664850D01*
X00345343Y00663468D01*
X00343388Y00661513D01*
X00342006Y00659119D01*
X00341290Y00656448D01*
Y00653684D01*
X00342006Y00651013D01*
X00343388Y00648619D01*
X00345343Y00646664D01*
X00347737Y00645282D01*
X00350408Y00644566D01*
X00353172D01*
X00355843Y00645282D01*
X00358237Y00646664D01*
X00360192Y00648619D01*
X00361574Y00651013D01*
X00362290Y00653684D01*
Y00656448D01*
X00361574Y00659119D01*
X00360192Y00661513D01*
X00358237Y00663468D01*
X00355843Y00664850D01*
X00353172Y00665566D01*
D02*
G37*
G36*
X00327772D02*
X00325008D01*
X00322337Y00664850D01*
X00319943Y00663468D01*
X00317988Y00661513D01*
X00316606Y00659119D01*
X00315890Y00656448D01*
Y00653684D01*
X00316606Y00651013D01*
X00317988Y00648619D01*
X00319943Y00646664D01*
X00322337Y00645282D01*
X00325008Y00644566D01*
X00327772D01*
X00330443Y00645282D01*
X00332837Y00646664D01*
X00334792Y00648619D01*
X00336174Y00651013D01*
X00336890Y00653684D01*
Y00656448D01*
X00336174Y00659119D01*
X00334792Y00661513D01*
X00332837Y00663468D01*
X00330443Y00664850D01*
X00327772Y00665566D01*
D02*
G37*
G36*
X00276972D02*
X00274208D01*
X00271537Y00664850D01*
X00269143Y00663468D01*
X00267188Y00661513D01*
X00265806Y00659119D01*
X00265090Y00656448D01*
Y00653684D01*
X00265806Y00651013D01*
X00267188Y00648619D01*
X00269143Y00646664D01*
X00271537Y00645282D01*
X00274208Y00644566D01*
X00276972D01*
X00279643Y00645282D01*
X00282037Y00646664D01*
X00283992Y00648619D01*
X00285374Y00651013D01*
X00286090Y00653684D01*
Y00656448D01*
X00285374Y00659119D01*
X00283992Y00661513D01*
X00282037Y00663468D01*
X00279643Y00664850D01*
X00276972Y00665566D01*
D02*
G37*
G36*
X00260690D02*
X00239690D01*
Y00644566D01*
X00260690D01*
Y00665566D01*
D02*
G37*
G36*
X00311990Y00653816D02*
X00302240D01*
Y00644066D01*
X00302438D01*
X00305236Y00644816D01*
X00307744Y00646264D01*
X00309792Y00648312D01*
X00311240Y00650820D01*
X00311990Y00653618D01*
Y00653816D01*
D02*
G37*
G36*
X00299740D02*
X00289990D01*
Y00653618D01*
X00290740Y00650820D01*
X00292188Y00648312D01*
X00294236Y00646264D01*
X00296744Y00644816D01*
X00299542Y00644066D01*
X00299740D01*
Y00653816D01*
D02*
G37*
G36*
X00772000Y00648750D02*
X00751250D01*
Y00628000D01*
X00752167D01*
X00756417Y00628845D01*
X00760421Y00630504D01*
X00764024Y00632911D01*
X00767088Y00635976D01*
X00769496Y00639579D01*
X00771154Y00643583D01*
X00772000Y00647833D01*
Y00648750D01*
D02*
G37*
G36*
X00748750D02*
X00728000D01*
Y00647833D01*
X00728846Y00643583D01*
X00730504Y00639579D01*
X00732912Y00635976D01*
X00735976Y00632911D01*
X00739579Y00630504D01*
X00743583Y00628845D01*
X00747833Y00628000D01*
X00748750D01*
Y00648750D01*
D02*
G37*
G36*
X00072000Y00648750D02*
X00051250D01*
Y00628000D01*
X00052167D01*
X00056417Y00628845D01*
X00060421Y00630504D01*
X00064024Y00632911D01*
X00067088Y00635976D01*
X00069496Y00639579D01*
X00071154Y00643583D01*
X00072000Y00647833D01*
Y00648750D01*
D02*
G37*
G36*
X00048750D02*
X00028000D01*
Y00647833D01*
X00028846Y00643583D01*
X00030504Y00639579D01*
X00032912Y00635976D01*
X00035976Y00632911D01*
X00039579Y00630504D01*
X00043583Y00628845D01*
X00047833Y00628000D01*
X00048750D01*
Y00648750D01*
D02*
G37*
G36*
X00052051Y00593700D02*
X00052050D01*
Y00585450D01*
X00060300D01*
Y00585451D01*
X00059653Y00587867D01*
X00058402Y00590033D01*
X00056633Y00591802D01*
X00054467Y00593053D01*
X00052051Y00593700D01*
D02*
G37*
G36*
X00049550D02*
X00049549D01*
X00047133Y00593053D01*
X00044967Y00591802D01*
X00043198Y00590033D01*
X00041947Y00587867D01*
X00041300Y00585451D01*
Y00585450D01*
X00049550D01*
Y00593700D01*
D02*
G37*
G36*
X00060300Y00582950D02*
X00052050D01*
Y00574700D01*
X00052051D01*
X00054467Y00575347D01*
X00056633Y00576598D01*
X00058402Y00578367D01*
X00059653Y00580533D01*
X00060300Y00582949D01*
Y00582950D01*
D02*
G37*
G36*
X00049550D02*
X00041300D01*
Y00582949D01*
X00041947Y00580533D01*
X00043198Y00578367D01*
X00044967Y00576598D01*
X00047133Y00575347D01*
X00049549Y00574700D01*
X00049550D01*
Y00582950D01*
D02*
G37*
G36*
X00418825Y00574976D02*
X00416835D01*
X00414998Y00574215D01*
X00414495Y00573712D01*
X00414213Y00573604D01*
X00414017Y00573418D01*
X00413865Y00573294D01*
X00413712Y00573189D01*
X00413557Y00573100D01*
X00413398Y00573025D01*
X00413233Y00572964D01*
X00413060Y00572916D01*
X00412874Y00572881D01*
X00412675Y00572858D01*
X00412402Y00572849D01*
X00412252Y00572780D01*
X00313848D01*
X00312775Y00572566D01*
X00312178Y00572168D01*
X00311858Y00572048D01*
X00311482Y00571698D01*
X00311370Y00571607D01*
X00311341Y00571586D01*
X00311129Y00571674D01*
X00309139D01*
X00307302Y00570913D01*
X00305895Y00569506D01*
X00305134Y00567669D01*
Y00565679D01*
X00305895Y00563842D01*
X00307302Y00562435D01*
X00309139Y00561674D01*
X00311129D01*
X00312966Y00562435D01*
X00314373Y00563842D01*
X00315134Y00565679D01*
Y00567066D01*
X00315137Y00567073D01*
X00315137Y00567074D01*
X00315173Y00567133D01*
X00315201Y00567172D01*
X00412252D01*
X00412402Y00567104D01*
X00412600Y00567096D01*
X00412771Y00566841D01*
X00412757Y00566695D01*
X00412289Y00565922D01*
X00338328D01*
X00337255Y00565708D01*
X00336345Y00565101D01*
X00332161Y00560917D01*
X00332007Y00560859D01*
X00331807Y00560673D01*
X00331651Y00560548D01*
X00331494Y00560442D01*
X00331338Y00560354D01*
X00331178Y00560280D01*
X00331013Y00560220D01*
X00330841Y00560174D01*
X00330658Y00560140D01*
X00330462Y00560120D01*
X00330192Y00560113D01*
X00329916Y00559990D01*
X00329205D01*
X00327368Y00559229D01*
X00325961Y00557822D01*
X00325200Y00555985D01*
Y00553995D01*
X00325961Y00552158D01*
X00327368Y00550751D01*
X00329205Y00549990D01*
X00331195D01*
X00333032Y00550751D01*
X00334439Y00552158D01*
X00335200Y00553995D01*
Y00554706D01*
X00335323Y00554982D01*
X00335330Y00555252D01*
X00335350Y00555448D01*
X00335384Y00555631D01*
X00335430Y00555803D01*
X00335490Y00555968D01*
X00335564Y00556127D01*
X00335652Y00556284D01*
X00335758Y00556441D01*
X00335883Y00556597D01*
X00336069Y00556797D01*
X00336127Y00556951D01*
X00339489Y00560314D01*
X00481166D01*
X00481431Y00559622D01*
X00481454Y00559314D01*
X00481327Y00559194D01*
X00481175Y00559070D01*
X00481022Y00558965D01*
X00480867Y00558876D01*
X00480708Y00558801D01*
X00480543Y00558740D01*
X00480370Y00558692D01*
X00480184Y00558657D01*
X00479985Y00558634D01*
X00479712Y00558624D01*
X00479562Y00558556D01*
X00346912D01*
X00345839Y00558342D01*
X00345735Y00558273D01*
X00344657Y00558720D01*
X00342667D01*
X00340830Y00557959D01*
X00339423Y00556552D01*
X00338662Y00554715D01*
Y00552725D01*
X00339423Y00550888D01*
X00340830Y00549481D01*
X00342667Y00548720D01*
X00344657D01*
X00346255Y00549382D01*
X00346994Y00549052D01*
X00347255Y00548828D01*
Y00547645D01*
X00348016Y00545808D01*
X00349423Y00544401D01*
X00351260Y00543640D01*
X00353250D01*
X00355087Y00544401D01*
X00355970Y00545284D01*
X00356240Y00545421D01*
X00356404Y00545612D01*
X00356524Y00545730D01*
X00356644Y00545828D01*
X00356767Y00545910D01*
X00356895Y00545978D01*
X00357031Y00546035D01*
X00357181Y00546081D01*
X00357349Y00546116D01*
X00357536Y00546138D01*
X00357808Y00546149D01*
X00357869Y00546177D01*
X00357935Y00546158D01*
X00358040Y00546217D01*
X00473260D01*
X00473365Y00546158D01*
X00473430Y00546177D01*
X00473492Y00546149D01*
X00473763Y00546138D01*
X00473951Y00546116D01*
X00474118Y00546081D01*
X00474268Y00546035D01*
X00474405Y00545978D01*
X00474532Y00545910D01*
X00474655Y00545828D01*
X00474776Y00545730D01*
X00474896Y00545612D01*
X00475060Y00545420D01*
X00475331Y00545283D01*
X00476212Y00544402D01*
X00478049Y00543641D01*
X00480039D01*
X00481876Y00544402D01*
X00483283Y00545809D01*
X00484044Y00547646D01*
Y00549636D01*
X00483965Y00549827D01*
X00484664Y00550752D01*
X00486135D01*
X00487972Y00551513D01*
X00489379Y00552920D01*
X00490140Y00554757D01*
Y00556747D01*
X00489817Y00557527D01*
X00490582Y00558293D01*
X00491003Y00558118D01*
X00492993D01*
X00494830Y00558879D01*
X00496237Y00560286D01*
X00496998Y00562123D01*
Y00564113D01*
X00496237Y00565950D01*
X00494830Y00567357D01*
X00492993Y00568118D01*
X00491003D01*
X00489166Y00567357D01*
X00488663Y00566854D01*
X00488381Y00566746D01*
X00488185Y00566560D01*
X00488033Y00566436D01*
X00487880Y00566331D01*
X00487724Y00566241D01*
X00487566Y00566167D01*
X00487401Y00566106D01*
X00487228Y00566058D01*
X00487042Y00566022D01*
X00486843Y00566000D01*
X00486570Y00565990D01*
X00486420Y00565922D01*
X00422154D01*
X00421771Y00566846D01*
X00422069Y00567144D01*
X00422830Y00568981D01*
Y00570971D01*
X00422069Y00572808D01*
X00420662Y00574215D01*
X00418825Y00574976D01*
D02*
G37*
G36*
X00051985Y00567700D02*
X00049615D01*
X00047326Y00567087D01*
X00045274Y00565902D01*
X00043598Y00564226D01*
X00042413Y00562174D01*
X00041800Y00559885D01*
Y00557515D01*
X00042413Y00555226D01*
X00043598Y00553174D01*
X00045274Y00551498D01*
X00047326Y00550313D01*
X00049615Y00549700D01*
X00051985D01*
X00054274Y00550313D01*
X00056326Y00551498D01*
X00058002Y00553174D01*
X00059187Y00555226D01*
X00059800Y00557515D01*
Y00559885D01*
X00059187Y00562174D01*
X00058002Y00564226D01*
X00056326Y00565902D01*
X00054274Y00567087D01*
X00051985Y00567700D01*
D02*
G37*
G36*
X00576843Y00576500D02*
X00573157D01*
X00569596Y00575546D01*
X00566404Y00573703D01*
X00563797Y00571096D01*
X00561954Y00567904D01*
X00561000Y00564343D01*
Y00560657D01*
X00561954Y00557096D01*
X00563797Y00553904D01*
X00566404Y00551297D01*
X00569596Y00549454D01*
X00573157Y00548500D01*
X00576843D01*
X00580404Y00549454D01*
X00583596Y00551297D01*
X00586203Y00553904D01*
X00588046Y00557096D01*
X00589000Y00560657D01*
Y00564343D01*
X00588046Y00567904D01*
X00586203Y00571096D01*
X00583596Y00573703D01*
X00580404Y00575546D01*
X00576843Y00576500D01*
D02*
G37*
G36*
X00526843D02*
X00523157D01*
X00519596Y00575546D01*
X00516404Y00573703D01*
X00513797Y00571096D01*
X00511954Y00567904D01*
X00511000Y00564343D01*
Y00560657D01*
X00511954Y00557096D01*
X00513797Y00553904D01*
X00516404Y00551297D01*
X00519596Y00549454D01*
X00523157Y00548500D01*
X00526843D01*
X00530404Y00549454D01*
X00533596Y00551297D01*
X00536203Y00553904D01*
X00538046Y00557096D01*
X00539000Y00560657D01*
Y00564343D01*
X00538046Y00567904D01*
X00536203Y00571096D01*
X00533596Y00573703D01*
X00530404Y00575546D01*
X00526843Y00576500D01*
D02*
G37*
G36*
X00276843D02*
X00273157D01*
X00269596Y00575546D01*
X00266404Y00573703D01*
X00263797Y00571096D01*
X00261954Y00567904D01*
X00261000Y00564343D01*
Y00560657D01*
X00261954Y00557096D01*
X00263797Y00553904D01*
X00266404Y00551297D01*
X00269596Y00549454D01*
X00273157Y00548500D01*
X00276843D01*
X00280404Y00549454D01*
X00283596Y00551297D01*
X00286203Y00553904D01*
X00288046Y00557096D01*
X00289000Y00560657D01*
Y00564343D01*
X00288046Y00567904D01*
X00286203Y00571096D01*
X00283596Y00573703D01*
X00280404Y00575546D01*
X00276843Y00576500D01*
D02*
G37*
G36*
X00226843D02*
X00223157D01*
X00219596Y00575546D01*
X00216404Y00573703D01*
X00213797Y00571096D01*
X00211954Y00567904D01*
X00211000Y00564343D01*
Y00560657D01*
X00211954Y00557096D01*
X00213797Y00553904D01*
X00216404Y00551297D01*
X00219596Y00549454D01*
X00223157Y00548500D01*
X00226843D01*
X00230404Y00549454D01*
X00233596Y00551297D01*
X00236203Y00553904D01*
X00238046Y00557096D01*
X00239000Y00560657D01*
Y00564343D01*
X00238046Y00567904D01*
X00236203Y00571096D01*
X00233596Y00573703D01*
X00230404Y00575546D01*
X00226843Y00576500D01*
D02*
G37*
G36*
X00051985Y00542300D02*
X00049615D01*
X00047326Y00541687D01*
X00045274Y00540502D01*
X00043598Y00538826D01*
X00042413Y00536774D01*
X00041800Y00534485D01*
Y00532115D01*
X00042413Y00529826D01*
X00043598Y00527774D01*
X00045274Y00526098D01*
X00047326Y00524913D01*
X00049615Y00524300D01*
X00051985D01*
X00054274Y00524913D01*
X00056326Y00526098D01*
X00058002Y00527774D01*
X00059187Y00529826D01*
X00059800Y00532115D01*
Y00534485D01*
X00059187Y00536774D01*
X00058002Y00538826D01*
X00056326Y00540502D01*
X00054274Y00541687D01*
X00051985Y00542300D01*
D02*
G37*
G36*
X00726909Y00515300D02*
X00726250D01*
Y00502050D01*
X00739500D01*
Y00502709D01*
X00738512Y00506397D01*
X00736603Y00509703D01*
X00733903Y00512403D01*
X00730597Y00514312D01*
X00726909Y00515300D01*
D02*
G37*
G36*
X00723750D02*
X00723091D01*
X00719403Y00514312D01*
X00716097Y00512403D01*
X00713397Y00509703D01*
X00711488Y00506397D01*
X00710500Y00502709D01*
Y00502050D01*
X00723750D01*
Y00515300D01*
D02*
G37*
G36*
X00051985Y00516900D02*
X00049615D01*
X00047326Y00516287D01*
X00045274Y00515102D01*
X00043598Y00513426D01*
X00042413Y00511374D01*
X00041800Y00509085D01*
Y00506715D01*
X00042413Y00504426D01*
X00043598Y00502374D01*
X00045274Y00500698D01*
X00047326Y00499513D01*
X00049615Y00498900D01*
X00051985D01*
X00054274Y00499513D01*
X00056326Y00500698D01*
X00058002Y00502374D01*
X00059187Y00504426D01*
X00059800Y00506715D01*
Y00509085D01*
X00059187Y00511374D01*
X00058002Y00513426D01*
X00056326Y00515102D01*
X00054274Y00516287D01*
X00051985Y00516900D01*
D02*
G37*
G36*
X00739500Y00499550D02*
X00726250D01*
Y00486300D01*
X00726909D01*
X00730597Y00487288D01*
X00733903Y00489197D01*
X00736603Y00491897D01*
X00738512Y00495203D01*
X00739500Y00498891D01*
Y00499550D01*
D02*
G37*
G36*
X00723750D02*
X00710500D01*
Y00498891D01*
X00711488Y00495203D01*
X00713397Y00491897D01*
X00716097Y00489197D01*
X00719403Y00487288D01*
X00723091Y00486300D01*
X00723750D01*
Y00499550D01*
D02*
G37*
G36*
X00051985Y00491500D02*
X00049615D01*
X00047326Y00490887D01*
X00045274Y00489702D01*
X00043598Y00488026D01*
X00042413Y00485974D01*
X00041800Y00483685D01*
Y00481315D01*
X00042413Y00479026D01*
X00043598Y00476974D01*
X00045274Y00475298D01*
X00047326Y00474113D01*
X00049615Y00473500D01*
X00051985D01*
X00054274Y00474113D01*
X00056326Y00475298D01*
X00058002Y00476974D01*
X00059187Y00479026D01*
X00059800Y00481315D01*
Y00483685D01*
X00059187Y00485974D01*
X00058002Y00488026D01*
X00056326Y00489702D01*
X00054274Y00490887D01*
X00051985Y00491500D01*
D02*
G37*
G36*
Y00466100D02*
X00049615D01*
X00047326Y00465487D01*
X00045274Y00464302D01*
X00043598Y00462626D01*
X00042413Y00460574D01*
X00041800Y00458285D01*
Y00455915D01*
X00042413Y00453626D01*
X00043598Y00451574D01*
X00045274Y00449898D01*
X00047326Y00448713D01*
X00049615Y00448100D01*
X00051985D01*
X00054274Y00448713D01*
X00056326Y00449898D01*
X00058002Y00451574D01*
X00059187Y00453626D01*
X00059800Y00455915D01*
Y00458285D01*
X00059187Y00460574D01*
X00058002Y00462626D01*
X00056326Y00464302D01*
X00054274Y00465487D01*
X00051985Y00466100D01*
D02*
G37*
G36*
X00526909Y00452000D02*
X00526250D01*
Y00438750D01*
X00539500D01*
Y00439409D01*
X00538512Y00443097D01*
X00536603Y00446403D01*
X00533903Y00449103D01*
X00530597Y00451012D01*
X00526909Y00452000D01*
D02*
G37*
G36*
X00523750D02*
X00523091D01*
X00519403Y00451012D01*
X00516097Y00449103D01*
X00513397Y00446403D01*
X00511488Y00443097D01*
X00510500Y00439409D01*
Y00438750D01*
X00523750D01*
Y00452000D01*
D02*
G37*
G36*
X00226909D02*
X00226250D01*
Y00438750D01*
X00239500D01*
Y00439409D01*
X00238512Y00443097D01*
X00236603Y00446403D01*
X00233903Y00449103D01*
X00230597Y00451012D01*
X00226909Y00452000D01*
D02*
G37*
G36*
X00223750D02*
X00223091D01*
X00219403Y00451012D01*
X00216097Y00449103D01*
X00213397Y00446403D01*
X00211488Y00443097D01*
X00210500Y00439409D01*
Y00438750D01*
X00223750D01*
Y00452000D01*
D02*
G37*
G36*
X00726843Y00464000D02*
X00723157D01*
X00719596Y00463046D01*
X00716404Y00461203D01*
X00713797Y00458596D01*
X00711954Y00455404D01*
X00711000Y00451843D01*
Y00448157D01*
X00711954Y00444596D01*
X00713797Y00441404D01*
X00716404Y00438797D01*
X00719596Y00436954D01*
X00723157Y00436000D01*
X00726843D01*
X00730404Y00436954D01*
X00733596Y00438797D01*
X00736203Y00441404D01*
X00738046Y00444596D01*
X00739000Y00448157D01*
Y00451843D01*
X00738046Y00455404D01*
X00736203Y00458596D01*
X00733596Y00461203D01*
X00730404Y00463046D01*
X00726843Y00464000D01*
D02*
G37*
G36*
X00318241Y00544750D02*
X00316251D01*
X00314414Y00543989D01*
X00313007Y00542582D01*
X00312246Y00540745D01*
Y00538755D01*
X00313007Y00536918D01*
X00313510Y00536415D01*
X00313618Y00536133D01*
X00313804Y00535937D01*
X00313928Y00535785D01*
X00314033Y00535632D01*
X00314123Y00535476D01*
X00314197Y00535318D01*
X00314258Y00535153D01*
X00314306Y00534980D01*
X00314342Y00534794D01*
X00314364Y00534595D01*
X00314373Y00534322D01*
X00314442Y00534172D01*
Y00517092D01*
X00314656Y00516019D01*
X00315263Y00515109D01*
X00319275Y00511097D01*
X00320118Y00510534D01*
X00320128Y00510461D01*
X00319544Y00509534D01*
X00302260D01*
X00301187Y00509320D01*
X00300277Y00508713D01*
X00273017Y00481453D01*
X00272410Y00480543D01*
X00272196Y00479470D01*
Y00457711D01*
X00272134Y00457595D01*
X00272072Y00456959D01*
X00271908Y00456345D01*
X00271603Y00455599D01*
X00271145Y00454735D01*
X00270531Y00453768D01*
X00269779Y00452730D01*
X00266487Y00448968D01*
X00265099Y00447571D01*
X00264977Y00447276D01*
X00263797Y00446096D01*
X00261954Y00442904D01*
X00261000Y00439343D01*
Y00435657D01*
X00261954Y00432096D01*
X00263797Y00428904D01*
X00266404Y00426297D01*
X00269596Y00424454D01*
X00273157Y00423500D01*
X00276843D01*
X00280404Y00424454D01*
X00283596Y00426297D01*
X00286203Y00428904D01*
X00288046Y00432096D01*
X00289000Y00435657D01*
Y00439343D01*
X00288046Y00442904D01*
X00286203Y00446096D01*
X00285023Y00447276D01*
X00284901Y00447571D01*
X00283493Y00448988D01*
X00282264Y00450298D01*
X00280230Y00452717D01*
X00279469Y00453767D01*
X00278855Y00454735D01*
X00278397Y00455599D01*
X00278092Y00456345D01*
X00277928Y00456959D01*
X00277866Y00457595D01*
X00277804Y00457711D01*
Y00478309D01*
X00303421Y00503926D01*
X00376307D01*
X00376435Y00503861D01*
X00376468Y00503872D01*
X00376499Y00503858D01*
X00376772Y00503847D01*
X00376963Y00503825D01*
X00377136Y00503789D01*
X00377294Y00503742D01*
X00377440Y00503684D01*
X00377578Y00503613D01*
X00377711Y00503529D01*
X00377843Y00503427D01*
X00377975Y00503306D01*
X00378149Y00503116D01*
X00378441Y00502980D01*
X00379184Y00502237D01*
X00381021Y00501476D01*
X00383011D01*
X00384848Y00502237D01*
X00385388Y00502777D01*
X00385675Y00502891D01*
X00385868Y00503077D01*
X00386017Y00503202D01*
X00386167Y00503307D01*
X00386318Y00503395D01*
X00386474Y00503469D01*
X00386635Y00503530D01*
X00386806Y00503578D01*
X00386989Y00503613D01*
X00387187Y00503636D01*
X00387460Y00503645D01*
X00387610Y00503714D01*
X00409729D01*
X00409879Y00503645D01*
X00410152Y00503636D01*
X00410353Y00503614D01*
X00410540Y00503578D01*
X00410716Y00503530D01*
X00410884Y00503469D01*
X00411046Y00503394D01*
X00411204Y00503304D01*
X00411361Y00503198D01*
X00411517Y00503074D01*
X00411716Y00502889D01*
X00411991Y00502788D01*
X00412458Y00502321D01*
X00414295Y00501560D01*
X00416285D01*
X00418122Y00502321D01*
X00419529Y00503728D01*
X00420290Y00505565D01*
Y00507555D01*
X00420232Y00507695D01*
X00420997Y00508460D01*
X00421915Y00508080D01*
X00423905D01*
X00425742Y00508841D01*
X00427149Y00510248D01*
X00427910Y00512085D01*
Y00514075D01*
X00427267Y00515626D01*
X00427742Y00516626D01*
X00553829D01*
X00572506Y00497949D01*
Y00457738D01*
X00572444Y00457621D01*
X00572381Y00456972D01*
X00572216Y00456355D01*
X00571909Y00455615D01*
X00571449Y00454764D01*
X00570832Y00453815D01*
X00570076Y00452804D01*
X00566752Y00449157D01*
X00565350Y00447813D01*
X00565222Y00447521D01*
X00563797Y00446096D01*
X00561954Y00442904D01*
X00561000Y00439343D01*
Y00435657D01*
X00561954Y00432096D01*
X00563797Y00428904D01*
X00566404Y00426297D01*
X00569596Y00424454D01*
X00573157Y00423500D01*
X00576843D01*
X00580404Y00424454D01*
X00583596Y00426297D01*
X00586203Y00428904D01*
X00588046Y00432096D01*
X00589000Y00435657D01*
Y00439343D01*
X00588046Y00442904D01*
X00586203Y00446096D01*
X00585261Y00447038D01*
X00585162Y00447308D01*
X00582531Y00450159D01*
X00580524Y00452640D01*
X00579768Y00453716D01*
X00579158Y00454703D01*
X00578703Y00455578D01*
X00578399Y00456329D01*
X00578237Y00456939D01*
X00578176Y00457561D01*
X00578114Y00457677D01*
Y00499110D01*
X00577900Y00500183D01*
X00577293Y00501093D01*
X00556973Y00521413D01*
X00556063Y00522020D01*
X00554990Y00522234D01*
X00413461D01*
X00413310Y00522303D01*
X00413037Y00522312D01*
X00412835Y00522334D01*
X00412644Y00522370D01*
X00412465Y00522418D01*
X00412293Y00522480D01*
X00412127Y00522555D01*
X00411964Y00522644D01*
X00411802Y00522751D01*
X00411641Y00522876D01*
X00411437Y00523059D01*
X00411174Y00523151D01*
X00410756Y00523569D01*
X00408919Y00524330D01*
X00406929D01*
X00405092Y00523569D01*
X00404632Y00523109D01*
X00404359Y00523009D01*
X00404159Y00522825D01*
X00404002Y00522700D01*
X00403844Y00522594D01*
X00403685Y00522504D01*
X00403523Y00522429D01*
X00403355Y00522368D01*
X00403178Y00522320D01*
X00402990Y00522284D01*
X00402790Y00522262D01*
X00402517Y00522253D01*
X00402366Y00522184D01*
X00381009D01*
X00380859Y00522253D01*
X00380586Y00522262D01*
X00380389Y00522285D01*
X00380206Y00522320D01*
X00380035Y00522368D01*
X00379874Y00522429D01*
X00379719Y00522503D01*
X00379569Y00522591D01*
X00379420Y00522696D01*
X00379271Y00522820D01*
X00379079Y00523007D01*
X00378791Y00523122D01*
X00378244Y00523669D01*
X00376407Y00524430D01*
X00374417D01*
X00372580Y00523669D01*
X00371173Y00522262D01*
X00370412Y00520425D01*
Y00518435D01*
X00371055Y00516884D01*
X00370580Y00515884D01*
X00322419D01*
X00320050Y00518253D01*
Y00534172D01*
X00320118Y00534322D01*
X00320128Y00534595D01*
X00320150Y00534794D01*
X00320186Y00534980D01*
X00320234Y00535153D01*
X00320295Y00535318D01*
X00320369Y00535476D01*
X00320459Y00535632D01*
X00320564Y00535785D01*
X00320688Y00535937D01*
X00320874Y00536133D01*
X00320982Y00536415D01*
X00321485Y00536918D01*
X00322246Y00538755D01*
Y00540745D01*
X00321485Y00542582D01*
X00320078Y00543989D01*
X00318241Y00544750D01*
D02*
G37*
G36*
X00539500Y00436250D02*
X00526250D01*
Y00423000D01*
X00526909D01*
X00530597Y00423988D01*
X00533903Y00425897D01*
X00536603Y00428597D01*
X00538512Y00431903D01*
X00539500Y00435591D01*
Y00436250D01*
D02*
G37*
G36*
X00523750D02*
X00510500D01*
Y00435591D01*
X00511488Y00431903D01*
X00513397Y00428597D01*
X00516097Y00425897D01*
X00519403Y00423988D01*
X00523091Y00423000D01*
X00523750D01*
Y00436250D01*
D02*
G37*
G36*
X00239500Y00436250D02*
X00226250D01*
Y00423000D01*
X00226909D01*
X00230597Y00423988D01*
X00233903Y00425897D01*
X00236603Y00428597D01*
X00238512Y00431903D01*
X00239500Y00435591D01*
Y00436250D01*
D02*
G37*
G36*
X00223750D02*
X00210500D01*
Y00435591D01*
X00211488Y00431903D01*
X00213397Y00428597D01*
X00216097Y00425897D01*
X00219403Y00423988D01*
X00223091Y00423000D01*
X00223750D01*
Y00436250D01*
D02*
G37*
G36*
X00059800Y00440700D02*
X00041800D01*
Y00422700D01*
X00059800D01*
Y00440700D01*
D02*
G37*
G36*
X00457687Y00392350D02*
X00455697D01*
X00453860Y00391589D01*
X00452453Y00390182D01*
X00451692Y00388345D01*
Y00386355D01*
X00452453Y00384518D01*
X00453860Y00383111D01*
X00455697Y00382350D01*
X00457687D01*
X00459524Y00383111D01*
X00459919Y00383506D01*
X00460177Y00383595D01*
X00460382Y00383777D01*
X00460546Y00383902D01*
X00460710Y00384008D01*
X00460875Y00384098D01*
X00461043Y00384174D01*
X00461217Y00384235D01*
X00461399Y00384283D01*
X00461590Y00384319D01*
X00461793Y00384341D01*
X00462067Y00384350D01*
X00462217Y00384419D01*
X00475957D01*
X00476106Y00384351D01*
X00476108Y00384351D01*
X00476109Y00384351D01*
X00476381Y00384341D01*
X00476577Y00384318D01*
X00476755Y00384283D01*
X00476922Y00384235D01*
X00477077Y00384175D01*
X00477226Y00384102D01*
X00477370Y00384015D01*
X00477512Y00383911D01*
X00477654Y00383788D01*
X00477840Y00383600D01*
X00478134Y00383475D01*
X00478752Y00382857D01*
X00480589Y00382096D01*
X00482579D01*
X00484416Y00382857D01*
X00485823Y00384264D01*
X00486584Y00386101D01*
Y00388091D01*
X00485823Y00389928D01*
X00484416Y00391335D01*
X00482579Y00392096D01*
X00480589D01*
X00478752Y00391335D01*
X00478357Y00390940D01*
X00478099Y00390851D01*
X00477893Y00390669D01*
X00477730Y00390544D01*
X00477566Y00390438D01*
X00477401Y00390348D01*
X00477233Y00390272D01*
X00477059Y00390211D01*
X00476877Y00390163D01*
X00476686Y00390127D01*
X00476483Y00390105D01*
X00476209Y00390096D01*
X00476059Y00390027D01*
X00462319D01*
X00462170Y00390095D01*
X00462168Y00390095D01*
X00462167Y00390095D01*
X00461895Y00390106D01*
X00461699Y00390128D01*
X00461521Y00390163D01*
X00461354Y00390211D01*
X00461199Y00390271D01*
X00461050Y00390344D01*
X00460906Y00390431D01*
X00460764Y00390535D01*
X00460621Y00390658D01*
X00460436Y00390846D01*
X00460142Y00390971D01*
X00459524Y00391589D01*
X00457687Y00392350D01*
D02*
G37*
G36*
X00727079Y00394230D02*
X00726420D01*
Y00380980D01*
X00739670D01*
Y00381639D01*
X00738682Y00385327D01*
X00736773Y00388633D01*
X00734073Y00391333D01*
X00730767Y00393242D01*
X00727079Y00394230D01*
D02*
G37*
G36*
X00723920D02*
X00723261D01*
X00719573Y00393242D01*
X00716267Y00391333D01*
X00713567Y00388633D01*
X00711658Y00385327D01*
X00710670Y00381639D01*
Y00380980D01*
X00723920D01*
Y00394230D01*
D02*
G37*
G36*
X00739670Y00378480D02*
X00726420D01*
Y00365230D01*
X00727079D01*
X00730767Y00366218D01*
X00734073Y00368127D01*
X00736773Y00370827D01*
X00738682Y00374133D01*
X00739670Y00377821D01*
Y00378480D01*
D02*
G37*
G36*
X00723920D02*
X00710670D01*
Y00377821D01*
X00711658Y00374133D01*
X00713567Y00370827D01*
X00716267Y00368127D01*
X00719573Y00366218D01*
X00723261Y00365230D01*
X00723920D01*
Y00378480D01*
D02*
G37*
G36*
X00513313Y00361108D02*
X00511323D01*
X00509486Y00360347D01*
X00508983Y00359844D01*
X00508701Y00359736D01*
X00508505Y00359550D01*
X00508353Y00359426D01*
X00508200Y00359321D01*
X00508045Y00359231D01*
X00507886Y00359157D01*
X00507721Y00359096D01*
X00507548Y00359048D01*
X00507362Y00359012D01*
X00507163Y00358990D01*
X00506890Y00358980D01*
X00506740Y00358912D01*
X00480812D01*
X00480662Y00358980D01*
X00480389Y00358990D01*
X00480190Y00359012D01*
X00480004Y00359048D01*
X00479831Y00359096D01*
X00479666Y00359157D01*
X00479508Y00359231D01*
X00479352Y00359321D01*
X00479199Y00359426D01*
X00479047Y00359550D01*
X00478851Y00359736D01*
X00478569Y00359844D01*
X00478066Y00360347D01*
X00476229Y00361108D01*
X00474239D01*
X00472402Y00360347D01*
X00470995Y00358940D01*
X00470234Y00357103D01*
Y00355113D01*
X00470995Y00353276D01*
X00472402Y00351869D01*
X00474239Y00351108D01*
X00476229D01*
X00478066Y00351869D01*
X00478569Y00352372D01*
X00478851Y00352480D01*
X00479047Y00352666D01*
X00479199Y00352790D01*
X00479352Y00352895D01*
X00479507Y00352985D01*
X00479666Y00353059D01*
X00479831Y00353120D01*
X00480004Y00353168D01*
X00480190Y00353204D01*
X00480389Y00353226D01*
X00480662Y00353236D01*
X00480812Y00353304D01*
X00506740D01*
X00506890Y00353236D01*
X00507163Y00353226D01*
X00507362Y00353204D01*
X00507548Y00353168D01*
X00507721Y00353120D01*
X00507886Y00353059D01*
X00508044Y00352985D01*
X00508200Y00352895D01*
X00508353Y00352790D01*
X00508505Y00352666D01*
X00508701Y00352480D01*
X00508983Y00352372D01*
X00509486Y00351869D01*
X00511323Y00351108D01*
X00513313D01*
X00515150Y00351869D01*
X00515443Y00352162D01*
X00515666Y00352230D01*
X00515882Y00352408D01*
X00516055Y00352533D01*
X00516230Y00352639D01*
X00516405Y00352730D01*
X00516583Y00352805D01*
X00516765Y00352867D01*
X00516954Y00352915D01*
X00517151Y00352950D01*
X00517360Y00352972D01*
X00517634Y00352981D01*
X00517785Y00353050D01*
X00543693D01*
X00543820Y00352985D01*
X00543854Y00352996D01*
X00543885Y00352982D01*
X00544157Y00352971D01*
X00544348Y00352949D01*
X00544522Y00352914D01*
X00544680Y00352867D01*
X00544826Y00352808D01*
X00544964Y00352737D01*
X00545098Y00352653D01*
X00545229Y00352551D01*
X00545360Y00352430D01*
X00545535Y00352240D01*
X00545827Y00352104D01*
X00546570Y00351361D01*
X00548407Y00350600D01*
X00550397D01*
X00552234Y00351361D01*
X00552737Y00351864D01*
X00553019Y00351972D01*
X00553215Y00352158D01*
X00553367Y00352282D01*
X00553520Y00352387D01*
X00553675Y00352477D01*
X00553834Y00352551D01*
X00553999Y00352612D01*
X00554172Y00352660D01*
X00554358Y00352696D01*
X00554557Y00352718D01*
X00554830Y00352728D01*
X00554980Y00352796D01*
X00716643D01*
X00722161Y00347278D01*
X00722094Y00346988D01*
X00721829Y00346275D01*
X00721436Y00345501D01*
X00720911Y00344671D01*
X00720248Y00343789D01*
X00719459Y00342877D01*
X00717407Y00340871D01*
X00716177Y00339820D01*
X00716146Y00339760D01*
X00716084Y00339734D01*
X00716020Y00339579D01*
X00713967Y00337526D01*
X00712124Y00334334D01*
X00711170Y00330773D01*
Y00329126D01*
X00711048Y00328855D01*
X00710948Y00325630D01*
X00710806Y00324256D01*
X00710601Y00322984D01*
X00710338Y00321834D01*
X00710019Y00320806D01*
X00709650Y00319902D01*
X00709237Y00319117D01*
X00708782Y00318448D01*
X00708218Y00317805D01*
X00708188Y00317715D01*
X00703161Y00312688D01*
X00635000D01*
X00633439Y00312378D01*
X00632116Y00311494D01*
X00620686Y00300064D01*
X00619802Y00298741D01*
X00619492Y00297180D01*
X00619492Y00297180D01*
Y00281597D01*
X00590893Y00252998D01*
X00583500D01*
Y00264500D01*
X00578267D01*
X00578262Y00264520D01*
X00578222Y00264761D01*
X00578194Y00265081D01*
X00578183Y00265512D01*
X00578114Y00265667D01*
Y00266700D01*
X00577900Y00267773D01*
X00577293Y00268683D01*
X00567133Y00278843D01*
X00566223Y00279450D01*
X00565150Y00279664D01*
X00469128D01*
X00468978Y00279732D01*
X00468705Y00279742D01*
X00468506Y00279764D01*
X00468320Y00279800D01*
X00468147Y00279848D01*
X00467982Y00279909D01*
X00467824Y00279983D01*
X00467668Y00280073D01*
X00467515Y00280178D01*
X00467363Y00280302D01*
X00467167Y00280488D01*
X00466885Y00280596D01*
X00466382Y00281099D01*
X00464545Y00281860D01*
X00462555D01*
X00460718Y00281099D01*
X00459311Y00279692D01*
X00458550Y00277855D01*
Y00275865D01*
X00459311Y00274028D01*
X00460718Y00272621D01*
X00462555Y00271860D01*
X00464545D01*
X00466382Y00272621D01*
X00466885Y00273124D01*
X00467167Y00273232D01*
X00467363Y00273418D01*
X00467515Y00273542D01*
X00467668Y00273647D01*
X00467823Y00273736D01*
X00467982Y00273811D01*
X00468147Y00273872D01*
X00468320Y00273920D01*
X00468506Y00273955D01*
X00468705Y00273978D01*
X00468978Y00273988D01*
X00469128Y00274056D01*
X00563989D01*
X00572467Y00265578D01*
X00572437Y00265512D01*
X00572426Y00265081D01*
X00572398Y00264761D01*
X00572358Y00264520D01*
X00572353Y00264500D01*
X00565500D01*
Y00252998D01*
X00552869D01*
X00544484Y00261384D01*
X00543161Y00262268D01*
X00541600Y00262578D01*
X00541600Y00262578D01*
X00538105D01*
X00538003Y00262623D01*
X00537093Y00262642D01*
X00536332Y00262695D01*
X00535694Y00262779D01*
X00535188Y00262886D01*
X00534823Y00263004D01*
X00534608Y00263107D01*
X00534587Y00263123D01*
X00534579Y00263185D01*
X00534500Y00263321D01*
Y00264500D01*
X00533194D01*
X00532970Y00264593D01*
X00532864Y00264550D01*
X00532754Y00264579D01*
X00532618Y00264500D01*
X00518381D01*
X00518246Y00264579D01*
X00518136Y00264550D01*
X00518031Y00264593D01*
X00517806Y00264500D01*
X00516500D01*
Y00263321D01*
X00516421Y00263185D01*
X00516413Y00263123D01*
X00516392Y00263107D01*
X00516176Y00263004D01*
X00515812Y00262886D01*
X00515332Y00262784D01*
X00513884Y00262642D01*
X00512997Y00262623D01*
X00512895Y00262578D01*
X00448271D01*
X00448271Y00262578D01*
X00446711Y00262268D01*
X00445387Y00261384D01*
X00444273Y00260270D01*
X00443505D01*
X00441668Y00259509D01*
X00440261Y00258102D01*
X00439500Y00256265D01*
Y00256038D01*
X00430111Y00246648D01*
X00288743D01*
X00288582Y00246809D01*
X00286745Y00247570D01*
X00284755D01*
X00282918Y00246809D01*
X00282757Y00246648D01*
X00262039D01*
X00247304Y00261384D01*
X00245981Y00262268D01*
X00244420Y00262578D01*
X00244420Y00262578D01*
X00238105D01*
X00238003Y00262623D01*
X00237093Y00262642D01*
X00236332Y00262695D01*
X00235694Y00262779D01*
X00235188Y00262886D01*
X00234823Y00263004D01*
X00234608Y00263107D01*
X00234587Y00263123D01*
X00234579Y00263185D01*
X00234500Y00263321D01*
Y00264500D01*
X00233194D01*
X00232969Y00264593D01*
X00232864Y00264550D01*
X00232754Y00264579D01*
X00232619Y00264500D01*
X00218411D01*
X00218297Y00264571D01*
X00218157Y00264539D01*
X00218025Y00264593D01*
X00217802Y00264500D01*
X00216500D01*
Y00263470D01*
X00216381Y00263424D01*
X00216033Y00263333D01*
X00215575Y00263255D01*
X00214998Y00263209D01*
X00212516Y00265691D01*
X00212095Y00266709D01*
X00210829Y00267975D01*
X00209175Y00268660D01*
X00207385D01*
X00206674Y00268365D01*
X00137633D01*
X00137612Y00268379D01*
X00137543Y00268365D01*
X00137469D01*
X00137379Y00268408D01*
X00136528Y00268453D01*
X00135894Y00268565D01*
X00135390Y00268733D01*
X00135001Y00268943D01*
X00134698Y00269191D01*
X00134450Y00269494D01*
X00134240Y00269883D01*
X00134072Y00270387D01*
X00133960Y00271021D01*
X00133915Y00271872D01*
X00133872Y00271962D01*
Y00303903D01*
X00134294Y00304921D01*
Y00306711D01*
X00133872Y00307729D01*
Y00343422D01*
X00134548Y00345053D01*
Y00346843D01*
X00133863Y00348497D01*
X00132597Y00349763D01*
X00130943Y00350448D01*
X00129153D01*
X00127499Y00349763D01*
X00126233Y00348497D01*
X00125548Y00346843D01*
Y00345053D01*
X00125716Y00344648D01*
Y00307729D01*
X00125294Y00306711D01*
Y00304921D01*
X00125716Y00303903D01*
Y00271962D01*
X00125673Y00271872D01*
X00125628Y00271021D01*
X00125516Y00270387D01*
X00125348Y00269883D01*
X00125139Y00269494D01*
X00124890Y00269191D01*
X00124587Y00268943D01*
X00124198Y00268733D01*
X00123694Y00268565D01*
X00123060Y00268453D01*
X00122209Y00268408D01*
X00122119Y00268365D01*
X00122045D01*
X00121976Y00268379D01*
X00121955Y00268365D01*
X00112340D01*
X00112052Y00268653D01*
X00110215Y00269414D01*
X00108225D01*
X00106388Y00268653D01*
X00106227Y00268492D01*
X00082461D01*
X00068162Y00282792D01*
X00066839Y00283676D01*
X00065278Y00283986D01*
X00065278Y00283986D01*
X00063912D01*
X00063812Y00284031D01*
X00062906Y00284055D01*
X00062162Y00284120D01*
X00061547Y00284222D01*
X00061068Y00284350D01*
X00060729Y00284488D01*
X00060526Y00284611D01*
X00060434Y00284696D01*
X00060402Y00284743D01*
X00060384Y00284795D01*
X00060354Y00285079D01*
X00060300Y00285177D01*
Y00288900D01*
X00041300D01*
Y00269900D01*
X00060300D01*
Y00274639D01*
X00060354Y00274737D01*
X00060384Y00275021D01*
X00060402Y00275073D01*
X00060434Y00275120D01*
X00060526Y00275205D01*
X00060729Y00275328D01*
X00061068Y00275466D01*
X00061547Y00275594D01*
X00062162Y00275696D01*
X00062906Y00275761D01*
X00063638Y00275780D01*
X00077888Y00261530D01*
X00077888Y00261530D01*
X00079211Y00260646D01*
X00080772Y00260336D01*
X00106227D01*
X00106388Y00260175D01*
X00108225Y00259414D01*
X00110215D01*
X00112052Y00260175D01*
X00112086Y00260209D01*
X00129455D01*
X00129476Y00260195D01*
X00129545Y00260209D01*
X00130043D01*
X00130112Y00260195D01*
X00130133Y00260209D01*
X00206060D01*
X00206749Y00259923D01*
X00210545Y00256127D01*
X00210545Y00256127D01*
X00211868Y00255243D01*
X00213175Y00254983D01*
X00213390Y00254888D01*
X00214224Y00254868D01*
X00214907Y00254813D01*
X00215473Y00254727D01*
X00215913Y00254620D01*
X00216219Y00254506D01*
X00216391Y00254411D01*
X00216430Y00254379D01*
X00216449Y00254217D01*
X00216500Y00254126D01*
Y00252500D01*
X00232619D01*
X00232755Y00252421D01*
X00232864Y00252450D01*
X00232969Y00252407D01*
X00233194Y00252500D01*
X00234500D01*
Y00253680D01*
X00234579Y00253815D01*
X00234587Y00253877D01*
X00234608Y00253893D01*
X00234823Y00253997D01*
X00235188Y00254114D01*
X00235668Y00254216D01*
X00237116Y00254358D01*
X00238003Y00254377D01*
X00238105Y00254422D01*
X00242731D01*
X00257466Y00239686D01*
X00257466Y00239686D01*
X00258789Y00238802D01*
X00260350Y00238492D01*
X00260350Y00238492D01*
X00282757D01*
X00282918Y00238331D01*
X00284755Y00237570D01*
X00286745D01*
X00288582Y00238331D01*
X00288743Y00238492D01*
X00431800D01*
X00431800Y00238492D01*
X00433361Y00238802D01*
X00434684Y00239686D01*
X00445268Y00250270D01*
X00445495D01*
X00447332Y00251031D01*
X00448739Y00252438D01*
X00449278Y00253739D01*
X00449961Y00254422D01*
X00512895D01*
X00512997Y00254377D01*
X00513907Y00254358D01*
X00514668Y00254305D01*
X00515306Y00254221D01*
X00515812Y00254114D01*
X00516176Y00253997D01*
X00516392Y00253893D01*
X00516413Y00253877D01*
X00516421Y00253815D01*
X00516500Y00253680D01*
Y00252500D01*
X00517806D01*
X00518031Y00252407D01*
X00518136Y00252450D01*
X00518245Y00252421D01*
X00518381Y00252500D01*
X00532618D01*
X00532754Y00252421D01*
X00532864Y00252450D01*
X00532970Y00252407D01*
X00533194Y00252500D01*
X00534500D01*
Y00253680D01*
X00534579Y00253815D01*
X00534587Y00253877D01*
X00534608Y00253893D01*
X00534823Y00253997D01*
X00535188Y00254114D01*
X00535668Y00254216D01*
X00537116Y00254358D01*
X00538003Y00254377D01*
X00538105Y00254422D01*
X00539911D01*
X00548296Y00246036D01*
X00548296Y00246036D01*
X00549510Y00245225D01*
X00549557Y00244767D01*
X00549459Y00244165D01*
X00548645Y00243918D01*
X00545779Y00242386D01*
X00543266Y00240324D01*
X00541204Y00237811D01*
X00539672Y00234945D01*
X00538729Y00231835D01*
X00538662Y00231162D01*
X00538560Y00231033D01*
X00538397Y00230454D01*
X00538055Y00229757D01*
X00537487Y00228849D01*
X00528495Y00218570D01*
X00526174Y00216222D01*
X00526138Y00216134D01*
X00524355Y00213810D01*
X00523196Y00211012D01*
X00522801Y00208010D01*
X00522801Y00208010D01*
Y00200000D01*
X00523196Y00196998D01*
X00524355Y00194200D01*
X00526198Y00191798D01*
X00528600Y00189955D01*
X00531398Y00188796D01*
X00534400Y00188401D01*
X00537402Y00188796D01*
X00540200Y00189955D01*
X00542602Y00191798D01*
X00544445Y00194200D01*
X00545604Y00196998D01*
X00545999Y00200000D01*
Y00203075D01*
X00550963Y00207704D01*
X00553400Y00209714D01*
X00554400Y00209243D01*
Y00190000D01*
X00574400D01*
Y00197703D01*
X00574420Y00197708D01*
X00574661Y00197748D01*
X00574981Y00197776D01*
X00575412Y00197787D01*
X00575567Y00197856D01*
X00602996D01*
X00604069Y00198070D01*
X00604979Y00198677D01*
X00606876Y00200575D01*
X00607031Y00200633D01*
X00607231Y00200819D01*
X00607388Y00200944D01*
X00607544Y00201050D01*
X00607701Y00201138D01*
X00607860Y00201212D01*
X00608025Y00201272D01*
X00608197Y00201318D01*
X00608380Y00201352D01*
X00608577Y00201372D01*
X00608846Y00201379D01*
X00609122Y00201502D01*
X00609833D01*
X00611670Y00202263D01*
X00613077Y00203670D01*
X00613838Y00205507D01*
Y00207497D01*
X00613077Y00209334D01*
X00611670Y00210741D01*
X00610996Y00211020D01*
X00611195Y00212020D01*
X00635630D01*
X00635729Y00211977D01*
X00635762Y00211990D01*
X00635795Y00211977D01*
X00635894Y00212020D01*
X00697982D01*
X00712176Y00197826D01*
X00714689Y00195764D01*
X00717555Y00194232D01*
X00720665Y00193289D01*
X00723900Y00192970D01*
X00727135Y00193289D01*
X00730245Y00194232D01*
X00733111Y00195764D01*
X00735624Y00197826D01*
X00737686Y00200339D01*
X00739218Y00203205D01*
X00740161Y00206315D01*
X00740480Y00209550D01*
X00740161Y00212785D01*
X00739218Y00215895D01*
X00737686Y00218761D01*
X00735624Y00221274D01*
X00716574Y00240324D01*
X00714061Y00242386D01*
X00711195Y00243918D01*
X00708085Y00244861D01*
X00704850Y00245180D01*
X00667144D01*
X00667045Y00245223D01*
X00667032Y00245218D01*
X00667019Y00245224D01*
X00661371Y00245248D01*
X00643304Y00246480D01*
X00643072Y00246918D01*
X00641911Y00249748D01*
X00640920Y00252904D01*
X00640103Y00256385D01*
X00639467Y00260172D01*
X00638728Y00268794D01*
X00638635Y00273579D01*
X00638566Y00273738D01*
Y00288195D01*
X00638607Y00288258D01*
X00638580Y00288388D01*
X00638635Y00288510D01*
X00638643Y00288759D01*
X00638660Y00288929D01*
X00638685Y00289068D01*
X00638714Y00289179D01*
X00638746Y00289263D01*
X00638776Y00289324D01*
X00638805Y00289369D01*
X00638832Y00289403D01*
X00638863Y00289434D01*
X00638974Y00289519D01*
X00639090Y00289724D01*
X00640085Y00290719D01*
X00640770Y00292373D01*
Y00294163D01*
X00640085Y00295817D01*
X00638819Y00297083D01*
X00637165Y00297768D01*
X00635375D01*
X00633721Y00297083D01*
X00632455Y00295817D01*
X00631770Y00294163D01*
Y00292373D01*
X00632455Y00290719D01*
X00632467Y00290707D01*
X00632485Y00290614D01*
X00632579Y00290473D01*
X00632634Y00290374D01*
X00632686Y00290263D01*
X00632733Y00290139D01*
X00632776Y00289998D01*
X00632814Y00289841D01*
X00632841Y00289688D01*
X00632883Y00289244D01*
X00632889Y00289001D01*
X00632958Y00288843D01*
Y00273761D01*
X00632890Y00273613D01*
X00632518Y00264305D01*
X00632061Y00260192D01*
X00631421Y00256385D01*
X00630604Y00252904D01*
X00629613Y00249748D01*
X00628452Y00246918D01*
X00627957Y00245983D01*
X00623622Y00245622D01*
X00610186Y00245249D01*
X00604505Y00245224D01*
X00604492Y00245218D01*
X00604479Y00245223D01*
X00604380Y00245180D01*
X00595813D01*
X00595610Y00246180D01*
X00626454Y00277024D01*
X00626454Y00277024D01*
X00627338Y00278347D01*
X00627648Y00279908D01*
X00627648Y00279908D01*
Y00295491D01*
X00636689Y00304532D01*
X00704850D01*
X00704850Y00304532D01*
X00706411Y00304842D01*
X00707734Y00305726D01*
X00713955Y00311948D01*
X00714045Y00311978D01*
X00714688Y00312542D01*
X00715357Y00312996D01*
X00716142Y00313410D01*
X00717046Y00313779D01*
X00718074Y00314097D01*
X00719224Y00314361D01*
X00720475Y00314563D01*
X00723420Y00314791D01*
X00725061Y00314807D01*
X00725350Y00314930D01*
X00727013D01*
X00730574Y00315884D01*
X00733766Y00317727D01*
X00736373Y00320334D01*
X00738216Y00323526D01*
X00739170Y00327087D01*
Y00330773D01*
X00738216Y00334334D01*
X00736373Y00337526D01*
X00734321Y00339579D01*
X00734256Y00339734D01*
X00734210Y00339753D01*
X00734188Y00339798D01*
X00731824Y00341905D01*
X00730894Y00342861D01*
X00730092Y00343789D01*
X00729429Y00344670D01*
X00728904Y00345501D01*
X00728512Y00346275D01*
X00728246Y00346988D01*
X00728096Y00347638D01*
X00728038Y00348362D01*
X00727891Y00348652D01*
X00727760Y00349307D01*
X00727153Y00350217D01*
X00719787Y00357583D01*
X00718877Y00358190D01*
X00717804Y00358404D01*
X00554980D01*
X00554830Y00358473D01*
X00554557Y00358482D01*
X00554358Y00358504D01*
X00554172Y00358540D01*
X00553999Y00358588D01*
X00553834Y00358649D01*
X00553676Y00358723D01*
X00553520Y00358813D01*
X00553367Y00358918D01*
X00553215Y00359042D01*
X00553019Y00359228D01*
X00552737Y00359336D01*
X00552234Y00359839D01*
X00550397Y00360600D01*
X00548407D01*
X00546570Y00359839D01*
X00546277Y00359546D01*
X00546054Y00359478D01*
X00545838Y00359300D01*
X00545665Y00359175D01*
X00545490Y00359069D01*
X00545315Y00358978D01*
X00545137Y00358903D01*
X00544955Y00358841D01*
X00544766Y00358793D01*
X00544569Y00358758D01*
X00544361Y00358736D01*
X00544086Y00358727D01*
X00543935Y00358658D01*
X00518027D01*
X00517900Y00358723D01*
X00517866Y00358712D01*
X00517835Y00358726D01*
X00517562Y00358737D01*
X00517371Y00358759D01*
X00517198Y00358795D01*
X00517040Y00358842D01*
X00516894Y00358900D01*
X00516756Y00358971D01*
X00516623Y00359055D01*
X00516491Y00359157D01*
X00516359Y00359278D01*
X00516185Y00359468D01*
X00515893Y00359604D01*
X00515150Y00360347D01*
X00513313Y00361108D01*
D02*
G37*
G36*
X00052116Y00365600D02*
X00052050D01*
Y00356850D01*
X00060800D01*
Y00356917D01*
X00060118Y00359460D01*
X00058802Y00361740D01*
X00056940Y00363602D01*
X00054660Y00364919D01*
X00052116Y00365600D01*
D02*
G37*
G36*
X00049550D02*
X00049483D01*
X00046940Y00364919D01*
X00044660Y00363602D01*
X00042798Y00361740D01*
X00041481Y00359460D01*
X00040800Y00356917D01*
Y00356850D01*
X00049550D01*
Y00365600D01*
D02*
G37*
G36*
X00060800Y00354350D02*
X00052050D01*
Y00345600D01*
X00052116D01*
X00054660Y00346282D01*
X00056940Y00347598D01*
X00058802Y00349460D01*
X00060118Y00351740D01*
X00060800Y00354283D01*
Y00354350D01*
D02*
G37*
G36*
X00049550D02*
X00040800D01*
Y00354283D01*
X00041481Y00351740D01*
X00042798Y00349460D01*
X00044660Y00347598D01*
X00046940Y00346282D01*
X00049483Y00345600D01*
X00049550D01*
Y00354350D01*
D02*
G37*
G36*
X00448189Y00342320D02*
X00446399D01*
X00444745Y00341635D01*
X00444322Y00341212D01*
X00444047Y00341110D01*
X00443928Y00341000D01*
X00443861Y00340948D01*
X00443784Y00340900D01*
X00443696Y00340855D01*
X00443592Y00340813D01*
X00443470Y00340775D01*
X00443327Y00340742D01*
X00443163Y00340717D01*
X00442976Y00340700D01*
X00442721Y00340693D01*
X00442567Y00340624D01*
X00172113D01*
X00171959Y00340693D01*
X00171704Y00340700D01*
X00171517Y00340717D01*
X00171353Y00340742D01*
X00171210Y00340775D01*
X00171088Y00340813D01*
X00170984Y00340855D01*
X00170896Y00340900D01*
X00170819Y00340948D01*
X00170751Y00341000D01*
X00170634Y00341110D01*
X00170358Y00341212D01*
X00169935Y00341635D01*
X00168281Y00342320D01*
X00166491D01*
X00164837Y00341635D01*
X00163571Y00340369D01*
X00162886Y00338715D01*
Y00336925D01*
X00163571Y00335271D01*
X00164837Y00334005D01*
X00166491Y00333320D01*
X00168281D01*
X00169935Y00334005D01*
X00170358Y00334428D01*
X00170633Y00334530D01*
X00170751Y00334640D01*
X00170819Y00334692D01*
X00170896Y00334740D01*
X00170984Y00334785D01*
X00171088Y00334827D01*
X00171210Y00334865D01*
X00171353Y00334898D01*
X00171517Y00334923D01*
X00171704Y00334940D01*
X00171830Y00334944D01*
X00172097Y00334612D01*
X00172293Y00334133D01*
X00172317Y00334016D01*
X00168746Y00330445D01*
X00168588Y00330385D01*
X00168403Y00330210D01*
X00168259Y00330089D01*
X00168124Y00329991D01*
X00168001Y00329913D01*
X00167887Y00329854D01*
X00167784Y00329810D01*
X00167690Y00329779D01*
X00167602Y00329759D01*
X00167517Y00329748D01*
X00167356Y00329742D01*
X00167089Y00329620D01*
X00166491D01*
X00164837Y00328935D01*
X00163571Y00327669D01*
X00162886Y00326015D01*
Y00324225D01*
X00163571Y00322571D01*
X00164837Y00321305D01*
X00166491Y00320620D01*
X00168281D01*
X00169935Y00321305D01*
X00171201Y00322571D01*
X00171886Y00324225D01*
Y00324823D01*
X00172008Y00325090D01*
X00172014Y00325251D01*
X00172025Y00325336D01*
X00172045Y00325424D01*
X00172076Y00325518D01*
X00172120Y00325621D01*
X00172179Y00325735D01*
X00172257Y00325858D01*
X00172355Y00325993D01*
X00172476Y00326137D01*
X00172651Y00326322D01*
X00172711Y00326480D01*
X00176421Y00330190D01*
X00434920D01*
Y00329559D01*
X00435605Y00327905D01*
X00436871Y00326639D01*
X00438525Y00325954D01*
X00440315D01*
X00441969Y00326639D01*
X00443235Y00327905D01*
X00443920Y00329559D01*
Y00331349D01*
X00443235Y00333003D01*
X00442309Y00333929D01*
X00442559Y00334877D01*
X00442721Y00334947D01*
X00442976Y00334940D01*
X00443163Y00334923D01*
X00443327Y00334898D01*
X00443470Y00334865D01*
X00443592Y00334827D01*
X00443696Y00334785D01*
X00443784Y00334740D01*
X00443861Y00334692D01*
X00443928Y00334640D01*
X00444047Y00334530D01*
X00444322Y00334428D01*
X00444745Y00334005D01*
X00446399Y00333320D01*
X00448189D01*
X00449843Y00334005D01*
X00451109Y00335271D01*
X00451794Y00336925D01*
Y00338715D01*
X00451109Y00340369D01*
X00449843Y00341635D01*
X00448189Y00342320D01*
D02*
G37*
G36*
X00052051Y00339700D02*
X00049549D01*
X00047133Y00339053D01*
X00044967Y00337802D01*
X00043198Y00336033D01*
X00041947Y00333867D01*
X00041300Y00331451D01*
Y00328949D01*
X00041947Y00326533D01*
X00043198Y00324367D01*
X00044967Y00322598D01*
X00047133Y00321347D01*
X00049549Y00320700D01*
X00052051D01*
X00054467Y00321347D01*
X00056633Y00322598D01*
X00058402Y00324367D01*
X00059653Y00326533D01*
X00060300Y00328949D01*
Y00331451D01*
X00059653Y00333867D01*
X00058402Y00336033D01*
X00056633Y00337802D01*
X00054467Y00339053D01*
X00052051Y00339700D01*
D02*
G37*
G36*
Y00314300D02*
X00049549D01*
X00047133Y00313653D01*
X00044967Y00312402D01*
X00043198Y00310633D01*
X00041947Y00308467D01*
X00041300Y00306051D01*
Y00303549D01*
X00041947Y00301133D01*
X00043198Y00298967D01*
X00044967Y00297198D01*
X00047133Y00295947D01*
X00049549Y00295300D01*
X00052051D01*
X00054467Y00295947D01*
X00056633Y00297198D01*
X00058402Y00298967D01*
X00059653Y00301133D01*
X00060300Y00303549D01*
Y00306051D01*
X00059653Y00308467D01*
X00058402Y00310633D01*
X00056633Y00312402D01*
X00054467Y00313653D01*
X00052051Y00314300D01*
D02*
G37*
G36*
X00584000Y00298000D02*
X00575750D01*
Y00292750D01*
X00584000D01*
Y00298000D01*
D02*
G37*
G36*
X00573250D02*
X00565000D01*
Y00292750D01*
X00573250D01*
Y00298000D01*
D02*
G37*
G36*
X00284000D02*
X00275750D01*
Y00292750D01*
X00284000D01*
Y00298000D01*
D02*
G37*
G36*
X00273250D02*
X00265000D01*
Y00292750D01*
X00273250D01*
Y00298000D01*
D02*
G37*
G36*
X00534500Y00297500D02*
X00516500D01*
Y00294457D01*
X00516480Y00294452D01*
X00516239Y00294412D01*
X00515919Y00294384D01*
X00515488Y00294373D01*
X00515333Y00294304D01*
X00462950D01*
X00461877Y00294090D01*
X00460967Y00293483D01*
X00428789Y00261304D01*
X00284667D01*
X00284512Y00261373D01*
X00284081Y00261384D01*
X00283761Y00261412D01*
X00283520Y00261452D01*
X00283500Y00261457D01*
Y00264500D01*
X00265500D01*
Y00252500D01*
X00283500D01*
Y00255543D01*
X00283520Y00255548D01*
X00283761Y00255588D01*
X00284081Y00255616D01*
X00284512Y00255627D01*
X00284667Y00255696D01*
X00429950D01*
X00431023Y00255910D01*
X00431933Y00256517D01*
X00464111Y00288696D01*
X00515333D01*
X00515488Y00288627D01*
X00515919Y00288616D01*
X00516239Y00288588D01*
X00516480Y00288548D01*
X00516500Y00288543D01*
Y00285500D01*
X00534500D01*
Y00297500D01*
D02*
G37*
G36*
X00234500D02*
X00216500D01*
Y00285500D01*
X00234500D01*
Y00297500D01*
D02*
G37*
G36*
X00584000Y00290250D02*
X00575750D01*
Y00285000D01*
X00584000D01*
Y00290250D01*
D02*
G37*
G36*
X00573250D02*
X00565000D01*
Y00285000D01*
X00573250D01*
Y00290250D01*
D02*
G37*
G36*
X00284000D02*
X00275750D01*
Y00285000D01*
X00284000D01*
Y00290250D01*
D02*
G37*
G36*
X00273250D02*
X00265000D01*
Y00285000D01*
X00273250D01*
Y00290250D01*
D02*
G37*
G36*
X00727079Y00274850D02*
X00726420D01*
Y00261600D01*
X00739670D01*
Y00262259D01*
X00738682Y00265947D01*
X00736773Y00269253D01*
X00734073Y00271953D01*
X00730767Y00273862D01*
X00727079Y00274850D01*
D02*
G37*
G36*
X00723920D02*
X00723261D01*
X00719573Y00273862D01*
X00716267Y00271953D01*
X00713567Y00269253D01*
X00711658Y00265947D01*
X00710670Y00262259D01*
Y00261600D01*
X00723920D01*
Y00274850D01*
D02*
G37*
G36*
X00739670Y00259100D02*
X00726420D01*
Y00245850D01*
X00727079D01*
X00730767Y00246838D01*
X00734073Y00248747D01*
X00736773Y00251447D01*
X00738682Y00254753D01*
X00739670Y00258441D01*
Y00259100D01*
D02*
G37*
G36*
X00723920D02*
X00710670D01*
Y00258441D01*
X00711658Y00254753D01*
X00713567Y00251447D01*
X00716267Y00248747D01*
X00719573Y00246838D01*
X00723261Y00245850D01*
X00723920D01*
Y00259100D01*
D02*
G37*
G36*
X00525869Y00236600D02*
X00524131D01*
X00522453Y00236150D01*
X00520947Y00235281D01*
X00519719Y00234053D01*
X00518850Y00232547D01*
X00518400Y00230869D01*
Y00229131D01*
X00518850Y00227453D01*
X00519719Y00225947D01*
X00520947Y00224719D01*
X00522453Y00223850D01*
X00524131Y00223400D01*
X00525869D01*
X00527547Y00223850D01*
X00529053Y00224719D01*
X00530281Y00225947D01*
X00531150Y00227453D01*
X00531600Y00229131D01*
Y00230869D01*
X00531150Y00232547D01*
X00530281Y00234053D01*
X00529053Y00235281D01*
X00527547Y00236150D01*
X00525869Y00236600D01*
D02*
G37*
G36*
X00176777Y00257770D02*
X00173223D01*
X00169789Y00256850D01*
X00166711Y00255073D01*
X00164197Y00252559D01*
X00162420Y00249481D01*
X00161500Y00246047D01*
Y00242493D01*
X00162420Y00239059D01*
X00164197Y00235981D01*
X00166711Y00233467D01*
X00167112Y00233236D01*
X00166853Y00232270D01*
X00165000D01*
Y00213270D01*
X00185000D01*
Y00232270D01*
X00183147D01*
X00182888Y00233236D01*
X00183289Y00233467D01*
X00185803Y00235981D01*
X00187580Y00239059D01*
X00188500Y00242493D01*
Y00246047D01*
X00187580Y00249481D01*
X00185803Y00252559D01*
X00183289Y00255073D01*
X00180211Y00256850D01*
X00176777Y00257770D01*
D02*
G37*
G36*
X00176317Y00202770D02*
X00173683D01*
X00171140Y00202089D01*
X00168860Y00200772D01*
X00166998Y00198910D01*
X00165681Y00196630D01*
X00165000Y00194086D01*
Y00191453D01*
X00165681Y00188910D01*
X00166998Y00186630D01*
X00168860Y00184768D01*
X00171140Y00183451D01*
X00173683Y00182770D01*
X00176317D01*
X00178860Y00183451D01*
X00181140Y00184768D01*
X00183002Y00186630D01*
X00184319Y00188910D01*
X00185000Y00191453D01*
Y00194086D01*
X00184319Y00196630D01*
X00183002Y00198910D01*
X00181140Y00200772D01*
X00178860Y00202089D01*
X00176317Y00202770D01*
D02*
G37*
G36*
X00351777Y00226500D02*
X00348223D01*
X00344789Y00225580D01*
X00341711Y00223803D01*
X00339197Y00221289D01*
X00337420Y00218211D01*
X00336500Y00214777D01*
Y00211223D01*
X00337420Y00207789D01*
X00339197Y00204711D01*
X00341711Y00202197D01*
X00342112Y00201966D01*
X00341853Y00201000D01*
X00340000D01*
Y00182000D01*
X00360000D01*
Y00201000D01*
X00358147D01*
X00357888Y00201966D01*
X00358289Y00202197D01*
X00360803Y00204711D01*
X00362580Y00207789D01*
X00363500Y00211223D01*
Y00214777D01*
X00362580Y00218211D01*
X00360803Y00221289D01*
X00358289Y00223803D01*
X00355211Y00225580D01*
X00351777Y00226500D01*
D02*
G37*
G36*
X00607039Y00180006D02*
X00605049D01*
X00603212Y00179245D01*
X00601805Y00177838D01*
X00601755Y00177717D01*
X00601657Y00177650D01*
X00601534Y00177460D01*
X00601455Y00177362D01*
X00601377Y00177285D01*
X00601298Y00177223D01*
X00601212Y00177170D01*
X00601112Y00177124D01*
X00600993Y00177083D01*
X00600847Y00177050D01*
X00600672Y00177028D01*
X00600401Y00177017D01*
X00600252Y00176949D01*
X00600130D01*
X00600036Y00176961D01*
X00600020Y00176949D01*
X00599830D01*
X00598757Y00176735D01*
X00597847Y00176128D01*
X00594524Y00172804D01*
X00578164D01*
X00578038Y00172868D01*
X00577570Y00172906D01*
X00577160Y00172999D01*
X00576674Y00173174D01*
X00576118Y00173439D01*
X00575499Y00173800D01*
X00574822Y00174259D01*
X00574107Y00174807D01*
X00572483Y00176243D01*
X00571612Y00177105D01*
X00571317Y00177225D01*
X00570540Y00178002D01*
X00568260Y00179319D01*
X00565717Y00180000D01*
X00563083D01*
X00560540Y00179319D01*
X00558260Y00178002D01*
X00556398Y00176140D01*
X00555081Y00173860D01*
X00554400Y00171317D01*
Y00168683D01*
X00555081Y00166140D01*
X00556398Y00163860D01*
X00558260Y00161998D01*
X00560540Y00160681D01*
X00563083Y00160000D01*
X00565717D01*
X00568260Y00160681D01*
X00570540Y00161998D01*
X00571318Y00162775D01*
X00571612Y00162895D01*
X00572483Y00163757D01*
X00574107Y00165193D01*
X00574822Y00165741D01*
X00575499Y00166200D01*
X00576118Y00166561D01*
X00576674Y00166826D01*
X00577160Y00167001D01*
X00577570Y00167094D01*
X00578038Y00167132D01*
X00578164Y00167196D01*
X00595685D01*
X00596758Y00167410D01*
X00597668Y00168017D01*
X00600980Y00171329D01*
X00601108Y00171272D01*
X00601388Y00171264D01*
X00601618Y00171245D01*
X00601844Y00171214D01*
X00602067Y00171170D01*
X00602288Y00171114D01*
X00602507Y00171044D01*
X00602705Y00170970D01*
X00603180Y00170744D01*
X00603415Y00170609D01*
X00603676Y00170575D01*
X00605049Y00170006D01*
X00607039D01*
X00608876Y00170767D01*
X00610283Y00172174D01*
X00611044Y00174011D01*
Y00176001D01*
X00610283Y00177838D01*
X00608876Y00179245D01*
X00607039Y00180006D01*
D02*
G37*
G36*
X00535717Y00180000D02*
X00533083D01*
X00530540Y00179319D01*
X00528260Y00178002D01*
X00526398Y00176140D01*
X00525081Y00173860D01*
X00524400Y00171317D01*
Y00168683D01*
X00525081Y00166140D01*
X00526398Y00163860D01*
X00528260Y00161998D01*
X00530540Y00160681D01*
X00533083Y00160000D01*
X00535717D01*
X00538260Y00160681D01*
X00540540Y00161998D01*
X00542402Y00163860D01*
X00543718Y00166140D01*
X00544400Y00168683D01*
Y00171317D01*
X00543718Y00173860D01*
X00542402Y00176140D01*
X00540540Y00178002D01*
X00538260Y00179319D01*
X00535717Y00180000D01*
D02*
G37*
G36*
X00176317Y00172770D02*
X00173683D01*
X00171140Y00172089D01*
X00168860Y00170772D01*
X00166998Y00168910D01*
X00165681Y00166630D01*
X00165000Y00164086D01*
Y00161453D01*
X00165681Y00158910D01*
X00166998Y00156630D01*
X00168860Y00154768D01*
X00171140Y00153451D01*
X00173683Y00152770D01*
X00176317D01*
X00178860Y00153451D01*
X00181140Y00154768D01*
X00183002Y00156630D01*
X00184319Y00158910D01*
X00185000Y00161453D01*
Y00164086D01*
X00184319Y00166630D01*
X00183002Y00168910D01*
X00181140Y00170772D01*
X00178860Y00172089D01*
X00176317Y00172770D01*
D02*
G37*
G36*
X00351316Y00171500D02*
X00348684D01*
X00346140Y00170819D01*
X00343860Y00169502D01*
X00341998Y00167640D01*
X00340681Y00165360D01*
X00340000Y00162817D01*
Y00160183D01*
X00340681Y00157640D01*
X00341998Y00155360D01*
X00343860Y00153498D01*
X00346140Y00152182D01*
X00348684Y00151500D01*
X00351316D01*
X00353860Y00152182D01*
X00356140Y00153498D01*
X00358002Y00155360D01*
X00359319Y00157640D01*
X00360000Y00160183D01*
Y00162817D01*
X00359319Y00165360D01*
X00358002Y00167640D01*
X00356140Y00169502D01*
X00353860Y00170819D01*
X00351316Y00171500D01*
D02*
G37*
G36*
X00535717Y00150000D02*
X00533083D01*
X00530540Y00149319D01*
X00528260Y00148002D01*
X00526398Y00146140D01*
X00525081Y00143860D01*
X00524400Y00141316D01*
Y00138684D01*
X00525081Y00136140D01*
X00526398Y00133860D01*
X00528260Y00131998D01*
X00530540Y00130681D01*
X00533083Y00130000D01*
X00535717D01*
X00538260Y00130681D01*
X00540540Y00131998D01*
X00542402Y00133860D01*
X00543718Y00136140D01*
X00544400Y00138684D01*
Y00141316D01*
X00543718Y00143860D01*
X00542402Y00146140D01*
X00540540Y00148002D01*
X00538260Y00149319D01*
X00535717Y00150000D01*
D02*
G37*
G36*
X00565717D02*
X00563083D01*
X00560540Y00149319D01*
X00558260Y00148002D01*
X00556398Y00146140D01*
X00555081Y00143860D01*
X00554400Y00141316D01*
Y00138684D01*
X00555081Y00136140D01*
X00556398Y00133860D01*
X00558260Y00131998D01*
X00560540Y00130681D01*
X00563083Y00130000D01*
X00564183D01*
X00564475Y00129877D01*
X00565701Y00129870D01*
X00567865Y00129737D01*
X00568758Y00129619D01*
X00569561Y00129465D01*
X00570255Y00129282D01*
X00570835Y00129077D01*
X00571302Y00128856D01*
X00571658Y00128632D01*
X00572015Y00128328D01*
X00572150Y00128285D01*
X00572877Y00127557D01*
X00573787Y00126950D01*
X00574860Y00126736D01*
X00645932D01*
X00646082Y00126667D01*
X00646355Y00126658D01*
X00646554Y00126636D01*
X00646740Y00126600D01*
X00646913Y00126552D01*
X00647078Y00126491D01*
X00647236Y00126417D01*
X00647392Y00126327D01*
X00647545Y00126222D01*
X00647697Y00126098D01*
X00647893Y00125912D01*
X00648175Y00125804D01*
X00648678Y00125301D01*
X00650515Y00124540D01*
X00652505D01*
X00654342Y00125301D01*
X00655749Y00126708D01*
X00656510Y00128545D01*
Y00130535D01*
X00655749Y00132372D01*
X00654342Y00133779D01*
X00652505Y00134540D01*
X00650515D01*
X00648678Y00133779D01*
X00648175Y00133276D01*
X00647893Y00133168D01*
X00647697Y00132982D01*
X00647545Y00132858D01*
X00647392Y00132753D01*
X00647236Y00132663D01*
X00647078Y00132589D01*
X00646913Y00132528D01*
X00646740Y00132480D01*
X00646554Y00132444D01*
X00646355Y00132422D01*
X00646082Y00132413D01*
X00645932Y00132344D01*
X00576085D01*
X00576072Y00132385D01*
X00575768Y00132742D01*
X00575544Y00133098D01*
X00575323Y00133565D01*
X00575118Y00134145D01*
X00574935Y00134839D01*
X00574781Y00135642D01*
X00574663Y00136535D01*
X00574530Y00138699D01*
X00574523Y00139925D01*
X00574400Y00140217D01*
Y00141316D01*
X00573718Y00143860D01*
X00572402Y00146140D01*
X00570540Y00148002D01*
X00568260Y00149319D01*
X00565717Y00150000D01*
D02*
G37*
G36*
X00176317Y00142770D02*
X00173683D01*
X00171140Y00142088D01*
X00168860Y00140772D01*
X00166998Y00138910D01*
X00165681Y00136630D01*
X00165000Y00134087D01*
Y00131454D01*
X00165681Y00128910D01*
X00166998Y00126630D01*
X00168860Y00124768D01*
X00171140Y00123451D01*
X00173683Y00122770D01*
X00176317D01*
X00178860Y00123451D01*
X00181140Y00124768D01*
X00183002Y00126630D01*
X00184319Y00128910D01*
X00185000Y00131454D01*
Y00134087D01*
X00184319Y00136630D01*
X00183002Y00138910D01*
X00181140Y00140772D01*
X00178860Y00142088D01*
X00176317Y00142770D01*
D02*
G37*
G36*
X00351316Y00141500D02*
X00348684D01*
X00346140Y00140819D01*
X00343860Y00139502D01*
X00341998Y00137640D01*
X00340681Y00135360D01*
X00340000Y00132816D01*
Y00130183D01*
X00340681Y00127640D01*
X00341998Y00125360D01*
X00343860Y00123498D01*
X00346140Y00122182D01*
X00348684Y00121500D01*
X00351316D01*
X00353860Y00122182D01*
X00356140Y00123498D01*
X00358002Y00125360D01*
X00359319Y00127640D01*
X00360000Y00130183D01*
Y00132816D01*
X00359319Y00135360D01*
X00358002Y00137640D01*
X00356140Y00139502D01*
X00353860Y00140819D01*
X00351316Y00141500D01*
D02*
G37*
G36*
X00565717Y00120000D02*
X00563083D01*
X00560540Y00119319D01*
X00558260Y00118002D01*
X00556398Y00116140D01*
X00555081Y00113860D01*
X00554400Y00111316D01*
Y00108684D01*
X00555081Y00106140D01*
X00556398Y00103860D01*
X00558260Y00101998D01*
X00560540Y00100681D01*
X00563083Y00100000D01*
X00565717D01*
X00568260Y00100681D01*
X00570540Y00101998D01*
X00570745Y00102203D01*
X00570916Y00102253D01*
X00572867Y00103821D01*
X00574560Y00105005D01*
X00575285Y00105443D01*
X00575953Y00105795D01*
X00576543Y00106055D01*
X00577045Y00106226D01*
X00577449Y00106316D01*
X00577886Y00106352D01*
X00578011Y00106416D01*
X00582930D01*
X00584003Y00106630D01*
X00584913Y00107237D01*
X00588155Y00110480D01*
X00600974D01*
X00601124Y00110412D01*
X00601397Y00110402D01*
X00601596Y00110379D01*
X00601782Y00110344D01*
X00601955Y00110296D01*
X00602120Y00110235D01*
X00602278Y00110161D01*
X00602434Y00110071D01*
X00602587Y00109966D01*
X00602739Y00109842D01*
X00602935Y00109656D01*
X00603217Y00109548D01*
X00603720Y00109045D01*
X00605557Y00108284D01*
X00607547D01*
X00609384Y00109045D01*
X00610791Y00110452D01*
X00611552Y00112289D01*
Y00114279D01*
X00610791Y00116116D01*
X00609384Y00117523D01*
X00607547Y00118284D01*
X00605557D01*
X00603720Y00117523D01*
X00603217Y00117020D01*
X00602935Y00116912D01*
X00602739Y00116726D01*
X00602587Y00116602D01*
X00602434Y00116497D01*
X00602279Y00116407D01*
X00602120Y00116333D01*
X00601955Y00116272D01*
X00601782Y00116224D01*
X00601596Y00116188D01*
X00601397Y00116166D01*
X00601124Y00116157D01*
X00600974Y00116088D01*
X00586994D01*
X00585921Y00115874D01*
X00585011Y00115267D01*
X00581769Y00112024D01*
X00578256D01*
X00578138Y00112087D01*
X00578127Y00112083D01*
X00578117Y00112088D01*
X00577626Y00112128D01*
X00577217Y00112223D01*
X00576752Y00112398D01*
X00576233Y00112664D01*
X00575664Y00113027D01*
X00575051Y00113493D01*
X00574415Y00114048D01*
X00572983Y00115528D01*
X00572230Y00116417D01*
X00572014Y00116528D01*
X00570540Y00118002D01*
X00568260Y00119319D01*
X00565717Y00120000D01*
D02*
G37*
G36*
X00176382Y00113270D02*
X00176250D01*
Y00104020D01*
X00185500D01*
Y00104152D01*
X00184784Y00106823D01*
X00183402Y00109217D01*
X00181447Y00111172D01*
X00179053Y00112554D01*
X00176382Y00113270D01*
D02*
G37*
G36*
X00173750D02*
X00173618D01*
X00170947Y00112554D01*
X00168553Y00111172D01*
X00166598Y00109217D01*
X00165215Y00106823D01*
X00164500Y00104152D01*
Y00104020D01*
X00173750D01*
Y00113270D01*
D02*
G37*
G36*
X00535717Y00120000D02*
X00533083D01*
X00530540Y00119319D01*
X00528260Y00118002D01*
X00526398Y00116140D01*
X00525081Y00113860D01*
X00524400Y00111316D01*
Y00108684D01*
X00525081Y00106140D01*
X00526398Y00103860D01*
X00528260Y00101998D01*
X00530540Y00100681D01*
X00533083Y00100000D01*
X00535717D01*
X00538260Y00100681D01*
X00540540Y00101998D01*
X00542402Y00103860D01*
X00543718Y00106140D01*
X00544400Y00108684D01*
Y00111316D01*
X00543718Y00113860D01*
X00542402Y00116140D01*
X00540540Y00118002D01*
X00538260Y00119319D01*
X00535717Y00120000D01*
D02*
G37*
G36*
X00185500Y00101520D02*
X00176250D01*
Y00092270D01*
X00176382D01*
X00179053Y00092986D01*
X00181447Y00094368D01*
X00183402Y00096323D01*
X00184784Y00098717D01*
X00185500Y00101388D01*
Y00101520D01*
D02*
G37*
G36*
X00173750D02*
X00164500D01*
Y00101388D01*
X00165215Y00098717D01*
X00166598Y00096323D01*
X00168553Y00094368D01*
X00170947Y00092986D01*
X00173618Y00092270D01*
X00173750D01*
Y00101520D01*
D02*
G37*
G36*
X00351316Y00111500D02*
X00348684D01*
X00346140Y00110819D01*
X00343860Y00109502D01*
X00341998Y00107640D01*
X00340681Y00105360D01*
X00340000Y00102816D01*
Y00100183D01*
X00340681Y00097640D01*
X00341998Y00095360D01*
X00343860Y00093498D01*
X00346140Y00092182D01*
X00348684Y00091500D01*
X00351316D01*
X00353860Y00092182D01*
X00356140Y00093498D01*
X00358002Y00095360D01*
X00359319Y00097640D01*
X00360000Y00100183D01*
Y00102816D01*
X00359319Y00105360D01*
X00358002Y00107640D01*
X00356140Y00109502D01*
X00353860Y00110819D01*
X00351316Y00111500D01*
D02*
G37*
G36*
X00565782Y00090500D02*
X00565650D01*
Y00081250D01*
X00574900D01*
Y00081382D01*
X00574184Y00084053D01*
X00572802Y00086447D01*
X00570847Y00088402D01*
X00568453Y00089784D01*
X00565782Y00090500D01*
D02*
G37*
G36*
X00563150D02*
X00563018D01*
X00560347Y00089784D01*
X00557953Y00088402D01*
X00555998Y00086447D01*
X00554616Y00084053D01*
X00553900Y00081382D01*
Y00081250D01*
X00563150D01*
Y00090500D01*
D02*
G37*
G36*
X00445495Y00119300D02*
X00443505D01*
X00441668Y00118539D01*
X00440261Y00117132D01*
X00439500Y00115295D01*
Y00113305D01*
X00440261Y00111468D01*
X00441668Y00110061D01*
X00443505Y00109300D01*
X00443732D01*
X00473366Y00079666D01*
X00474689Y00078782D01*
X00476250Y00078472D01*
X00476250Y00078472D01*
X00503737D01*
X00503898Y00078311D01*
X00505735Y00077550D01*
X00507725D01*
X00509562Y00078311D01*
X00510969Y00079718D01*
X00511730Y00081555D01*
Y00083545D01*
X00510969Y00085382D01*
X00509562Y00086789D01*
X00507725Y00087550D01*
X00505735D01*
X00503898Y00086789D01*
X00503737Y00086628D01*
X00477939D01*
X00449500Y00115068D01*
Y00115295D01*
X00448739Y00117132D01*
X00447332Y00118539D01*
X00445495Y00119300D01*
D02*
G37*
G36*
X00351250Y00081488D02*
Y00072750D01*
X00360422D01*
X00360243Y00074110D01*
X00359235Y00076543D01*
X00357632Y00078632D01*
X00355543Y00080235D01*
X00353111Y00081243D01*
X00351250Y00081488D01*
D02*
G37*
G36*
X00348750D02*
X00346889Y00081243D01*
X00344457Y00080235D01*
X00342368Y00078632D01*
X00340765Y00076543D01*
X00339757Y00074110D01*
X00339578Y00072750D01*
X00348750D01*
Y00081488D01*
D02*
G37*
G36*
X00535717Y00090000D02*
X00533083D01*
X00530540Y00089319D01*
X00528260Y00088002D01*
X00526398Y00086140D01*
X00525081Y00083860D01*
X00524400Y00081317D01*
Y00078684D01*
X00525081Y00076140D01*
X00526398Y00073860D01*
X00528260Y00071998D01*
X00530540Y00070682D01*
X00533083Y00070000D01*
X00535717D01*
X00538260Y00070682D01*
X00540540Y00071998D01*
X00542402Y00073860D01*
X00543718Y00076140D01*
X00544400Y00078684D01*
Y00081317D01*
X00543718Y00083860D01*
X00542402Y00086140D01*
X00540540Y00088002D01*
X00538260Y00089319D01*
X00535717Y00090000D01*
D02*
G37*
G36*
X00574900Y00078750D02*
X00565650D01*
Y00069500D01*
X00565782D01*
X00568453Y00070216D01*
X00570847Y00071598D01*
X00572802Y00073553D01*
X00574184Y00075947D01*
X00574900Y00078618D01*
Y00078750D01*
D02*
G37*
G36*
X00563150D02*
X00553900D01*
Y00078618D01*
X00554616Y00075947D01*
X00555998Y00073553D01*
X00557953Y00071598D01*
X00560347Y00070216D01*
X00563018Y00069500D01*
X00563150D01*
Y00078750D01*
D02*
G37*
G36*
X00752167Y00072000D02*
X00751250D01*
Y00051250D01*
X00772000D01*
Y00052167D01*
X00771154Y00056417D01*
X00769496Y00060421D01*
X00767088Y00064024D01*
X00764024Y00067088D01*
X00760421Y00069496D01*
X00756417Y00071154D01*
X00752167Y00072000D01*
D02*
G37*
G36*
X00748750D02*
X00747833D01*
X00743583Y00071154D01*
X00739579Y00069496D01*
X00735976Y00067088D01*
X00732912Y00064024D01*
X00730504Y00060421D01*
X00728846Y00056417D01*
X00728000Y00052167D01*
Y00051250D01*
X00748750D01*
Y00072000D01*
D02*
G37*
G36*
X00052167D02*
X00051250D01*
Y00051250D01*
X00072000D01*
Y00052167D01*
X00071154Y00056417D01*
X00069496Y00060421D01*
X00067088Y00064024D01*
X00064024Y00067088D01*
X00060421Y00069496D01*
X00056417Y00071154D01*
X00052167Y00072000D01*
D02*
G37*
G36*
X00048750D02*
X00047833D01*
X00043583Y00071154D01*
X00039579Y00069496D01*
X00035976Y00067088D01*
X00032912Y00064024D01*
X00030504Y00060421D01*
X00028845Y00056417D01*
X00028000Y00052167D01*
Y00051250D01*
X00048750D01*
Y00072000D01*
D02*
G37*
G36*
X00525869Y00056600D02*
X00524131D01*
X00522453Y00056150D01*
X00520947Y00055281D01*
X00519719Y00054053D01*
X00518850Y00052547D01*
X00518400Y00050869D01*
Y00049131D01*
X00518850Y00047453D01*
X00519719Y00045947D01*
X00520947Y00044719D01*
X00522453Y00043850D01*
X00524131Y00043400D01*
X00525869D01*
X00527547Y00043850D01*
X00529053Y00044719D01*
X00530281Y00045947D01*
X00531150Y00047453D01*
X00531600Y00049131D01*
Y00050869D01*
X00531150Y00052547D01*
X00530281Y00054053D01*
X00529053Y00055281D01*
X00527547Y00056150D01*
X00525869Y00056600D01*
D02*
G37*
G36*
X00176317Y00082770D02*
X00173683D01*
X00171140Y00082088D01*
X00168860Y00080772D01*
X00166998Y00078910D01*
X00165681Y00076630D01*
X00165000Y00074086D01*
Y00071453D01*
X00165681Y00068910D01*
X00166998Y00066630D01*
X00168860Y00064768D01*
X00169119Y00064618D01*
Y00063463D01*
X00166711Y00062073D01*
X00164197Y00059559D01*
X00162420Y00056481D01*
X00161500Y00053047D01*
Y00049493D01*
X00162420Y00046059D01*
X00164197Y00042981D01*
X00166711Y00040467D01*
X00169789Y00038690D01*
X00173223Y00037770D01*
X00176777D01*
X00180211Y00038690D01*
X00183289Y00040467D01*
X00185803Y00042981D01*
X00187580Y00046059D01*
X00188500Y00049493D01*
Y00053047D01*
X00187580Y00056481D01*
X00185803Y00059559D01*
X00183289Y00062073D01*
X00180880Y00063463D01*
Y00064618D01*
X00181140Y00064768D01*
X00183002Y00066630D01*
X00184319Y00068910D01*
X00185000Y00071453D01*
Y00074086D01*
X00184319Y00076630D01*
X00183002Y00078910D01*
X00181140Y00080772D01*
X00178860Y00082088D01*
X00176317Y00082770D01*
D02*
G37*
G36*
X00360422Y00070250D02*
X00350000D01*
X00339578D01*
X00339757Y00068889D01*
X00340765Y00066457D01*
X00342368Y00064368D01*
X00343879Y00063209D01*
X00343800Y00062009D01*
X00341711Y00060803D01*
X00339197Y00058289D01*
X00337420Y00055211D01*
X00336500Y00051777D01*
Y00048223D01*
X00337420Y00044789D01*
X00339197Y00041711D01*
X00341711Y00039197D01*
X00344789Y00037420D01*
X00348223Y00036500D01*
X00351777D01*
X00355211Y00037420D01*
X00358289Y00039197D01*
X00360803Y00041711D01*
X00362580Y00044789D01*
X00363500Y00048223D01*
Y00051777D01*
X00362580Y00055211D01*
X00360803Y00058289D01*
X00358289Y00060803D01*
X00356200Y00062009D01*
X00356122Y00063209D01*
X00357632Y00064368D01*
X00359235Y00066457D01*
X00360243Y00068889D01*
X00360422Y00070250D01*
D02*
G37*
G36*
X00772000Y00048750D02*
X00751250D01*
Y00028000D01*
X00752167D01*
X00756417Y00028846D01*
X00760421Y00030504D01*
X00764024Y00032912D01*
X00767088Y00035976D01*
X00769496Y00039579D01*
X00771154Y00043583D01*
X00772000Y00047833D01*
Y00048750D01*
D02*
G37*
G36*
X00748750D02*
X00728000D01*
Y00047833D01*
X00728846Y00043583D01*
X00730504Y00039579D01*
X00732912Y00035976D01*
X00735976Y00032912D01*
X00739579Y00030504D01*
X00743583Y00028846D01*
X00747833Y00028000D01*
X00748750D01*
Y00048750D01*
D02*
G37*
G36*
X00072000D02*
X00051250D01*
Y00028000D01*
X00052167D01*
X00056417Y00028846D01*
X00060421Y00030504D01*
X00064024Y00032912D01*
X00067088Y00035976D01*
X00069496Y00039579D01*
X00071154Y00043583D01*
X00072000Y00047833D01*
Y00048750D01*
D02*
G37*
G36*
X00048750D02*
X00028000D01*
Y00047833D01*
X00028845Y00043583D01*
X00030504Y00039579D01*
X00032912Y00035976D01*
X00035976Y00032912D01*
X00039579Y00030504D01*
X00043583Y00028846D01*
X00047833Y00028000D01*
X00048750D01*
Y00048750D01*
D02*
G37*
%LPD*%
G36*
X00314732Y00569092D02*
X00314494Y00568848D01*
X00313944Y00568207D01*
X00313814Y00568023D01*
X00313711Y00567854D01*
X00313636Y00567701D01*
X00313588Y00567562D01*
X00313566Y00567439D01*
X00313572Y00567330D01*
X00311352Y00569955D01*
X00311461Y00569930D01*
X00311582Y00569930D01*
X00311714Y00569956D01*
X00311858Y00570008D01*
X00312013Y00570086D01*
X00312180Y00570189D01*
X00312359Y00570318D01*
X00312549Y00570473D01*
X00312965Y00570860D01*
X00314732Y00569092D01*
D02*
G37*
G36*
X00415331Y00567526D02*
X00415090Y00567754D01*
X00414839Y00567958D01*
X00414578Y00568138D01*
X00414307Y00568294D01*
X00414025Y00568426D01*
X00413733Y00568534D01*
X00413430Y00568618D01*
X00413117Y00568678D01*
X00412794Y00568714D01*
X00412461Y00568726D01*
Y00571226D01*
X00412794Y00571238D01*
X00413117Y00571274D01*
X00413430Y00571334D01*
X00413733Y00571418D01*
X00414025Y00571526D01*
X00414307Y00571658D01*
X00414578Y00571814D01*
X00414839Y00571994D01*
X00415090Y00572198D01*
X00415331Y00572426D01*
Y00567526D01*
D02*
G37*
G36*
X00489498Y00560668D02*
X00489258Y00560896D01*
X00489007Y00561100D01*
X00488746Y00561280D01*
X00488475Y00561436D01*
X00488193Y00561568D01*
X00487901Y00561676D01*
X00487598Y00561760D01*
X00487285Y00561820D01*
X00486962Y00561856D01*
X00486629Y00561868D01*
Y00564368D01*
X00486962Y00564380D01*
X00487285Y00564416D01*
X00487598Y00564476D01*
X00487901Y00564560D01*
X00488193Y00564668D01*
X00488475Y00564800D01*
X00488746Y00564956D01*
X00489007Y00565136D01*
X00489258Y00565340D01*
X00489498Y00565568D01*
Y00560668D01*
D02*
G37*
G36*
X00334880Y00557903D02*
X00334653Y00557658D01*
X00334450Y00557404D01*
X00334271Y00557141D01*
X00334117Y00556867D01*
X00333987Y00556585D01*
X00333881Y00556292D01*
X00333799Y00555990D01*
X00333742Y00555678D01*
X00333709Y00555356D01*
X00333700Y00555025D01*
X00330235Y00558490D01*
X00330566Y00558499D01*
X00330888Y00558532D01*
X00331200Y00558589D01*
X00331502Y00558671D01*
X00331795Y00558777D01*
X00332077Y00558907D01*
X00332351Y00559061D01*
X00332614Y00559240D01*
X00332868Y00559443D01*
X00333113Y00559670D01*
X00334880Y00557903D01*
D02*
G37*
G36*
X00482640Y00553302D02*
X00482400Y00553530D01*
X00482149Y00553734D01*
X00481888Y00553914D01*
X00481617Y00554070D01*
X00481335Y00554202D01*
X00481043Y00554310D01*
X00480740Y00554394D01*
X00480428Y00554454D01*
X00480104Y00554490D01*
X00479771Y00554502D01*
Y00557002D01*
X00480104Y00557014D01*
X00480428Y00557050D01*
X00480740Y00557110D01*
X00481043Y00557194D01*
X00481335Y00557302D01*
X00481617Y00557434D01*
X00481888Y00557590D01*
X00482149Y00557770D01*
X00482400Y00557974D01*
X00482640Y00558202D01*
Y00553302D01*
D02*
G37*
G36*
X00476293Y00546477D02*
X00476083Y00546723D01*
X00475858Y00546943D01*
X00475619Y00547137D01*
X00475366Y00547305D01*
X00475099Y00547448D01*
X00474818Y00547564D01*
X00474523Y00547654D01*
X00474214Y00547719D01*
X00473891Y00547758D01*
X00473554Y00547771D01*
X00473847Y00550271D01*
X00474176Y00550282D01*
X00474499Y00550314D01*
X00474814Y00550368D01*
X00475122Y00550443D01*
X00475424Y00550540D01*
X00475718Y00550659D01*
X00476005Y00550799D01*
X00476286Y00550960D01*
X00476559Y00551143D01*
X00476825Y00551348D01*
X00476293Y00546477D01*
D02*
G37*
G36*
X00354739Y00551143D02*
X00355013Y00550960D01*
X00355293Y00550798D01*
X00355580Y00550658D01*
X00355875Y00550540D01*
X00356176Y00550443D01*
X00356484Y00550368D01*
X00356800Y00550314D01*
X00357122Y00550282D01*
X00357452Y00550271D01*
X00357745Y00547771D01*
X00357408Y00547758D01*
X00357085Y00547719D01*
X00356776Y00547654D01*
X00356481Y00547564D01*
X00356200Y00547447D01*
X00355933Y00547305D01*
X00355680Y00547137D01*
X00355442Y00546943D01*
X00355217Y00546723D01*
X00355006Y00546477D01*
X00354473Y00551348D01*
X00354739Y00551143D01*
D02*
G37*
G36*
X00319468Y00537010D02*
X00319264Y00536759D01*
X00319084Y00536498D01*
X00318928Y00536227D01*
X00318796Y00535945D01*
X00318688Y00535653D01*
X00318604Y00535350D01*
X00318544Y00535037D01*
X00318508Y00534714D01*
X00318496Y00534381D01*
X00315996D01*
X00315984Y00534714D01*
X00315948Y00535037D01*
X00315888Y00535350D01*
X00315804Y00535653D01*
X00315696Y00535945D01*
X00315564Y00536227D01*
X00315408Y00536498D01*
X00315228Y00536759D01*
X00315024Y00537010D01*
X00314796Y00537251D01*
X00319696D01*
X00319468Y00537010D01*
D02*
G37*
G36*
X00410600Y00521628D02*
X00410857Y00521429D01*
X00411124Y00521254D01*
X00411400Y00521101D01*
X00411685Y00520973D01*
X00411980Y00520867D01*
X00412284Y00520785D01*
X00412598Y00520727D01*
X00412921Y00520692D01*
X00413253Y00520680D01*
X00413330Y00518180D01*
X00412995Y00518168D01*
X00412672Y00518131D01*
X00412360Y00518069D01*
X00412059Y00517984D01*
X00411770Y00517873D01*
X00411492Y00517738D01*
X00411225Y00517579D01*
X00410970Y00517394D01*
X00410725Y00517186D01*
X00410493Y00516952D01*
X00410353Y00521850D01*
X00410600Y00521628D01*
D02*
G37*
G36*
X00378183Y00521613D02*
X00378430Y00521407D01*
X00378689Y00521225D01*
X00378958Y00521067D01*
X00379238Y00520933D01*
X00379529Y00520824D01*
X00379830Y00520739D01*
X00380143Y00520678D01*
X00380466Y00520642D01*
X00380800Y00520630D01*
X00380762Y00518130D01*
X00380429Y00518118D01*
X00380106Y00518083D01*
X00379792Y00518023D01*
X00379489Y00517940D01*
X00379195Y00517834D01*
X00378912Y00517703D01*
X00378638Y00517549D01*
X00378374Y00517371D01*
X00378120Y00517170D01*
X00377876Y00516945D01*
X00377946Y00521844D01*
X00378183Y00521613D01*
D02*
G37*
G36*
X00405390Y00516916D02*
X00405153Y00517147D01*
X00404906Y00517353D01*
X00404647Y00517535D01*
X00404378Y00517693D01*
X00404098Y00517826D01*
X00403807Y00517936D01*
X00403506Y00518021D01*
X00403193Y00518081D01*
X00402870Y00518118D01*
X00402536Y00518130D01*
X00402574Y00520630D01*
X00402907Y00520642D01*
X00403231Y00520677D01*
X00403544Y00520737D01*
X00403847Y00520820D01*
X00404141Y00520926D01*
X00404424Y00521057D01*
X00404698Y00521211D01*
X00404962Y00521389D01*
X00405216Y00521590D01*
X00405460Y00521815D01*
X00405390Y00516916D01*
D02*
G37*
G36*
X00420410Y00510630D02*
X00420170Y00510858D01*
X00419919Y00511062D01*
X00419658Y00511242D01*
X00419387Y00511398D01*
X00419105Y00511530D01*
X00418813Y00511638D01*
X00418510Y00511722D01*
X00418198Y00511782D01*
X00417874Y00511818D01*
X00417541Y00511830D01*
Y00514330D01*
X00417874Y00514342D01*
X00418198Y00514378D01*
X00418510Y00514438D01*
X00418813Y00514522D01*
X00419105Y00514630D01*
X00419387Y00514762D01*
X00419658Y00514918D01*
X00419919Y00515098D01*
X00420170Y00515302D01*
X00420410Y00515530D01*
Y00510630D01*
D02*
G37*
G36*
X00379345Y00504214D02*
X00379124Y00504454D01*
X00378891Y00504670D01*
X00378644Y00504860D01*
X00378385Y00505024D01*
X00378113Y00505163D01*
X00377828Y00505277D01*
X00377530Y00505366D01*
X00377220Y00505429D01*
X00376897Y00505467D01*
X00376561Y00505480D01*
X00376756Y00507980D01*
X00377086Y00507991D01*
X00377409Y00508025D01*
X00377724Y00508081D01*
X00378031Y00508159D01*
X00378329Y00508260D01*
X00378620Y00508383D01*
X00378902Y00508529D01*
X00379176Y00508697D01*
X00379443Y00508888D01*
X00379701Y00509101D01*
X00379345Y00504214D01*
D02*
G37*
G36*
X00412820Y00504080D02*
X00412577Y00504306D01*
X00412323Y00504508D01*
X00412060Y00504686D01*
X00411786Y00504840D01*
X00411503Y00504971D01*
X00411210Y00505078D01*
X00410907Y00505161D01*
X00410593Y00505220D01*
X00410270Y00505256D01*
X00409937Y00505268D01*
X00409905Y00507768D01*
X00410239Y00507780D01*
X00410562Y00507817D01*
X00410875Y00507877D01*
X00411176Y00507962D01*
X00411467Y00508071D01*
X00411748Y00508204D01*
X00412017Y00508362D01*
X00412276Y00508544D01*
X00412524Y00508750D01*
X00412761Y00508980D01*
X00412820Y00504080D01*
D02*
G37*
G36*
X00384729Y00508730D02*
X00384983Y00508528D01*
X00385246Y00508350D01*
X00385520Y00508196D01*
X00385803Y00508065D01*
X00386096Y00507958D01*
X00386399Y00507875D01*
X00386713Y00507816D01*
X00387036Y00507780D01*
X00387369Y00507768D01*
X00387401Y00505268D01*
X00387067Y00505256D01*
X00386744Y00505219D01*
X00386431Y00505159D01*
X00386130Y00505074D01*
X00385839Y00504965D01*
X00385558Y00504832D01*
X00385289Y00504674D01*
X00385030Y00504492D01*
X00384782Y00504286D01*
X00384545Y00504056D01*
X00384486Y00508956D01*
X00384729Y00508730D01*
D02*
G37*
G36*
X00276325Y00456669D02*
X00276550Y00455826D01*
X00276925Y00454910D01*
X00277450Y00453919D01*
X00278125Y00452855D01*
X00278950Y00451717D01*
X00281050Y00449220D01*
X00282325Y00447860D01*
X00283750Y00446427D01*
X00266250D01*
X00267675Y00447860D01*
X00271050Y00451717D01*
X00271875Y00452855D01*
X00272550Y00453919D01*
X00273075Y00454910D01*
X00273450Y00455826D01*
X00273675Y00456669D01*
X00273750Y00457437D01*
X00276250D01*
X00276325Y00456669D01*
D02*
G37*
G36*
X00576560Y00457402D02*
X00576634Y00456649D01*
X00576856Y00455814D01*
X00577227Y00454898D01*
X00577745Y00453900D01*
X00578412Y00452822D01*
X00579227Y00451661D01*
X00581302Y00449097D01*
X00583969Y00446207D01*
X00566474Y00446641D01*
X00567915Y00448023D01*
X00571329Y00451769D01*
X00572164Y00452885D01*
X00572846Y00453934D01*
X00573377Y00454916D01*
X00573757Y00455832D01*
X00573984Y00456682D01*
X00574060Y00457465D01*
X00576560Y00457402D01*
D02*
G37*
G36*
X00459510Y00389473D02*
X00459752Y00389263D01*
X00460006Y00389078D01*
X00460271Y00388918D01*
X00460549Y00388782D01*
X00460837Y00388671D01*
X00461137Y00388584D01*
X00461449Y00388522D01*
X00461772Y00388485D01*
X00462107Y00388473D01*
X00462010Y00385973D01*
X00461678Y00385961D01*
X00461355Y00385927D01*
X00461041Y00385868D01*
X00460736Y00385787D01*
X00460441Y00385682D01*
X00460154Y00385555D01*
X00459877Y00385404D01*
X00459609Y00385229D01*
X00459351Y00385032D01*
X00459101Y00384811D01*
X00459279Y00389708D01*
X00459510Y00389473D01*
D02*
G37*
G36*
X00478997Y00384738D02*
X00478766Y00384973D01*
X00478524Y00385183D01*
X00478270Y00385368D01*
X00478005Y00385528D01*
X00477728Y00385664D01*
X00477439Y00385775D01*
X00477139Y00385862D01*
X00476827Y00385924D01*
X00476504Y00385961D01*
X00476169Y00385973D01*
X00476266Y00388473D01*
X00476598Y00388485D01*
X00476921Y00388520D01*
X00477235Y00388578D01*
X00477540Y00388659D01*
X00477835Y00388764D01*
X00478122Y00388891D01*
X00478399Y00389042D01*
X00478667Y00389217D01*
X00478926Y00389414D01*
X00479175Y00389635D01*
X00478997Y00384738D01*
D02*
G37*
G36*
X00509818Y00353658D02*
X00509578Y00353886D01*
X00509327Y00354090D01*
X00509066Y00354270D01*
X00508795Y00354426D01*
X00508513Y00354558D01*
X00508221Y00354666D01*
X00507918Y00354750D01*
X00507606Y00354810D01*
X00507282Y00354846D01*
X00506949Y00354858D01*
Y00357358D01*
X00507282Y00357370D01*
X00507606Y00357406D01*
X00507918Y00357466D01*
X00508221Y00357550D01*
X00508513Y00357658D01*
X00508795Y00357790D01*
X00509066Y00357946D01*
X00509327Y00358126D01*
X00509578Y00358330D01*
X00509818Y00358558D01*
Y00353658D01*
D02*
G37*
G36*
X00477974Y00358330D02*
X00478225Y00358126D01*
X00478486Y00357946D01*
X00478757Y00357790D01*
X00479039Y00357658D01*
X00479331Y00357550D01*
X00479634Y00357466D01*
X00479947Y00357406D01*
X00480270Y00357370D01*
X00480603Y00357358D01*
Y00354858D01*
X00480270Y00354846D01*
X00479947Y00354810D01*
X00479634Y00354750D01*
X00479331Y00354666D01*
X00479039Y00354558D01*
X00478757Y00354426D01*
X00478486Y00354270D01*
X00478225Y00354090D01*
X00477974Y00353886D01*
X00477733Y00353658D01*
Y00358558D01*
X00477974Y00358330D01*
D02*
G37*
G36*
X00515210Y00358130D02*
X00515443Y00357914D01*
X00515690Y00357724D01*
X00515949Y00357560D01*
X00516221Y00357421D01*
X00516506Y00357307D01*
X00516804Y00357218D01*
X00517114Y00357155D01*
X00517437Y00357117D01*
X00517773Y00357104D01*
X00517578Y00354604D01*
X00517248Y00354593D01*
X00516925Y00354559D01*
X00516610Y00354503D01*
X00516303Y00354425D01*
X00516005Y00354324D01*
X00515714Y00354201D01*
X00515432Y00354055D01*
X00515158Y00353887D01*
X00514891Y00353696D01*
X00514633Y00353483D01*
X00514989Y00358370D01*
X00515210Y00358130D01*
D02*
G37*
G36*
X00546731Y00353338D02*
X00546510Y00353578D01*
X00546277Y00353794D01*
X00546030Y00353984D01*
X00545771Y00354148D01*
X00545499Y00354287D01*
X00545214Y00354401D01*
X00544916Y00354490D01*
X00544606Y00354553D01*
X00544283Y00354591D01*
X00543947Y00354604D01*
X00544142Y00357104D01*
X00544472Y00357115D01*
X00544795Y00357149D01*
X00545110Y00357205D01*
X00545416Y00357283D01*
X00545715Y00357384D01*
X00546006Y00357508D01*
X00546288Y00357653D01*
X00546562Y00357821D01*
X00546829Y00358012D01*
X00547087Y00358225D01*
X00546731Y00353338D01*
D02*
G37*
G36*
X00552142Y00357822D02*
X00552393Y00357618D01*
X00552654Y00357438D01*
X00552925Y00357282D01*
X00553207Y00357150D01*
X00553499Y00357042D01*
X00553802Y00356958D01*
X00554114Y00356898D01*
X00554438Y00356862D01*
X00554771Y00356850D01*
Y00354350D01*
X00554438Y00354338D01*
X00554114Y00354302D01*
X00553802Y00354242D01*
X00553499Y00354158D01*
X00553207Y00354050D01*
X00552925Y00353918D01*
X00552654Y00353762D01*
X00552393Y00353582D01*
X00552142Y00353378D01*
X00551902Y00353150D01*
Y00358050D01*
X00552142Y00357822D01*
D02*
G37*
G36*
X00726487Y00347391D02*
X00726687Y00346520D01*
X00727022Y00345623D01*
X00727490Y00344698D01*
X00728092Y00343747D01*
X00728828Y00342769D01*
X00729697Y00341763D01*
X00730700Y00340731D01*
X00733108Y00338586D01*
X00717232D01*
X00718503Y00339672D01*
X00720643Y00341763D01*
X00721512Y00342769D01*
X00722248Y00343747D01*
X00722850Y00344698D01*
X00723318Y00345623D01*
X00723652Y00346520D01*
X00723853Y00347391D01*
X00723920Y00348234D01*
X00726420D01*
X00726487Y00347391D01*
D02*
G37*
G36*
X00725045Y00316431D02*
X00723349Y00316414D01*
X00720283Y00316176D01*
X00718913Y00315956D01*
X00717652Y00315666D01*
X00716499Y00315309D01*
X00715455Y00314884D01*
X00714519Y00314390D01*
X00713692Y00313829D01*
X00712974Y00313199D01*
X00709439Y00316734D01*
X00710069Y00317452D01*
X00710630Y00318279D01*
X00711124Y00319215D01*
X00711549Y00320259D01*
X00711906Y00321412D01*
X00712196Y00322673D01*
X00712417Y00324043D01*
X00712569Y00325522D01*
X00712671Y00328805D01*
X00725045Y00316431D01*
D02*
G37*
G36*
X00637977Y00290801D02*
X00637794Y00290658D01*
X00637630Y00290498D01*
X00637485Y00290319D01*
X00637359Y00290122D01*
X00637253Y00289907D01*
X00637166Y00289674D01*
X00637099Y00289423D01*
X00637051Y00289154D01*
X00637022Y00288867D01*
X00637012Y00288561D01*
X00634512Y00289037D01*
X00634505Y00289339D01*
X00634451Y00289907D01*
X00634404Y00290173D01*
X00634343Y00290426D01*
X00634269Y00290668D01*
X00634182Y00290897D01*
X00634080Y00291114D01*
X00633966Y00291319D01*
X00633838Y00291512D01*
X00637977Y00290801D01*
D02*
G37*
G36*
X00058789Y00284433D02*
X00058940Y00284008D01*
X00059192Y00283633D01*
X00059544Y00283308D01*
X00059997Y00283033D01*
X00060550Y00282808D01*
X00061204Y00282633D01*
X00061958Y00282508D01*
X00062814Y00282433D01*
X00063769Y00282408D01*
Y00277408D01*
X00062814Y00277383D01*
X00061958Y00277308D01*
X00061204Y00277183D01*
X00060550Y00277008D01*
X00059997Y00276783D01*
X00059544Y00276508D01*
X00059192Y00276183D01*
X00058940Y00275808D01*
X00058789Y00275383D01*
X00058739Y00274908D01*
Y00284908D01*
X00058789Y00284433D01*
D02*
G37*
G36*
X00466290Y00279082D02*
X00466541Y00278878D01*
X00466802Y00278698D01*
X00467073Y00278542D01*
X00467355Y00278410D01*
X00467647Y00278302D01*
X00467950Y00278218D01*
X00468262Y00278158D01*
X00468586Y00278122D01*
X00468919Y00278110D01*
Y00275610D01*
X00468586Y00275598D01*
X00468262Y00275562D01*
X00467950Y00275502D01*
X00467647Y00275418D01*
X00467355Y00275310D01*
X00467073Y00275178D01*
X00466802Y00275022D01*
X00466541Y00274842D01*
X00466290Y00274638D01*
X00466049Y00274410D01*
Y00279310D01*
X00466290Y00279082D01*
D02*
G37*
G36*
X00576572Y00264989D02*
X00576610Y00264559D01*
X00576673Y00264179D01*
X00576760Y00263850D01*
X00576872Y00263572D01*
X00577010Y00263344D01*
X00577173Y00263167D01*
X00577360Y00263040D01*
X00577573Y00262964D01*
X00577810Y00262939D01*
X00572810D01*
X00573047Y00262964D01*
X00573260Y00263040D01*
X00573447Y00263167D01*
X00573610Y00263344D01*
X00573747Y00263572D01*
X00573860Y00263850D01*
X00573947Y00264179D01*
X00574010Y00264559D01*
X00574048Y00264989D01*
X00574060Y00265469D01*
X00576560D01*
X00576572Y00264989D01*
D02*
G37*
G36*
X00132344Y00270837D02*
X00132494Y00269987D01*
X00132744Y00269237D01*
X00133094Y00268587D01*
X00133544Y00268037D01*
X00134094Y00267587D01*
X00134744Y00267237D01*
X00135494Y00266987D01*
X00136344Y00266837D01*
X00137294Y00266787D01*
X00129794Y00261787D01*
X00122294Y00266787D01*
X00123244Y00266837D01*
X00124094Y00266987D01*
X00124844Y00267237D01*
X00125494Y00267587D01*
X00126044Y00268037D01*
X00126494Y00268587D01*
X00126844Y00269237D01*
X00127094Y00269987D01*
X00127244Y00270837D01*
X00127294Y00271787D01*
X00132294D01*
X00132344Y00270837D01*
D02*
G37*
G36*
X00218061Y00254410D02*
X00218013Y00254809D01*
X00217873Y00255166D01*
X00217641Y00255481D01*
X00217316Y00255755D01*
X00216899Y00255986D01*
X00216390Y00256175D01*
X00215788Y00256322D01*
X00215094Y00256427D01*
X00214308Y00256490D01*
X00213429Y00256511D01*
Y00261511D01*
X00214303Y00261526D01*
X00215776Y00261642D01*
X00216374Y00261744D01*
X00216880Y00261876D01*
X00217294Y00262036D01*
X00217616Y00262226D01*
X00217846Y00262444D01*
X00217985Y00262692D01*
X00218030Y00262969D01*
X00218061Y00254410D01*
D02*
G37*
G36*
X00533019Y00262595D02*
X00533170Y00262260D01*
X00533419Y00261965D01*
X00533769Y00261709D01*
X00534220Y00261492D01*
X00534770Y00261315D01*
X00535420Y00261177D01*
X00536170Y00261079D01*
X00537020Y00261020D01*
X00537970Y00261000D01*
Y00256000D01*
X00537020Y00255980D01*
X00535420Y00255823D01*
X00534770Y00255685D01*
X00534220Y00255508D01*
X00533769Y00255291D01*
X00533419Y00255035D01*
X00533170Y00254739D01*
X00533019Y00254405D01*
X00532970Y00254030D01*
Y00262969D01*
X00533019Y00262595D01*
D02*
G37*
G36*
X00518031Y00254030D02*
X00517980Y00254405D01*
X00517831Y00254739D01*
X00517580Y00255035D01*
X00517230Y00255291D01*
X00516781Y00255508D01*
X00516231Y00255685D01*
X00515580Y00255823D01*
X00514831Y00255921D01*
X00513980Y00255980D01*
X00513031Y00256000D01*
Y00261000D01*
X00513980Y00261020D01*
X00515580Y00261177D01*
X00516231Y00261315D01*
X00516781Y00261492D01*
X00517230Y00261709D01*
X00517580Y00261965D01*
X00517831Y00262260D01*
X00517980Y00262595D01*
X00518031Y00262969D01*
Y00254030D01*
D02*
G37*
G36*
X00233020Y00262595D02*
X00233169Y00262260D01*
X00233419Y00261965D01*
X00233769Y00261709D01*
X00234219Y00261492D01*
X00234769Y00261315D01*
X00235420Y00261177D01*
X00236169Y00261079D01*
X00237020Y00261020D01*
X00237969Y00261000D01*
Y00256000D01*
X00237020Y00255980D01*
X00235420Y00255823D01*
X00234769Y00255685D01*
X00234219Y00255508D01*
X00233769Y00255291D01*
X00233419Y00255035D01*
X00233169Y00254739D01*
X00233020Y00254405D01*
X00232969Y00254030D01*
Y00262969D01*
X00233020Y00262595D01*
D02*
G37*
G36*
X00637106Y00268709D02*
X00637855Y00259968D01*
X00638510Y00256065D01*
X00639353Y00252474D01*
X00640383Y00249196D01*
X00641600Y00246229D01*
X00642291Y00244922D01*
X00661312Y00243625D01*
X00667012Y00243600D01*
X00635762Y00213600D01*
X00604512Y00243600D01*
X00610212Y00243625D01*
X00623712Y00244000D01*
X00628977Y00244439D01*
X00629924Y00246229D01*
X00631141Y00249196D01*
X00632171Y00252474D01*
X00633014Y00256065D01*
X00633669Y00259968D01*
X00634137Y00264183D01*
X00634512Y00273548D01*
X00637012D01*
X00637106Y00268709D01*
D02*
G37*
G36*
X00606680Y00211020D02*
X00606006Y00210741D01*
X00604599Y00209334D01*
X00603838Y00207497D01*
Y00206786D01*
X00603715Y00206510D01*
X00603708Y00206241D01*
X00603688Y00206044D01*
X00603654Y00205861D01*
X00603608Y00205689D01*
X00603548Y00205524D01*
X00603475Y00205365D01*
X00603386Y00205208D01*
X00603280Y00205051D01*
X00603155Y00204895D01*
X00602969Y00204695D01*
X00602911Y00204541D01*
X00601835Y00203464D01*
X00575567D01*
X00575412Y00203533D01*
X00574981Y00203544D01*
X00574661Y00203572D01*
X00574420Y00203612D01*
X00574400Y00203617D01*
Y00210000D01*
X00555420D01*
X00555096Y00211000D01*
X00555175Y00211057D01*
X00556147Y00211665D01*
X00556844Y00212007D01*
X00556892Y00212020D01*
X00606481D01*
X00606680Y00211020D01*
D02*
G37*
G36*
X00608803Y00203002D02*
X00608472Y00202993D01*
X00608150Y00202960D01*
X00607838Y00202903D01*
X00607536Y00202821D01*
X00607243Y00202715D01*
X00606960Y00202585D01*
X00606687Y00202431D01*
X00606424Y00202252D01*
X00606170Y00202049D01*
X00605925Y00201821D01*
X00604157Y00203589D01*
X00604385Y00203834D01*
X00604588Y00204088D01*
X00604767Y00204351D01*
X00604921Y00204625D01*
X00605051Y00204907D01*
X00605157Y00205200D01*
X00605239Y00205502D01*
X00605296Y00205814D01*
X00605329Y00206136D01*
X00605338Y00206467D01*
X00608803Y00203002D01*
D02*
G37*
G36*
X00556981Y00213733D02*
X00556261Y00213529D01*
X00555357Y00213087D01*
X00554268Y00212405D01*
X00552994Y00211484D01*
X00549892Y00208925D01*
X00543853Y00203294D01*
X00541471Y00200939D01*
X00527329Y00215081D01*
X00529684Y00217463D01*
X00538795Y00227878D01*
X00539477Y00228967D01*
X00539919Y00229871D01*
X00540123Y00230591D01*
X00556981Y00213733D01*
D02*
G37*
G36*
X00572864Y00202922D02*
X00572940Y00202710D01*
X00573067Y00202523D01*
X00573244Y00202360D01*
X00573472Y00202222D01*
X00573750Y00202110D01*
X00574079Y00202022D01*
X00574459Y00201960D01*
X00574889Y00201922D01*
X00575369Y00201910D01*
Y00199410D01*
X00574889Y00199398D01*
X00574459Y00199360D01*
X00574079Y00199298D01*
X00573750Y00199210D01*
X00573472Y00199097D01*
X00573244Y00198960D01*
X00573067Y00198797D01*
X00572940Y00198610D01*
X00572864Y00198398D01*
X00572839Y00198160D01*
Y00203160D01*
X00572864Y00202922D01*
D02*
G37*
G36*
X00445152Y00335720D02*
X00444978Y00335882D01*
X00444790Y00336026D01*
X00444587Y00336153D01*
X00444370Y00336264D01*
X00444139Y00336357D01*
X00443893Y00336434D01*
X00443633Y00336493D01*
X00443359Y00336536D01*
X00443070Y00336562D01*
X00442767Y00336570D01*
Y00339070D01*
X00443070Y00339078D01*
X00443359Y00339104D01*
X00443633Y00339146D01*
X00443893Y00339206D01*
X00444139Y00339282D01*
X00444370Y00339376D01*
X00444587Y00339487D01*
X00444790Y00339614D01*
X00444978Y00339758D01*
X00445152Y00339920D01*
Y00335720D01*
D02*
G37*
G36*
X00169702Y00339758D02*
X00169890Y00339614D01*
X00170093Y00339487D01*
X00170310Y00339376D01*
X00170541Y00339282D01*
X00170787Y00339206D01*
X00171047Y00339146D01*
X00171321Y00339104D01*
X00171610Y00339078D01*
X00171913Y00339070D01*
Y00336570D01*
X00171610Y00336562D01*
X00171321Y00336536D01*
X00171047Y00336493D01*
X00170787Y00336434D01*
X00170541Y00336357D01*
X00170310Y00336264D01*
X00170093Y00336153D01*
X00169890Y00336026D01*
X00169702Y00335882D01*
X00169528Y00335720D01*
Y00339920D01*
X00169702Y00339758D01*
D02*
G37*
G36*
X00437247Y00333721D02*
X00437961Y00333088D01*
X00437982Y00333087D01*
X00436469Y00330993D01*
X00435322Y00332110D01*
X00437089Y00333878D01*
X00437247Y00333721D01*
D02*
G37*
G36*
X00171471Y00327437D02*
X00171263Y00327217D01*
X00171077Y00326995D01*
X00170913Y00326771D01*
X00170771Y00326545D01*
X00170651Y00326317D01*
X00170554Y00326087D01*
X00170478Y00325856D01*
X00170425Y00325622D01*
X00170395Y00325387D01*
X00170386Y00325150D01*
X00167416Y00328120D01*
X00167653Y00328129D01*
X00167888Y00328159D01*
X00168122Y00328213D01*
X00168353Y00328288D01*
X00168583Y00328385D01*
X00168811Y00328505D01*
X00169037Y00328647D01*
X00169261Y00328811D01*
X00169483Y00328997D01*
X00169703Y00329205D01*
X00171471Y00327437D01*
D02*
G37*
G36*
X00518061Y00289000D02*
X00518036Y00289237D01*
X00517960Y00289450D01*
X00517833Y00289638D01*
X00517656Y00289800D01*
X00517428Y00289937D01*
X00517150Y00290050D01*
X00516821Y00290138D01*
X00516441Y00290200D01*
X00516011Y00290238D01*
X00515531Y00290250D01*
Y00292750D01*
X00516011Y00292763D01*
X00516441Y00292800D01*
X00516821Y00292862D01*
X00517150Y00292950D01*
X00517428Y00293062D01*
X00517656Y00293200D01*
X00517833Y00293363D01*
X00517960Y00293550D01*
X00518036Y00293762D01*
X00518061Y00294000D01*
Y00289000D01*
D02*
G37*
G36*
X00281964Y00260763D02*
X00282040Y00260550D01*
X00282167Y00260362D01*
X00282344Y00260200D01*
X00282572Y00260063D01*
X00282850Y00259950D01*
X00283179Y00259862D01*
X00283559Y00259800D01*
X00283989Y00259762D01*
X00284470Y00259750D01*
Y00257250D01*
X00283989Y00257237D01*
X00283559Y00257200D01*
X00283179Y00257138D01*
X00282850Y00257050D01*
X00282572Y00256938D01*
X00282344Y00256800D01*
X00282167Y00256637D01*
X00282040Y00256450D01*
X00281964Y00256238D01*
X00281939Y00256000D01*
Y00261000D01*
X00281964Y00260763D01*
D02*
G37*
G36*
X00604224Y00172016D02*
X00603933Y00172183D01*
X00603341Y00172465D01*
X00603040Y00172579D01*
X00602734Y00172675D01*
X00602425Y00172754D01*
X00602113Y00172816D01*
X00601796Y00172860D01*
X00601476Y00172886D01*
X00601152Y00172895D01*
X00600466Y00175395D01*
X00600807Y00175409D01*
X00601130Y00175450D01*
X00601433Y00175518D01*
X00601717Y00175614D01*
X00601982Y00175738D01*
X00602227Y00175889D01*
X00602454Y00176067D01*
X00602661Y00176272D01*
X00602850Y00176505D01*
X00603019Y00176766D01*
X00604224Y00172016D01*
D02*
G37*
G36*
X00571374Y00175057D02*
X00573074Y00173553D01*
X00573871Y00172942D01*
X00574633Y00172425D01*
X00575359Y00172002D01*
X00576049Y00171673D01*
X00576704Y00171438D01*
X00577324Y00171297D01*
X00577908Y00171250D01*
Y00168750D01*
X00577324Y00168703D01*
X00576704Y00168562D01*
X00576049Y00168327D01*
X00575359Y00167998D01*
X00574633Y00167575D01*
X00573871Y00167058D01*
X00573074Y00166447D01*
X00571374Y00164943D01*
X00570470Y00164050D01*
Y00175950D01*
X00571374Y00175057D01*
D02*
G37*
G36*
X00572907Y00138645D02*
X00573046Y00136379D01*
X00573178Y00135383D01*
X00573350Y00134479D01*
X00573565Y00133666D01*
X00573820Y00132946D01*
X00574117Y00132316D01*
X00574456Y00131779D01*
X00574835Y00131333D01*
X00573067Y00129565D01*
X00572621Y00129944D01*
X00572084Y00130283D01*
X00571454Y00130580D01*
X00570733Y00130835D01*
X00569921Y00131049D01*
X00569017Y00131222D01*
X00568021Y00131354D01*
X00565755Y00131493D01*
X00564485Y00131500D01*
X00572900Y00139915D01*
X00572907Y00138645D01*
D02*
G37*
G36*
X00649010Y00127090D02*
X00648770Y00127318D01*
X00648519Y00127522D01*
X00648258Y00127702D01*
X00647987Y00127858D01*
X00647705Y00127990D01*
X00647413Y00128098D01*
X00647110Y00128182D01*
X00646797Y00128242D01*
X00646474Y00128278D01*
X00646141Y00128290D01*
Y00130790D01*
X00646474Y00130802D01*
X00646797Y00130838D01*
X00647110Y00130898D01*
X00647413Y00130982D01*
X00647705Y00131090D01*
X00647987Y00131222D01*
X00648258Y00131378D01*
X00648519Y00131558D01*
X00648770Y00131762D01*
X00649010Y00131990D01*
Y00127090D01*
D02*
G37*
G36*
X00604053Y00110834D02*
X00603812Y00111062D01*
X00603561Y00111266D01*
X00603300Y00111446D01*
X00603029Y00111602D01*
X00602747Y00111734D01*
X00602455Y00111842D01*
X00602152Y00111926D01*
X00601839Y00111986D01*
X00601516Y00112022D01*
X00601183Y00112034D01*
Y00114534D01*
X00601516Y00114546D01*
X00601839Y00114582D01*
X00602152Y00114642D01*
X00602455Y00114726D01*
X00602747Y00114834D01*
X00603029Y00114966D01*
X00603300Y00115122D01*
X00603561Y00115302D01*
X00603812Y00115506D01*
X00604053Y00115734D01*
Y00110834D01*
D02*
G37*
G36*
X00571779Y00114437D02*
X00573296Y00112870D01*
X00574025Y00112233D01*
X00574734Y00111694D01*
X00575424Y00111254D01*
X00576094Y00110911D01*
X00576745Y00110666D01*
X00577376Y00110519D01*
X00577987Y00110470D01*
X00577754Y00107970D01*
X00577206Y00107926D01*
X00576605Y00107792D01*
X00575952Y00107569D01*
X00575246Y00107258D01*
X00574487Y00106857D01*
X00573675Y00106367D01*
X00571892Y00105121D01*
X00569899Y00103518D01*
X00570991Y00115368D01*
X00571779Y00114437D01*
D02*
G37*
D10*
X00635762Y00228600D02*
Y00292760D01*
X00636270Y00293268D01*
X00563880Y00200660D02*
X00602996D01*
X00608838Y00206502D01*
X00564400Y00170000D02*
X00595685D01*
X00599830Y00174145D01*
X00605183D02*
X00606044Y00175006D01*
X00599830Y00174145D02*
X00605183D01*
X00129794Y00346202D02*
X00130048Y00345948D01*
X00129794Y00305308D02*
Y00305816D01*
X00438745Y00330454D02*
X00439420D01*
X00436205Y00332994D02*
X00438745Y00330454D01*
X00175260Y00332994D02*
X00436205D01*
X00167386Y00325120D02*
X00175260Y00332994D01*
X00456692Y00387350D02*
X00456819Y00387223D01*
X00481457D01*
X00481584Y00387096D01*
X00463550Y00276860D02*
X00565150D01*
X00167386Y00337820D02*
X00447294D01*
X00310546Y00566674D02*
X00313848Y00569976D01*
X00310134Y00566674D02*
X00310546D01*
X00313848Y00569976D02*
X00417830D01*
X00330200Y00554990D02*
X00338328Y00563118D01*
X00491998D01*
X00344880Y00553720D02*
X00346912Y00555752D01*
X00352636Y00549021D02*
X00478664D01*
X00346912Y00555752D02*
X00485140D01*
X00343662Y00553720D02*
X00344880D01*
X00478664Y00549021D02*
X00479044Y00548641D01*
X00352255Y00548640D02*
X00352636Y00549021D01*
X00302260Y00506730D02*
X00381762D01*
X00407874Y00519380D02*
X00407924Y00519330D01*
X00375462Y00519380D02*
X00407874D01*
X00375412Y00519430D02*
X00375462Y00519380D01*
X00407924Y00519176D02*
X00408178Y00519430D01*
X00554990D01*
X00321258Y00513080D02*
X00422910D01*
X00381762Y00506730D02*
X00382016Y00506476D01*
X00382058Y00506518D01*
X00415248D01*
X00415290Y00506560D01*
X00317246Y00517092D02*
Y00539750D01*
Y00517092D02*
X00321258Y00513080D01*
X00574860Y00129540D02*
X00651510D01*
X00565150Y00139250D02*
X00574860Y00129540D01*
X00582930Y00109220D02*
X00586994Y00113284D01*
X00606552D01*
X00717804Y00355600D02*
X00725170Y00348234D01*
X00549402Y00355600D02*
X00717804D01*
X00725170Y00328930D02*
Y00348234D01*
X00512318Y00356108D02*
X00512572Y00355854D01*
X00549148D01*
X00549402Y00355600D01*
X00475234Y00356108D02*
X00512318D01*
X00565150Y00276860D02*
X00575310Y00266700D01*
X00275000Y00479470D02*
X00302260Y00506730D01*
X00554990Y00519430D02*
X00575310Y00499110D01*
X00274500Y00258500D02*
X00429950D01*
X00462950Y00291500D01*
X00275000Y00437500D02*
Y00479470D01*
X00462950Y00291500D02*
X00525500D01*
X00565150Y00139250D02*
Y00139700D01*
X00566420Y00109220D02*
X00582930D01*
X00565150Y00110490D02*
X00566420Y00109220D01*
X00575310Y00257810D02*
Y00266700D01*
Y00436880D02*
Y00499110D01*
D34*
X00050800Y00355600D02*
D03*
Y00330200D02*
D03*
Y00304800D02*
D03*
D39*
X00275590Y00655066D02*
D03*
X00300990D02*
D03*
X00326390D02*
D03*
X00351790D02*
D03*
X00377190D02*
D03*
X00402590D02*
D03*
X00427990D02*
D03*
D41*
X00050800Y00279400D02*
D03*
D42*
X00564400Y00170000D02*
D03*
Y00140000D02*
D03*
Y00110000D02*
D03*
Y00080000D02*
D03*
X00534400Y00170000D02*
D03*
Y00140000D02*
D03*
Y00110000D02*
D03*
Y00080000D02*
D03*
Y00200000D02*
D03*
X00350000Y00161500D02*
D03*
Y00131500D02*
D03*
Y00101500D02*
D03*
X00175000Y00102770D02*
D03*
Y00132770D02*
D03*
Y00162770D02*
D03*
Y00192770D02*
D03*
Y00072770D02*
D03*
D43*
X00564400Y00200000D02*
D03*
D48*
X00725170Y00260350D02*
D03*
Y00209550D02*
D03*
X00525000Y00562500D02*
D03*
Y00437500D02*
D03*
X00575000Y00562500D02*
D03*
Y00437500D02*
D03*
X00225000Y00562500D02*
D03*
Y00437500D02*
D03*
X00275000Y00562500D02*
D03*
Y00437500D02*
D03*
X00725000Y00450000D02*
D03*
Y00500800D02*
D03*
X00725170Y00328930D02*
D03*
Y00379730D02*
D03*
D53*
X00551180Y00248920D02*
X00592582D01*
X00623570Y00279908D02*
Y00297180D01*
X00592582Y00248920D02*
X00623570Y00279908D01*
X00443865Y00254635D02*
X00445135D01*
X00541600Y00258500D02*
X00551180Y00248920D01*
X00525500Y00258500D02*
X00541600D01*
X00431800Y00242570D02*
X00443865Y00254635D01*
X00129794Y00305816D02*
Y00346202D01*
Y00264287D02*
X00208153D01*
X00109347D02*
X00129794D01*
Y00305308D01*
X00109220Y00264414D02*
X00109347Y00264287D01*
X00080772Y00264414D02*
X00109220D01*
X00208153Y00264287D02*
X00213429Y00259011D01*
X00065278Y00279908D02*
X00080772Y00264414D01*
X00213429Y00259011D02*
X00221989D01*
X00222500Y00258500D01*
X00244420D01*
X00051562Y00279654D02*
X00051816Y00279908D01*
X00065278D01*
X00285750Y00242570D02*
X00431800D01*
X00260350D02*
X00285750D01*
X00244420Y00258500D02*
X00260350Y00242570D01*
X00445041Y00255270D02*
X00448271Y00258500D01*
X00444500Y00114300D02*
X00476250Y00082550D01*
X00506730D01*
X00444500Y00255270D02*
X00445041D01*
X00448271Y00258500D02*
X00523930D01*
X00704850Y00308610D02*
X00723900Y00327660D01*
X00635000Y00308610D02*
X00704850D01*
X00623570Y00297180D02*
X00635000Y00308610D01*
D54*
X00534400Y00208010D02*
X00554990Y00228600D01*
X00534400Y00200000D02*
Y00208010D01*
D55*
X00635762Y00228600D02*
X00704850D01*
X00554990D02*
X00635762D01*
X00704850D02*
X00723900Y00209550D01*
D56*
X00525000Y00230000D02*
D03*
Y00050000D02*
D03*
D57*
X00050800Y00533300D02*
D03*
Y00507900D02*
D03*
Y00482500D02*
D03*
Y00457100D02*
D03*
Y00558700D02*
D03*
Y00584200D02*
D03*
D58*
Y00431700D02*
D03*
D59*
X00250190Y00655066D02*
D03*
D60*
X00750000Y00050000D02*
D03*
X00050000D02*
D03*
X00750000Y00650000D02*
D03*
X00050000Y00650000D02*
D03*
D61*
X00350000Y00050000D02*
D03*
Y00213000D02*
D03*
X00175000Y00244270D02*
D03*
Y00051270D02*
D03*
D62*
X00350000Y00191500D02*
D03*
X00175000Y00222770D02*
D03*
D63*
X00350000Y00071500D02*
D03*
D64*
X00771000Y00296000D02*
D03*
X00746000Y00246000D02*
D03*
X00771000Y00196000D02*
D03*
X00746000Y00146000D02*
D03*
X00771000Y00096000D02*
D03*
X00696000Y00646000D02*
D03*
Y00546000D02*
D03*
Y00346000D02*
D03*
X00721000Y00296000D02*
D03*
X00696000Y00146000D02*
D03*
X00671000Y00596000D02*
D03*
X00646000Y00546000D02*
D03*
X00671000Y00496000D02*
D03*
X00646000Y00446000D02*
D03*
X00671000Y00396000D02*
D03*
Y00296000D02*
D03*
Y00196000D02*
D03*
X00646000Y00046000D02*
D03*
X00596000Y00646000D02*
D03*
X00621000Y00596000D02*
D03*
X00596000Y00546000D02*
D03*
X00621000Y00496000D02*
D03*
Y00396000D02*
D03*
X00596000Y00046000D02*
D03*
X00546000Y00646000D02*
D03*
X00571000Y00596000D02*
D03*
X00546000Y00546000D02*
D03*
Y00346000D02*
D03*
X00571000Y00096000D02*
D03*
X00546000Y00046000D02*
D03*
X00521000Y00596000D02*
D03*
Y00496000D02*
D03*
X00496000Y00346000D02*
D03*
Y00246000D02*
D03*
Y00146000D02*
D03*
X00521000Y00096000D02*
D03*
X00496000Y00046000D02*
D03*
X00446000Y00646000D02*
D03*
X00471000Y00596000D02*
D03*
X00421000D02*
D03*
Y00496000D02*
D03*
X00396000Y00446000D02*
D03*
Y00346000D02*
D03*
X00421000Y00296000D02*
D03*
Y00196000D02*
D03*
X00396000Y00146000D02*
D03*
X00421000Y00096000D02*
D03*
X00396000Y00046000D02*
D03*
X00371000Y00396000D02*
D03*
X00346000Y00346000D02*
D03*
X00371000Y00296000D02*
D03*
X00346000Y00146000D02*
D03*
X00296000Y00546000D02*
D03*
Y00446000D02*
D03*
X00321000Y00396000D02*
D03*
X00296000Y00346000D02*
D03*
X00321000Y00296000D02*
D03*
Y00096000D02*
D03*
X00296000Y00046000D02*
D03*
X00246000Y00546000D02*
D03*
Y00446000D02*
D03*
X00271000Y00396000D02*
D03*
Y00196000D02*
D03*
Y00096000D02*
D03*
X00246000Y00046000D02*
D03*
X00196000Y00646000D02*
D03*
X00221000Y00596000D02*
D03*
X00196000Y00546000D02*
D03*
X00221000Y00396000D02*
D03*
X00196000Y00346000D02*
D03*
Y00246000D02*
D03*
Y00146000D02*
D03*
X00221000Y00096000D02*
D03*
X00196000Y00046000D02*
D03*
X00146000Y00646000D02*
D03*
X00171000Y00596000D02*
D03*
X00146000Y00546000D02*
D03*
X00171000Y00396000D02*
D03*
Y00296000D02*
D03*
X00146000Y00246000D02*
D03*
Y00046000D02*
D03*
X00096000Y00646000D02*
D03*
X00121000Y00596000D02*
D03*
X00096000Y00546000D02*
D03*
Y00446000D02*
D03*
Y00246000D02*
D03*
Y00146000D02*
D03*
X00121000Y00096000D02*
D03*
X00096000Y00046000D02*
D03*
X00071000Y00596000D02*
D03*
X00046000Y00546000D02*
D03*
X00071000Y00496000D02*
D03*
Y00396000D02*
D03*
Y00296000D02*
D03*
X00046000Y00246000D02*
D03*
X00071000Y00196000D02*
D03*
X00046000Y00146000D02*
D03*
X00071000Y00096000D02*
D03*
X00621792Y00249682D02*
D03*
X00608838Y00206502D02*
D03*
X00606044Y00175006D02*
D03*
X00625602Y00148844D02*
D03*
X00109220Y00264414D02*
D03*
X00481584Y00387096D02*
D03*
X00456692Y00387350D02*
D03*
X00463550Y00276860D02*
D03*
X00459740Y00063500D02*
D03*
X00462026Y00581914D02*
D03*
X00417830Y00569976D02*
D03*
X00352255Y00548640D02*
D03*
X00479044Y00548641D02*
D03*
X00382016Y00506476D02*
D03*
X00407924Y00519330D02*
D03*
X00375412Y00519430D02*
D03*
X00762000Y00109220D02*
D03*
X00453500Y00452374D02*
D03*
X00355600Y00416560D02*
D03*
X00336296Y00448818D02*
D03*
X00317246Y00539750D02*
D03*
X00362966Y00542544D02*
D03*
X00549402Y00355600D02*
D03*
X00475234Y00356108D02*
D03*
X00512318D02*
D03*
X00285750Y00242570D02*
D03*
X00668528Y00084074D02*
D03*
X00630428Y00083058D02*
D03*
X00567944Y00377698D02*
D03*
X00531622Y00378460D02*
D03*
X00494792Y00377698D02*
D03*
X00343662Y00553720D02*
D03*
X00330200Y00554990D02*
D03*
X00320040Y00590296D02*
D03*
X00360680Y00589788D02*
D03*
X00491998Y00563118D02*
D03*
X00485140Y00555752D02*
D03*
X00482600Y00143510D02*
D03*
X00310134Y00566674D02*
D03*
X00606552Y00113284D02*
D03*
X00506730Y00082550D02*
D03*
X00762000Y00118110D02*
D03*
X00444500Y00114300D02*
D03*
X00415290Y00506560D02*
D03*
X00651510Y00129540D02*
D03*
X00444500Y00255270D02*
D03*
X00422910Y00513080D02*
D03*
D65*
X00636270Y00293268D02*
D03*
X00152146Y00365252D02*
D03*
X00152654Y00324612D02*
D03*
X00130048Y00345948D02*
D03*
X00129794Y00305816D02*
D03*
X00167386Y00325120D02*
D03*
X00439420Y00330454D02*
D03*
X00447294Y00337820D02*
D03*
X00167386D02*
D03*
X00220980Y00274320D02*
D03*
X00208280Y00264160D02*
D03*
D66*
X00525500Y00258500D02*
D03*
Y00291500D02*
D03*
X00574500D02*
D03*
Y00258500D02*
D03*
X00225500D02*
D03*
Y00291500D02*
D03*
X00274500D02*
D03*
Y00258500D02*
D03*
M02*
