G04*
G04 #@! TF.GenerationSoftware,Altium Limited,Altium Designer,24.8.2 (39)*
G04*
G04 Layer_Color=32768*
%FSAX44Y44*%
%MOMM*%
G71*
G04*
G04 #@! TF.SameCoordinates,797AAC5B-F729-46B2-8772-93C60BB36BBD*
G04*
G04*
G04 #@! TF.FilePolarity,Positive*
G04*
G01*
G75*
%ADD11C,0.2000*%
%ADD79R,1.2000X0.4000*%
%ADD80R,0.3000X0.9000*%
G36*
X00540495Y00556495D02*
X00540706Y00556537D01*
X00540854D01*
X00540965D01*
X00541002D01*
X00541039D01*
X00541669Y00556500D01*
X00542261Y00556389D01*
X00542817Y00556241D01*
X00543298Y00556093D01*
X00543668Y00555945D01*
X00543965Y00555797D01*
X00544150Y00555685D01*
X00544224Y00555648D01*
X00544742Y00555278D01*
X00545224Y00554834D01*
X00545631Y00554389D01*
X00545964Y00553945D01*
X00546261Y00553574D01*
X00546446Y00553241D01*
X00546594Y00553019D01*
X00546631Y00552982D01*
Y00552945D01*
X00546779Y00552649D01*
X00546927Y00552315D01*
X00547187Y00551575D01*
X00547446Y00550723D01*
X00547705Y00549908D01*
X00547927Y00549168D01*
X00548001Y00548834D01*
X00548075Y00548538D01*
X00548149Y00548316D01*
X00548186Y00548131D01*
X00548223Y00548019D01*
Y00547982D01*
X00548372Y00547353D01*
X00548520Y00546760D01*
X00548668Y00546242D01*
X00548779Y00545798D01*
X00548890Y00545353D01*
X00549001Y00544983D01*
X00549075Y00544650D01*
X00549186Y00544390D01*
X00549260Y00544131D01*
X00549297Y00543946D01*
X00549408Y00543650D01*
X00549445Y00543464D01*
X00549483Y00543427D01*
X00549705Y00542872D01*
X00549964Y00542391D01*
X00550223Y00541983D01*
X00550445Y00541687D01*
X00550668Y00541428D01*
X00550816Y00541279D01*
X00550927Y00541168D01*
X00550964Y00541131D01*
X00551297Y00540872D01*
X00551668Y00540687D01*
X00552038Y00540576D01*
X00552334Y00540465D01*
X00552630Y00540428D01*
X00552853Y00540391D01*
X00553038D01*
X00553075D01*
X00553519Y00540428D01*
X00553927Y00540502D01*
X00554297Y00540613D01*
X00554593Y00540761D01*
X00554889Y00540909D01*
X00555075Y00541020D01*
X00555223Y00541094D01*
X00555260Y00541131D01*
X00555630Y00541428D01*
X00555926Y00541798D01*
X00556186Y00542168D01*
X00556445Y00542502D01*
X00556593Y00542835D01*
X00556741Y00543094D01*
X00556815Y00543279D01*
X00556852Y00543353D01*
X00557037Y00543909D01*
X00557186Y00544501D01*
X00557259Y00545094D01*
X00557334Y00545612D01*
X00557371Y00546057D01*
X00557408Y00546427D01*
Y00546760D01*
X00557371Y00547575D01*
X00557297Y00548316D01*
X00557186Y00548982D01*
X00557037Y00549575D01*
X00556889Y00550056D01*
X00556778Y00550427D01*
X00556741Y00550538D01*
X00556704Y00550649D01*
X00556667Y00550686D01*
Y00550723D01*
X00556371Y00551315D01*
X00556037Y00551871D01*
X00555704Y00552278D01*
X00555371Y00552649D01*
X00555112Y00552945D01*
X00554852Y00553130D01*
X00554704Y00553241D01*
X00554667Y00553278D01*
X00554186Y00553537D01*
X00553667Y00553797D01*
X00553112Y00553945D01*
X00552630Y00554093D01*
X00552149Y00554204D01*
X00551816Y00554278D01*
X00551668D01*
X00551556Y00554315D01*
X00551519D01*
X00551482D01*
X00551779Y00557500D01*
X00552705Y00557426D01*
X00553593Y00557278D01*
X00554371Y00557056D01*
X00555075Y00556796D01*
X00555630Y00556537D01*
X00555852Y00556426D01*
X00556037Y00556352D01*
X00556186Y00556241D01*
X00556297Y00556204D01*
X00556371Y00556130D01*
X00556408D01*
X00557111Y00555574D01*
X00557741Y00554982D01*
X00558259Y00554352D01*
X00558704Y00553760D01*
X00559037Y00553241D01*
X00559259Y00552797D01*
X00559333Y00552649D01*
X00559408Y00552538D01*
X00559445Y00552463D01*
Y00552426D01*
X00559778Y00551501D01*
X00560037Y00550538D01*
X00560185Y00549575D01*
X00560333Y00548649D01*
X00560370Y00548205D01*
X00560407Y00547834D01*
Y00547501D01*
X00560444Y00547205D01*
Y00546612D01*
X00560407Y00545612D01*
X00560296Y00544687D01*
X00560111Y00543835D01*
X00559926Y00543131D01*
X00559778Y00542539D01*
X00559667Y00542279D01*
X00559593Y00542057D01*
X00559519Y00541909D01*
X00559482Y00541798D01*
X00559445Y00541724D01*
Y00541687D01*
X00559037Y00540909D01*
X00558593Y00540243D01*
X00558111Y00539650D01*
X00557667Y00539169D01*
X00557297Y00538798D01*
X00556963Y00538539D01*
X00556741Y00538354D01*
X00556704Y00538317D01*
X00556667D01*
X00555963Y00537909D01*
X00555297Y00537613D01*
X00554667Y00537428D01*
X00554075Y00537280D01*
X00553556Y00537206D01*
X00553149Y00537132D01*
X00553001D01*
X00552890D01*
X00552853D01*
X00552816D01*
X00552075Y00537169D01*
X00551371Y00537280D01*
X00550742Y00537465D01*
X00550223Y00537650D01*
X00549779Y00537872D01*
X00549445Y00538021D01*
X00549260Y00538169D01*
X00549186Y00538206D01*
X00548631Y00538650D01*
X00548112Y00539169D01*
X00547668Y00539724D01*
X00547261Y00540280D01*
X00546964Y00540761D01*
X00546742Y00541168D01*
X00546668Y00541316D01*
X00546594Y00541428D01*
X00546557Y00541502D01*
Y00541539D01*
X00546409Y00541835D01*
X00546298Y00542205D01*
X00546150Y00542613D01*
X00546001Y00543057D01*
X00545742Y00543983D01*
X00545483Y00544946D01*
X00545372Y00545390D01*
X00545261Y00545798D01*
X00545150Y00546205D01*
X00545076Y00546538D01*
X00545002Y00546797D01*
X00544964Y00547020D01*
X00544927Y00547168D01*
Y00547205D01*
X00544742Y00547945D01*
X00544594Y00548612D01*
X00544409Y00549205D01*
X00544261Y00549723D01*
X00544076Y00550205D01*
X00543928Y00550612D01*
X00543779Y00550982D01*
X00543668Y00551315D01*
X00543520Y00551575D01*
X00543409Y00551797D01*
X00543335Y00551945D01*
X00543224Y00552093D01*
X00543113Y00552278D01*
X00543076Y00552315D01*
X00542705Y00552649D01*
X00542335Y00552871D01*
X00541965Y00553056D01*
X00541595Y00553167D01*
X00541298Y00553241D01*
X00541039Y00553278D01*
X00540891D01*
X00540817D01*
X00540224Y00553204D01*
X00539706Y00553056D01*
X00539261Y00552834D01*
X00538854Y00552575D01*
X00538558Y00552352D01*
X00538298Y00552130D01*
X00538150Y00551982D01*
X00538113Y00551908D01*
X00537928Y00551612D01*
X00537743Y00551315D01*
X00537447Y00550612D01*
X00537262Y00549871D01*
X00537113Y00549131D01*
X00537039Y00548464D01*
X00537002Y00548168D01*
X00536965Y00547945D01*
Y00547427D01*
X00537002Y00546390D01*
X00537150Y00545464D01*
X00537373Y00544724D01*
X00537595Y00544094D01*
X00537817Y00543613D01*
X00538039Y00543242D01*
X00538187Y00543057D01*
X00538224Y00542983D01*
X00538743Y00542464D01*
X00539298Y00542057D01*
X00539891Y00541724D01*
X00540484Y00541502D01*
X00541039Y00541353D01*
X00541446Y00541242D01*
X00541632Y00541205D01*
X00541743Y00541168D01*
X00541817D01*
X00541854D01*
X00541595Y00537909D01*
X00540780Y00537984D01*
X00540039Y00538169D01*
X00539336Y00538354D01*
X00538743Y00538613D01*
X00538261Y00538835D01*
X00537891Y00539020D01*
X00537780Y00539095D01*
X00537669Y00539169D01*
X00537632Y00539206D01*
X00537595D01*
X00536965Y00539687D01*
X00536410Y00540205D01*
X00535928Y00540761D01*
X00535558Y00541316D01*
X00535225Y00541798D01*
X00535040Y00542168D01*
X00534966Y00542316D01*
X00534892Y00542427D01*
X00534855Y00542502D01*
Y00542539D01*
X00534558Y00543353D01*
X00534336Y00544242D01*
X00534151Y00545057D01*
X00534040Y00545835D01*
X00533966Y00546538D01*
Y00546797D01*
X00533929Y00547057D01*
Y00547538D01*
X00533966Y00548501D01*
X00534077Y00549353D01*
X00534225Y00550167D01*
X00534240Y00550240D01*
X00490750Y00506750D01*
Y00559250D01*
X00543250D01*
X00540495Y00556495D01*
D02*
G37*
G36*
X00240495D02*
X00240706Y00556537D01*
X00240854D01*
X00240965D01*
X00241002D01*
X00241039D01*
X00241669Y00556500D01*
X00242261Y00556389D01*
X00242817Y00556241D01*
X00243298Y00556093D01*
X00243668Y00555945D01*
X00243965Y00555797D01*
X00244150Y00555685D01*
X00244224Y00555648D01*
X00244742Y00555278D01*
X00245224Y00554834D01*
X00245631Y00554389D01*
X00245964Y00553945D01*
X00246261Y00553574D01*
X00246446Y00553241D01*
X00246594Y00553019D01*
X00246631Y00552982D01*
Y00552945D01*
X00246779Y00552649D01*
X00246927Y00552315D01*
X00247187Y00551575D01*
X00247446Y00550723D01*
X00247705Y00549908D01*
X00247927Y00549168D01*
X00248001Y00548834D01*
X00248075Y00548538D01*
X00248149Y00548316D01*
X00248186Y00548131D01*
X00248223Y00548019D01*
Y00547982D01*
X00248372Y00547353D01*
X00248520Y00546760D01*
X00248668Y00546242D01*
X00248779Y00545798D01*
X00248890Y00545353D01*
X00249001Y00544983D01*
X00249075Y00544650D01*
X00249186Y00544390D01*
X00249260Y00544131D01*
X00249297Y00543946D01*
X00249408Y00543650D01*
X00249446Y00543464D01*
X00249483Y00543427D01*
X00249705Y00542872D01*
X00249964Y00542391D01*
X00250223Y00541983D01*
X00250445Y00541687D01*
X00250668Y00541428D01*
X00250816Y00541279D01*
X00250927Y00541168D01*
X00250964Y00541131D01*
X00251297Y00540872D01*
X00251667Y00540687D01*
X00252038Y00540576D01*
X00252334Y00540465D01*
X00252630Y00540428D01*
X00252853Y00540391D01*
X00253038D01*
X00253075D01*
X00253519Y00540428D01*
X00253927Y00540502D01*
X00254297Y00540613D01*
X00254593Y00540761D01*
X00254889Y00540909D01*
X00255075Y00541020D01*
X00255223Y00541094D01*
X00255260Y00541131D01*
X00255630Y00541428D01*
X00255926Y00541798D01*
X00256186Y00542168D01*
X00256445Y00542502D01*
X00256593Y00542835D01*
X00256741Y00543094D01*
X00256815Y00543279D01*
X00256852Y00543353D01*
X00257037Y00543909D01*
X00257185Y00544501D01*
X00257260Y00545094D01*
X00257334Y00545612D01*
X00257371Y00546057D01*
X00257408Y00546427D01*
Y00546760D01*
X00257371Y00547575D01*
X00257297Y00548316D01*
X00257185Y00548982D01*
X00257037Y00549575D01*
X00256889Y00550056D01*
X00256778Y00550427D01*
X00256741Y00550538D01*
X00256704Y00550649D01*
X00256667Y00550686D01*
Y00550723D01*
X00256371Y00551315D01*
X00256038Y00551871D01*
X00255704Y00552278D01*
X00255371Y00552649D01*
X00255112Y00552945D01*
X00254852Y00553130D01*
X00254704Y00553241D01*
X00254667Y00553278D01*
X00254186Y00553537D01*
X00253667Y00553797D01*
X00253112Y00553945D01*
X00252630Y00554093D01*
X00252149Y00554204D01*
X00251816Y00554278D01*
X00251667D01*
X00251556Y00554315D01*
X00251519D01*
X00251482D01*
X00251779Y00557500D01*
X00252705Y00557426D01*
X00253593Y00557278D01*
X00254371Y00557056D01*
X00255075Y00556796D01*
X00255630Y00556537D01*
X00255852Y00556426D01*
X00256038Y00556352D01*
X00256186Y00556241D01*
X00256297Y00556204D01*
X00256371Y00556130D01*
X00256408D01*
X00257111Y00555574D01*
X00257741Y00554982D01*
X00258260Y00554352D01*
X00258704Y00553760D01*
X00259037Y00553241D01*
X00259259Y00552797D01*
X00259333Y00552649D01*
X00259408Y00552538D01*
X00259445Y00552463D01*
Y00552426D01*
X00259778Y00551501D01*
X00260037Y00550538D01*
X00260185Y00549575D01*
X00260333Y00548649D01*
X00260370Y00548205D01*
X00260407Y00547834D01*
Y00547501D01*
X00260444Y00547205D01*
Y00546612D01*
X00260407Y00545612D01*
X00260296Y00544687D01*
X00260111Y00543835D01*
X00259926Y00543131D01*
X00259778Y00542539D01*
X00259667Y00542279D01*
X00259593Y00542057D01*
X00259519Y00541909D01*
X00259482Y00541798D01*
X00259445Y00541724D01*
Y00541687D01*
X00259037Y00540909D01*
X00258593Y00540243D01*
X00258111Y00539650D01*
X00257667Y00539169D01*
X00257297Y00538798D01*
X00256963Y00538539D01*
X00256741Y00538354D01*
X00256704Y00538317D01*
X00256667D01*
X00255963Y00537909D01*
X00255297Y00537613D01*
X00254667Y00537428D01*
X00254075Y00537280D01*
X00253556Y00537206D01*
X00253149Y00537132D01*
X00253001D01*
X00252890D01*
X00252853D01*
X00252816D01*
X00252075Y00537169D01*
X00251371Y00537280D01*
X00250742Y00537465D01*
X00250223Y00537650D01*
X00249779Y00537872D01*
X00249446Y00538021D01*
X00249260Y00538169D01*
X00249186Y00538206D01*
X00248631Y00538650D01*
X00248112Y00539169D01*
X00247668Y00539724D01*
X00247261Y00540280D01*
X00246964Y00540761D01*
X00246742Y00541168D01*
X00246668Y00541316D01*
X00246594Y00541428D01*
X00246557Y00541502D01*
Y00541539D01*
X00246409Y00541835D01*
X00246298Y00542205D01*
X00246150Y00542613D01*
X00246001Y00543057D01*
X00245742Y00543983D01*
X00245483Y00544946D01*
X00245372Y00545390D01*
X00245261Y00545798D01*
X00245150Y00546205D01*
X00245076Y00546538D01*
X00245002Y00546797D01*
X00244965Y00547020D01*
X00244928Y00547168D01*
Y00547205D01*
X00244742Y00547945D01*
X00244594Y00548612D01*
X00244409Y00549205D01*
X00244261Y00549723D01*
X00244076Y00550205D01*
X00243928Y00550612D01*
X00243780Y00550982D01*
X00243668Y00551315D01*
X00243520Y00551575D01*
X00243409Y00551797D01*
X00243335Y00551945D01*
X00243224Y00552093D01*
X00243113Y00552278D01*
X00243076Y00552315D01*
X00242705Y00552649D01*
X00242335Y00552871D01*
X00241965Y00553056D01*
X00241595Y00553167D01*
X00241298Y00553241D01*
X00241039Y00553278D01*
X00240891D01*
X00240817D01*
X00240224Y00553204D01*
X00239706Y00553056D01*
X00239261Y00552834D01*
X00238854Y00552575D01*
X00238558Y00552352D01*
X00238299Y00552130D01*
X00238150Y00551982D01*
X00238113Y00551908D01*
X00237928Y00551612D01*
X00237743Y00551315D01*
X00237447Y00550612D01*
X00237262Y00549871D01*
X00237113Y00549131D01*
X00237039Y00548464D01*
X00237002Y00548168D01*
X00236965Y00547945D01*
Y00547427D01*
X00237002Y00546390D01*
X00237150Y00545464D01*
X00237373Y00544724D01*
X00237595Y00544094D01*
X00237817Y00543613D01*
X00238039Y00543242D01*
X00238188Y00543057D01*
X00238225Y00542983D01*
X00238743Y00542464D01*
X00239298Y00542057D01*
X00239891Y00541724D01*
X00240483Y00541502D01*
X00241039Y00541353D01*
X00241446Y00541242D01*
X00241632Y00541205D01*
X00241743Y00541168D01*
X00241817D01*
X00241854D01*
X00241595Y00537909D01*
X00240780Y00537984D01*
X00240039Y00538169D01*
X00239335Y00538354D01*
X00238743Y00538613D01*
X00238262Y00538835D01*
X00237891Y00539020D01*
X00237780Y00539095D01*
X00237669Y00539169D01*
X00237632Y00539206D01*
X00237595D01*
X00236965Y00539687D01*
X00236410Y00540205D01*
X00235928Y00540761D01*
X00235558Y00541316D01*
X00235225Y00541798D01*
X00235040Y00542168D01*
X00234966Y00542316D01*
X00234891Y00542427D01*
X00234855Y00542502D01*
Y00542539D01*
X00234558Y00543353D01*
X00234336Y00544242D01*
X00234151Y00545057D01*
X00234040Y00545835D01*
X00233966Y00546538D01*
Y00546797D01*
X00233929Y00547057D01*
Y00547538D01*
X00233966Y00548501D01*
X00234077Y00549353D01*
X00234225Y00550167D01*
X00234240Y00550240D01*
X00190750Y00506750D01*
Y00559250D01*
X00243250D01*
X00240495Y00556495D01*
D02*
G37*
G36*
X00543520Y00530799D02*
X00543261Y00530244D01*
X00543002Y00529688D01*
X00542743Y00529170D01*
X00542520Y00528725D01*
X00542335Y00528355D01*
X00542187Y00528133D01*
X00542150Y00528096D01*
Y00528059D01*
X00541743Y00527392D01*
X00541335Y00526800D01*
X00540965Y00526281D01*
X00540632Y00525874D01*
X00540372Y00525503D01*
X00540150Y00525281D01*
X00540002Y00525096D01*
X00539965Y00525059D01*
X00560000D01*
Y00521911D01*
X00534262D01*
Y00523948D01*
X00534892Y00524318D01*
X00535484Y00524726D01*
X00536077Y00525207D01*
X00536595Y00525652D01*
X00537039Y00526096D01*
X00537410Y00526429D01*
X00537521Y00526577D01*
X00537632Y00526688D01*
X00537669Y00526725D01*
X00537706Y00526762D01*
X00538336Y00527540D01*
X00538928Y00528318D01*
X00539447Y00529058D01*
X00539854Y00529799D01*
X00540224Y00530429D01*
X00540372Y00530688D01*
X00540484Y00530910D01*
X00540595Y00531095D01*
X00540632Y00531244D01*
X00540706Y00531317D01*
Y00531355D01*
X00543742D01*
X00543520Y00530799D01*
D02*
G37*
G36*
X00260000Y00517208D02*
X00256963D01*
Y00529836D01*
X00256334Y00529392D01*
X00256075Y00529170D01*
X00255815Y00528984D01*
X00255593Y00528799D01*
X00255445Y00528651D01*
X00255334Y00528540D01*
X00255297Y00528503D01*
X00255112Y00528318D01*
X00254926Y00528096D01*
X00254445Y00527577D01*
X00253890Y00526985D01*
X00253334Y00526355D01*
X00252853Y00525763D01*
X00252630Y00525503D01*
X00252408Y00525281D01*
X00252260Y00525096D01*
X00252149Y00524948D01*
X00252075Y00524874D01*
X00252038Y00524837D01*
X00251519Y00524244D01*
X00251038Y00523652D01*
X00250557Y00523133D01*
X00250149Y00522652D01*
X00249742Y00522207D01*
X00249371Y00521837D01*
X00249038Y00521467D01*
X00248742Y00521170D01*
X00248446Y00520874D01*
X00248223Y00520652D01*
X00248038Y00520467D01*
X00247853Y00520282D01*
X00247631Y00520097D01*
X00247557Y00520022D01*
X00246927Y00519504D01*
X00246372Y00519059D01*
X00245816Y00518689D01*
X00245372Y00518393D01*
X00244965Y00518171D01*
X00244668Y00518023D01*
X00244483Y00517948D01*
X00244409Y00517911D01*
X00243853Y00517689D01*
X00243298Y00517541D01*
X00242780Y00517393D01*
X00242335Y00517319D01*
X00241928Y00517282D01*
X00241632Y00517245D01*
X00241446D01*
X00241372D01*
X00240817Y00517282D01*
X00240298Y00517356D01*
X00239780Y00517430D01*
X00239335Y00517578D01*
X00238447Y00517948D01*
X00237743Y00518319D01*
X00237410Y00518541D01*
X00237150Y00518726D01*
X00236891Y00518911D01*
X00236706Y00519097D01*
X00236558Y00519245D01*
X00236410Y00519319D01*
X00236373Y00519393D01*
X00236336Y00519430D01*
X00235965Y00519837D01*
X00235632Y00520282D01*
X00235373Y00520763D01*
X00235151Y00521245D01*
X00234780Y00522207D01*
X00234521Y00523170D01*
X00234447Y00523578D01*
X00234373Y00523985D01*
X00234336Y00524355D01*
X00234299Y00524652D01*
X00234262Y00524911D01*
Y00525281D01*
X00234299Y00525948D01*
X00234336Y00526577D01*
X00234447Y00527170D01*
X00234558Y00527725D01*
X00234706Y00528244D01*
X00234855Y00528725D01*
X00235040Y00529170D01*
X00235225Y00529577D01*
X00235410Y00529947D01*
X00235595Y00530244D01*
X00235743Y00530503D01*
X00235891Y00530725D01*
X00236003Y00530910D01*
X00236114Y00531021D01*
X00236151Y00531095D01*
X00236188Y00531132D01*
X00236558Y00531503D01*
X00236965Y00531836D01*
X00237410Y00532169D01*
X00237854Y00532429D01*
X00238743Y00532873D01*
X00239632Y00533169D01*
X00240039Y00533280D01*
X00240446Y00533391D01*
X00240780Y00533465D01*
X00241076Y00533540D01*
X00241335Y00533577D01*
X00241520D01*
X00241632Y00533614D01*
X00241669D01*
X00242002Y00530392D01*
X00241150Y00530318D01*
X00240410Y00530169D01*
X00239743Y00529947D01*
X00239224Y00529688D01*
X00238780Y00529466D01*
X00238484Y00529244D01*
X00238299Y00529095D01*
X00238225Y00529021D01*
X00237780Y00528466D01*
X00237447Y00527873D01*
X00237188Y00527244D01*
X00237039Y00526688D01*
X00236928Y00526170D01*
X00236891Y00525726D01*
X00236854Y00525577D01*
Y00525355D01*
X00236891Y00524577D01*
X00237039Y00523874D01*
X00237262Y00523281D01*
X00237484Y00522763D01*
X00237743Y00522355D01*
X00237928Y00522096D01*
X00238076Y00521911D01*
X00238150Y00521837D01*
X00238669Y00521393D01*
X00239187Y00521059D01*
X00239706Y00520800D01*
X00240224Y00520652D01*
X00240632Y00520541D01*
X00241002Y00520504D01*
X00241224Y00520467D01*
X00241261D01*
X00241298D01*
X00241965Y00520541D01*
X00242668Y00520689D01*
X00243298Y00520948D01*
X00243891Y00521208D01*
X00244372Y00521504D01*
X00244779Y00521763D01*
X00244928Y00521837D01*
X00245039Y00521911D01*
X00245076Y00521985D01*
X00245113D01*
X00245520Y00522281D01*
X00245927Y00522652D01*
X00246372Y00523059D01*
X00246816Y00523503D01*
X00247705Y00524429D01*
X00248594Y00525355D01*
X00249001Y00525837D01*
X00249371Y00526244D01*
X00249705Y00526651D01*
X00250001Y00526985D01*
X00250223Y00527244D01*
X00250408Y00527466D01*
X00250520Y00527614D01*
X00250557Y00527651D01*
X00251334Y00528577D01*
X00252075Y00529429D01*
X00252742Y00530132D01*
X00253297Y00530688D01*
X00253778Y00531169D01*
X00254112Y00531503D01*
X00254334Y00531688D01*
X00254371Y00531762D01*
X00254408D01*
X00255038Y00532280D01*
X00255630Y00532688D01*
X00256223Y00533058D01*
X00256741Y00533354D01*
X00257185Y00533577D01*
X00257519Y00533725D01*
X00257741Y00533799D01*
X00257778Y00533836D01*
X00257815D01*
X00258222Y00533984D01*
X00258593Y00534058D01*
X00258963Y00534132D01*
X00259296Y00534169D01*
X00259593Y00534206D01*
X00259815D01*
X00259963D01*
X00260000D01*
Y00517208D01*
D02*
G37*
G36*
X00575000Y00285000D02*
X00560000Y00300000D01*
X00575000D01*
Y00285000D01*
D02*
G37*
G36*
X00275000D02*
X00260000Y00300000D01*
X00275000D01*
Y00285000D01*
D02*
G37*
G36*
X00556816Y00270181D02*
X00556054D01*
X00555915Y00270417D01*
X00555762Y00270638D01*
X00555582Y00270860D01*
X00555416Y00271054D01*
X00555249Y00271221D01*
X00555124Y00271360D01*
X00555069Y00271401D01*
X00555027Y00271443D01*
X00555013Y00271457D01*
X00555000Y00271471D01*
X00554708Y00271706D01*
X00554417Y00271928D01*
X00554140Y00272122D01*
X00553862Y00272275D01*
X00553627Y00272414D01*
X00553529Y00272469D01*
X00553446Y00272511D01*
X00553377Y00272552D01*
X00553321Y00272566D01*
X00553294Y00272594D01*
X00553280D01*
Y00273731D01*
X00553488Y00273648D01*
X00553696Y00273551D01*
X00553904Y00273454D01*
X00554098Y00273357D01*
X00554264Y00273273D01*
X00554403Y00273204D01*
X00554486Y00273148D01*
X00554500Y00273135D01*
X00554514D01*
X00554764Y00272982D01*
X00554986Y00272830D01*
X00555180Y00272691D01*
X00555332Y00272566D01*
X00555471Y00272469D01*
X00555554Y00272386D01*
X00555624Y00272330D01*
X00555637Y00272316D01*
Y00279819D01*
X00556816D01*
Y00270181D01*
D02*
G37*
G36*
X00257697Y00278682D02*
X00252968D01*
X00253134Y00278446D01*
X00253218Y00278349D01*
X00253287Y00278252D01*
X00253356Y00278169D01*
X00253412Y00278113D01*
X00253453Y00278072D01*
X00253467Y00278058D01*
X00253536Y00277989D01*
X00253620Y00277919D01*
X00253814Y00277739D01*
X00254036Y00277531D01*
X00254272Y00277323D01*
X00254493Y00277143D01*
X00254590Y00277059D01*
X00254674Y00276976D01*
X00254743Y00276921D01*
X00254799Y00276879D01*
X00254826Y00276851D01*
X00254840Y00276838D01*
X00255062Y00276643D01*
X00255284Y00276463D01*
X00255478Y00276283D01*
X00255658Y00276130D01*
X00255825Y00275978D01*
X00255963Y00275839D01*
X00256102Y00275714D01*
X00256213Y00275603D01*
X00256324Y00275492D01*
X00256407Y00275409D01*
X00256477Y00275340D01*
X00256546Y00275270D01*
X00256615Y00275187D01*
X00256643Y00275159D01*
X00256837Y00274924D01*
X00257003Y00274716D01*
X00257142Y00274508D01*
X00257253Y00274341D01*
X00257336Y00274189D01*
X00257392Y00274078D01*
X00257420Y00274008D01*
X00257433Y00273981D01*
X00257517Y00273773D01*
X00257572Y00273565D01*
X00257628Y00273370D01*
X00257655Y00273204D01*
X00257669Y00273051D01*
X00257683Y00272941D01*
Y00272871D01*
Y00272843D01*
X00257669Y00272635D01*
X00257642Y00272441D01*
X00257614Y00272247D01*
X00257558Y00272081D01*
X00257420Y00271748D01*
X00257281Y00271484D01*
X00257198Y00271360D01*
X00257128Y00271262D01*
X00257059Y00271165D01*
X00256990Y00271096D01*
X00256934Y00271040D01*
X00256907Y00270985D01*
X00256879Y00270971D01*
X00256865Y00270957D01*
X00256712Y00270819D01*
X00256546Y00270694D01*
X00256366Y00270597D01*
X00256185Y00270513D01*
X00255825Y00270375D01*
X00255464Y00270278D01*
X00255312Y00270250D01*
X00255159Y00270222D01*
X00255020Y00270208D01*
X00254909Y00270195D01*
X00254812Y00270181D01*
X00254674D01*
X00254424Y00270195D01*
X00254188Y00270208D01*
X00253966Y00270250D01*
X00253758Y00270292D01*
X00253564Y00270347D01*
X00253384Y00270403D01*
X00253218Y00270472D01*
X00253065Y00270541D01*
X00252926Y00270611D01*
X00252815Y00270680D01*
X00252718Y00270735D01*
X00252635Y00270791D01*
X00252566Y00270833D01*
X00252524Y00270874D01*
X00252496Y00270888D01*
X00252482Y00270902D01*
X00252344Y00271040D01*
X00252219Y00271193D01*
X00252094Y00271360D01*
X00251997Y00271526D01*
X00251831Y00271859D01*
X00251720Y00272192D01*
X00251678Y00272344D01*
X00251637Y00272497D01*
X00251609Y00272621D01*
X00251581Y00272733D01*
X00251567Y00272830D01*
Y00272899D01*
X00251553Y00272941D01*
Y00272954D01*
X00252760Y00273079D01*
X00252788Y00272760D01*
X00252843Y00272483D01*
X00252926Y00272233D01*
X00253023Y00272039D01*
X00253106Y00271873D01*
X00253190Y00271762D01*
X00253245Y00271692D01*
X00253273Y00271665D01*
X00253481Y00271498D01*
X00253703Y00271373D01*
X00253939Y00271276D01*
X00254147Y00271221D01*
X00254341Y00271179D01*
X00254507Y00271165D01*
X00254563Y00271152D01*
X00254646D01*
X00254937Y00271165D01*
X00255201Y00271221D01*
X00255423Y00271304D01*
X00255617Y00271387D01*
X00255769Y00271484D01*
X00255866Y00271554D01*
X00255936Y00271609D01*
X00255963Y00271637D01*
X00256130Y00271831D01*
X00256255Y00272025D01*
X00256352Y00272219D01*
X00256407Y00272414D01*
X00256449Y00272566D01*
X00256463Y00272705D01*
X00256477Y00272788D01*
Y00272802D01*
Y00272816D01*
X00256449Y00273065D01*
X00256393Y00273329D01*
X00256296Y00273565D01*
X00256199Y00273787D01*
X00256088Y00273967D01*
X00255991Y00274119D01*
X00255963Y00274175D01*
X00255936Y00274216D01*
X00255908Y00274230D01*
Y00274244D01*
X00255797Y00274397D01*
X00255658Y00274549D01*
X00255506Y00274716D01*
X00255339Y00274882D01*
X00254993Y00275215D01*
X00254646Y00275548D01*
X00254466Y00275700D01*
X00254313Y00275839D01*
X00254160Y00275964D01*
X00254036Y00276075D01*
X00253939Y00276158D01*
X00253855Y00276227D01*
X00253800Y00276269D01*
X00253786Y00276283D01*
X00253439Y00276574D01*
X00253120Y00276851D01*
X00252857Y00277101D01*
X00252649Y00277309D01*
X00252469Y00277489D01*
X00252344Y00277614D01*
X00252274Y00277697D01*
X00252247Y00277711D01*
Y00277725D01*
X00252052Y00277961D01*
X00251900Y00278183D01*
X00251761Y00278405D01*
X00251650Y00278599D01*
X00251567Y00278765D01*
X00251512Y00278890D01*
X00251484Y00278973D01*
X00251470Y00278987D01*
Y00279001D01*
X00251415Y00279153D01*
X00251387Y00279292D01*
X00251359Y00279431D01*
X00251345Y00279556D01*
X00251331Y00279667D01*
Y00279750D01*
Y00279805D01*
Y00279819D01*
X00257697D01*
Y00278682D01*
D02*
G37*
G36*
X00546956Y00279805D02*
X00547247Y00279792D01*
X00547511Y00279764D01*
X00547733Y00279736D01*
X00547927Y00279708D01*
X00548065Y00279694D01*
X00548107Y00279681D01*
X00548148Y00279667D01*
X00548176D01*
X00548426Y00279597D01*
X00548648Y00279514D01*
X00548842Y00279445D01*
X00549008Y00279362D01*
X00549147Y00279292D01*
X00549244Y00279237D01*
X00549300Y00279195D01*
X00549327Y00279181D01*
X00549508Y00279056D01*
X00549660Y00278904D01*
X00549813Y00278765D01*
X00549938Y00278626D01*
X00550048Y00278502D01*
X00550132Y00278405D01*
X00550187Y00278335D01*
X00550201Y00278308D01*
X00550340Y00278086D01*
X00550478Y00277850D01*
X00550589Y00277628D01*
X00550673Y00277406D01*
X00550756Y00277212D01*
X00550811Y00277059D01*
X00550825Y00277004D01*
X00550839Y00276962D01*
X00550853Y00276935D01*
Y00276921D01*
X00550936Y00276588D01*
X00551005Y00276255D01*
X00551047Y00275936D01*
X00551089Y00275631D01*
X00551102Y00275368D01*
Y00275257D01*
X00551116Y00275159D01*
Y00275090D01*
Y00275021D01*
Y00274993D01*
Y00274979D01*
X00551102Y00274508D01*
X00551061Y00274078D01*
X00550992Y00273689D01*
X00550964Y00273509D01*
X00550922Y00273357D01*
X00550881Y00273204D01*
X00550853Y00273079D01*
X00550825Y00272968D01*
X00550784Y00272871D01*
X00550770Y00272788D01*
X00550742Y00272733D01*
X00550728Y00272705D01*
Y00272691D01*
X00550575Y00272330D01*
X00550395Y00272011D01*
X00550201Y00271734D01*
X00550021Y00271498D01*
X00549854Y00271304D01*
X00549716Y00271165D01*
X00549660Y00271124D01*
X00549619Y00271082D01*
X00549605Y00271068D01*
X00549591Y00271054D01*
X00549369Y00270874D01*
X00549133Y00270735D01*
X00548897Y00270611D01*
X00548675Y00270513D01*
X00548481Y00270444D01*
X00548329Y00270403D01*
X00548273Y00270375D01*
X00548232D01*
X00548204Y00270361D01*
X00548190D01*
X00547954Y00270319D01*
X00547677Y00270278D01*
X00547400Y00270250D01*
X00547122Y00270236D01*
X00546873Y00270222D01*
X00543184D01*
Y00279819D01*
X00546637D01*
X00546956Y00279805D01*
D02*
G37*
G36*
X00246075D02*
X00246367Y00279792D01*
X00246630Y00279764D01*
X00246852Y00279736D01*
X00247046Y00279708D01*
X00247185Y00279694D01*
X00247226Y00279681D01*
X00247268Y00279667D01*
X00247296D01*
X00247545Y00279597D01*
X00247767Y00279514D01*
X00247961Y00279445D01*
X00248128Y00279362D01*
X00248267Y00279292D01*
X00248363Y00279237D01*
X00248419Y00279195D01*
X00248447Y00279181D01*
X00248627Y00279056D01*
X00248780Y00278904D01*
X00248932Y00278765D01*
X00249057Y00278626D01*
X00249168Y00278502D01*
X00249251Y00278405D01*
X00249307Y00278335D01*
X00249321Y00278308D01*
X00249459Y00278086D01*
X00249598Y00277850D01*
X00249709Y00277628D01*
X00249792Y00277406D01*
X00249875Y00277212D01*
X00249931Y00277059D01*
X00249944Y00277004D01*
X00249958Y00276962D01*
X00249972Y00276935D01*
Y00276921D01*
X00250056Y00276588D01*
X00250125Y00276255D01*
X00250166Y00275936D01*
X00250208Y00275631D01*
X00250222Y00275368D01*
Y00275257D01*
X00250236Y00275159D01*
Y00275090D01*
Y00275021D01*
Y00274993D01*
Y00274979D01*
X00250222Y00274508D01*
X00250180Y00274078D01*
X00250111Y00273689D01*
X00250083Y00273509D01*
X00250042Y00273357D01*
X00250000Y00273204D01*
X00249972Y00273079D01*
X00249944Y00272968D01*
X00249903Y00272871D01*
X00249889Y00272788D01*
X00249861Y00272733D01*
X00249848Y00272705D01*
Y00272691D01*
X00249695Y00272330D01*
X00249515Y00272011D01*
X00249321Y00271734D01*
X00249140Y00271498D01*
X00248974Y00271304D01*
X00248835Y00271165D01*
X00248780Y00271124D01*
X00248738Y00271082D01*
X00248724Y00271068D01*
X00248710Y00271054D01*
X00248488Y00270874D01*
X00248253Y00270735D01*
X00248017Y00270611D01*
X00247795Y00270513D01*
X00247601Y00270444D01*
X00247448Y00270403D01*
X00247393Y00270375D01*
X00247351D01*
X00247323Y00270361D01*
X00247309D01*
X00247074Y00270319D01*
X00246796Y00270278D01*
X00246519Y00270250D01*
X00246242Y00270236D01*
X00245992Y00270222D01*
X00242303D01*
Y00279819D01*
X00245756D01*
X00246075Y00279805D01*
D02*
G37*
%LPC*%
G36*
X00546734Y00278682D02*
X00544459D01*
Y00271360D01*
X00546679D01*
X00546859Y00271373D01*
X00547039D01*
X00547206Y00271387D01*
X00547483Y00271429D01*
X00547705Y00271457D01*
X00547885Y00271498D01*
X00548010Y00271540D01*
X00548079Y00271554D01*
X00548107Y00271567D01*
X00548357Y00271692D01*
X00548592Y00271845D01*
X00548800Y00272025D01*
X00548981Y00272206D01*
X00549119Y00272372D01*
X00549230Y00272511D01*
X00549258Y00272566D01*
X00549286Y00272608D01*
X00549314Y00272635D01*
Y00272649D01*
X00549397Y00272802D01*
X00549480Y00272982D01*
X00549605Y00273343D01*
X00549688Y00273731D01*
X00549757Y00274105D01*
X00549771Y00274272D01*
X00549785Y00274438D01*
X00549799Y00274577D01*
Y00274702D01*
X00549813Y00274813D01*
Y00274882D01*
Y00274938D01*
Y00274951D01*
X00549799Y00275340D01*
X00549771Y00275700D01*
X00549729Y00276019D01*
X00549688Y00276297D01*
X00549660Y00276408D01*
X00549632Y00276505D01*
X00549605Y00276602D01*
X00549591Y00276671D01*
X00549577Y00276727D01*
X00549563Y00276768D01*
X00549549Y00276796D01*
Y00276810D01*
X00549452Y00277073D01*
X00549341Y00277309D01*
X00549216Y00277517D01*
X00549105Y00277697D01*
X00549008Y00277836D01*
X00548925Y00277933D01*
X00548870Y00277989D01*
X00548856Y00278016D01*
X00548717Y00278127D01*
X00548578Y00278224D01*
X00548440Y00278308D01*
X00548301Y00278391D01*
X00548176Y00278446D01*
X00548079Y00278488D01*
X00548010Y00278502D01*
X00547982Y00278516D01*
X00547774Y00278571D01*
X00547524Y00278613D01*
X00547275Y00278640D01*
X00547039Y00278654D01*
X00546831Y00278668D01*
X00546734Y00278682D01*
D02*
G37*
G36*
X00245853D02*
X00243579D01*
Y00271360D01*
X00245798D01*
X00245978Y00271373D01*
X00246159D01*
X00246325Y00271387D01*
X00246602Y00271429D01*
X00246824Y00271457D01*
X00247004Y00271498D01*
X00247129Y00271540D01*
X00247199Y00271554D01*
X00247226Y00271567D01*
X00247476Y00271692D01*
X00247712Y00271845D01*
X00247920Y00272025D01*
X00248100Y00272206D01*
X00248239Y00272372D01*
X00248350Y00272511D01*
X00248377Y00272566D01*
X00248405Y00272608D01*
X00248433Y00272635D01*
Y00272649D01*
X00248516Y00272802D01*
X00248599Y00272982D01*
X00248724Y00273343D01*
X00248807Y00273731D01*
X00248877Y00274105D01*
X00248890Y00274272D01*
X00248904Y00274438D01*
X00248918Y00274577D01*
Y00274702D01*
X00248932Y00274813D01*
Y00274882D01*
Y00274938D01*
Y00274951D01*
X00248918Y00275340D01*
X00248890Y00275700D01*
X00248849Y00276019D01*
X00248807Y00276297D01*
X00248780Y00276408D01*
X00248752Y00276505D01*
X00248724Y00276602D01*
X00248710Y00276671D01*
X00248696Y00276727D01*
X00248682Y00276768D01*
X00248669Y00276796D01*
Y00276810D01*
X00248572Y00277073D01*
X00248461Y00277309D01*
X00248336Y00277517D01*
X00248225Y00277697D01*
X00248128Y00277836D01*
X00248045Y00277933D01*
X00247989Y00277989D01*
X00247975Y00278016D01*
X00247836Y00278127D01*
X00247698Y00278224D01*
X00247559Y00278308D01*
X00247421Y00278391D01*
X00247296Y00278446D01*
X00247199Y00278488D01*
X00247129Y00278502D01*
X00247101Y00278516D01*
X00246894Y00278571D01*
X00246644Y00278613D01*
X00246394Y00278640D01*
X00246159Y00278654D01*
X00245950Y00278668D01*
X00245853Y00278682D01*
D02*
G37*
%LPD*%
D11*
X00490000Y00440000D02*
Y00560000D01*
Y00440000D02*
X00610000D01*
Y00560000D01*
X00490000D02*
X00610000D01*
X00525000Y00250000D02*
Y00300000D01*
X00575000D01*
Y00250000D02*
Y00300000D01*
X00525000Y00250000D02*
X00575000D01*
X00225000D02*
Y00300000D01*
X00275000D01*
Y00250000D02*
Y00300000D01*
X00225000Y00250000D02*
X00275000D01*
X00190000Y00440000D02*
Y00560000D01*
Y00440000D02*
X00310000D01*
Y00560000D01*
X00190000D02*
X00310000D01*
D79*
X00525001Y00438002D02*
D03*
X00575001D02*
D03*
X00574999Y00561998D02*
D03*
X00524999D02*
D03*
X00225001Y00438002D02*
D03*
X00275001D02*
D03*
X00274999Y00561998D02*
D03*
X00224999D02*
D03*
D80*
X00576500Y00258500D02*
D03*
Y00291500D02*
D03*
X00523500D02*
D03*
Y00258500D02*
D03*
X00276500D02*
D03*
Y00291500D02*
D03*
X00223500Y00291500D02*
D03*
Y00258500D02*
D03*
M02*
