G04*
G04 #@! TF.GenerationSoftware,Altium Limited,Altium Designer,24.8.2 (39)*
G04*
G04 Layer_Color=32896*
%FSAX44Y44*%
%MOMM*%
G71*
G04*
G04 #@! TF.SameCoordinates,797AAC5B-F729-46B2-8772-93C60BB36BBD*
G04*
G04*
G04 #@! TF.FilePolarity,Positive*
G04*
G01*
G75*
%ADD11C,0.2000*%
%ADD68C,0.3000*%
D11*
X00490000Y00560000D02*
X00510000D01*
X00490000Y00440000D02*
Y00560000D01*
Y00440000D02*
X00510000D01*
X00540000D02*
X00560000D01*
X00540000Y00560000D02*
X00560000D01*
X00590000D02*
X00610000D01*
Y00440000D02*
Y00560000D01*
X00590000Y00440000D02*
X00610000D01*
X00575000Y00266000D02*
Y00284000D01*
Y00299000D02*
Y00300000D01*
X00525000D02*
X00575000D01*
X00525000Y00299000D02*
Y00300000D01*
Y00266000D02*
Y00284000D01*
Y00250000D02*
Y00251000D01*
X00575000Y00250000D02*
Y00251000D01*
X00525000Y00250000D02*
X00575000D01*
X00275000Y00266000D02*
Y00284000D01*
Y00299000D02*
Y00300000D01*
X00225000D02*
X00275000D01*
X00225000Y00299000D02*
Y00300000D01*
Y00266000D02*
Y00284000D01*
Y00250000D02*
Y00251000D01*
X00275000Y00250000D02*
Y00251000D01*
X00225000Y00250000D02*
X00275000D01*
X00190000Y00560000D02*
X00210000D01*
X00190000Y00440000D02*
Y00560000D01*
Y00440000D02*
X00210000D01*
X00240000D02*
X00260000D01*
X00240000Y00560000D02*
X00260000D01*
X00290000D02*
X00310000D01*
Y00440000D02*
Y00560000D01*
X00290000Y00440000D02*
X00310000D01*
X00328056Y00447832D02*
X00329722Y00449498D01*
X00333055D01*
X00334721Y00447832D01*
Y00446166D01*
X00333055Y00444500D01*
X00329722D01*
X00328056Y00442834D01*
Y00441168D01*
X00329722Y00439502D01*
X00333055D01*
X00334721Y00441168D01*
X00318059Y00439502D02*
X00324724D01*
X00318059Y00446166D01*
Y00447832D01*
X00319725Y00449498D01*
X00323058D01*
X00324724Y00447832D01*
X00624840Y00449102D02*
X00626506Y00450768D01*
X00629838D01*
X00631505Y00449102D01*
Y00447436D01*
X00629838Y00445770D01*
X00626506D01*
X00624840Y00444104D01*
Y00442438D01*
X00626506Y00440772D01*
X00629838D01*
X00631505Y00442438D01*
X00621508Y00440772D02*
X00618176D01*
X00619842D01*
Y00450768D01*
X00621508Y00449102D01*
X00305511Y00260268D02*
Y00250272D01*
X00300512D01*
X00298846Y00251938D01*
Y00258602D01*
X00300512Y00260268D01*
X00305511D01*
X00288849Y00250272D02*
X00295514D01*
X00288849Y00256936D01*
Y00258602D01*
X00290515Y00260268D01*
X00293848D01*
X00295514Y00258602D01*
X00599754Y00260268D02*
Y00250272D01*
X00594756D01*
X00593090Y00251938D01*
Y00258602D01*
X00594756Y00260268D01*
X00599754D01*
X00589758Y00250272D02*
X00586426D01*
X00588092D01*
Y00260268D01*
X00589758Y00258602D01*
D68*
X00582500Y00301000D02*
G03*
X00582500Y00301000I-00001500J00000000D01*
G01*
X00282500D02*
G03*
X00282500Y00301000I-00001500J00000000D01*
G01*
M02*
