G04*
G04 #@! TF.GenerationSoftware,Altium Limited,Altium Designer,24.8.2 (39)*
G04*
G04 Layer_Color=16711935*
%FSAX44Y44*%
%MOMM*%
G71*
G04*
G04 #@! TF.SameCoordinates,797AAC5B-F729-46B2-8772-93C60BB36BBD*
G04*
G04*
G04 #@! TF.FilePolarity,Negative*
G04*
G01*
G75*
%ADD34C,1.6000*%
%ADD38C,1.1200*%
%ADD39C,1.8000*%
%ADD40R,1.8000X1.8000*%
%ADD41R,1.6000X1.6000*%
%ADD42C,1.7000*%
%ADD43R,1.7000X1.7000*%
%ADD44R,1.9000X1.9000*%
%ADD45C,1.9000*%
%ADD46C,4.1000*%
%ADD47C,2.6000*%
%ADD48C,2.5000*%
%ADD49R,1.8000X1.7000*%
%ADD50O,1.8000X1.7000*%
%ADD67R,1.6000X1.0000*%
D34*
X00050800Y00533300D02*
D03*
Y00507900D02*
D03*
Y00482500D02*
D03*
Y00457100D02*
D03*
Y00558700D02*
D03*
Y00584200D02*
D03*
D38*
X00525000Y00230000D02*
D03*
Y00050000D02*
D03*
D39*
X00564400Y00170000D02*
D03*
Y00140000D02*
D03*
Y00110000D02*
D03*
Y00080000D02*
D03*
X00534400Y00170000D02*
D03*
Y00140000D02*
D03*
Y00110000D02*
D03*
Y00080000D02*
D03*
Y00200000D02*
D03*
X00350000Y00161500D02*
D03*
Y00131500D02*
D03*
Y00101500D02*
D03*
X00175000Y00102770D02*
D03*
Y00132770D02*
D03*
Y00162770D02*
D03*
Y00192770D02*
D03*
Y00072770D02*
D03*
D40*
X00564400Y00200000D02*
D03*
D41*
X00050800Y00431700D02*
D03*
D42*
Y00355600D02*
D03*
Y00330200D02*
D03*
Y00304800D02*
D03*
D43*
Y00279400D02*
D03*
D44*
X00250190Y00655066D02*
D03*
D45*
X00275590D02*
D03*
X00300990D02*
D03*
X00326390D02*
D03*
X00351790D02*
D03*
X00377190D02*
D03*
X00402590D02*
D03*
X00427990D02*
D03*
D46*
X00750000Y00050000D02*
D03*
X00050000D02*
D03*
X00750000Y00650000D02*
D03*
X00050000Y00650000D02*
D03*
D47*
X00725170Y00260350D02*
D03*
Y00209550D02*
D03*
X00525000Y00562500D02*
D03*
Y00437500D02*
D03*
X00575000Y00562500D02*
D03*
Y00437500D02*
D03*
X00225000Y00562500D02*
D03*
Y00437500D02*
D03*
X00275000Y00562500D02*
D03*
Y00437500D02*
D03*
X00725000Y00450000D02*
D03*
Y00500800D02*
D03*
X00725170Y00328930D02*
D03*
Y00379730D02*
D03*
D48*
X00350000Y00050000D02*
D03*
Y00213000D02*
D03*
X00175000Y00244270D02*
D03*
Y00051270D02*
D03*
D49*
X00350000Y00191500D02*
D03*
X00175000Y00222770D02*
D03*
D50*
X00350000Y00071500D02*
D03*
D67*
X00525500Y00258500D02*
D03*
Y00291500D02*
D03*
X00574500D02*
D03*
Y00258500D02*
D03*
X00225500D02*
D03*
Y00291500D02*
D03*
X00274500D02*
D03*
Y00258500D02*
D03*
M02*
