G04*
G04 #@! TF.GenerationSoftware,Altium Limited,Altium Designer,24.8.2 (39)*
G04*
G04 Layer_Color=65535*
%FSAX44Y44*%
%MOMM*%
G71*
G04*
G04 #@! TF.SameCoordinates,797AAC5B-F729-46B2-8772-93C60BB36BBD*
G04*
G04*
G04 #@! TF.FilePolarity,Positive*
G04*
G01*
G75*
%ADD10C,0.2500*%
%ADD11C,0.2000*%
%ADD12C,0.6000*%
%ADD13R,1.5000X0.4500*%
%ADD14R,1.0000X1.5000*%
%ADD15R,1.0000X2.5000*%
G36*
X00137550Y00436320D02*
Y00455320D01*
X00131050Y00452820D01*
X00125050Y00448820D01*
X00120550Y00443320D01*
X00116550Y00436320D01*
X00137550D01*
D02*
G37*
G36*
X00154550D02*
Y00455320D01*
X00161050Y00452820D01*
X00167050Y00448820D01*
X00171550Y00443320D01*
X00175550Y00436320D01*
X00154550D01*
D02*
G37*
G36*
X00615070Y00510240D02*
Y00529240D01*
X00608570Y00526740D01*
X00602570Y00522740D01*
X00598070Y00517240D01*
X00594070Y00510240D01*
X00615070D01*
D02*
G37*
G36*
X00748870Y00124850D02*
X00767870D01*
X00765370Y00118350D01*
X00761370Y00112350D01*
X00755870Y00107850D01*
X00748870Y00103850D01*
Y00124850D01*
D02*
G37*
G36*
Y00141850D02*
X00767870D01*
X00765370Y00148350D01*
X00761370Y00154350D01*
X00755870Y00158850D01*
X00748870Y00162850D01*
Y00141850D01*
D02*
G37*
G36*
X00632070Y00510240D02*
Y00529240D01*
X00638570Y00526740D01*
X00644570Y00522740D01*
X00649070Y00517240D01*
X00653070Y00510240D01*
X00632070D01*
D02*
G37*
G36*
X00057404Y00258690D02*
X00048127D01*
X00048146Y00258672D01*
X00048183Y00258635D01*
X00048238Y00258561D01*
X00048331Y00258450D01*
X00048442Y00258320D01*
X00048553Y00258172D01*
X00048683Y00257987D01*
X00048831Y00257783D01*
X00048979Y00257561D01*
X00049127Y00257320D01*
X00049294Y00257061D01*
X00049442Y00256783D01*
X00049720Y00256191D01*
X00049979Y00255524D01*
X00047757D01*
Y00255543D01*
X00047738Y00255561D01*
X00047720Y00255617D01*
X00047701Y00255691D01*
X00047609Y00255876D01*
X00047498Y00256135D01*
X00047350Y00256450D01*
X00047146Y00256802D01*
X00046887Y00257190D01*
X00046590Y00257598D01*
X00046572Y00257616D01*
X00046553Y00257653D01*
X00046498Y00257709D01*
X00046424Y00257783D01*
X00046238Y00257987D01*
X00045998Y00258209D01*
X00045701Y00258468D01*
X00045331Y00258727D01*
X00044942Y00258968D01*
X00044516Y00259153D01*
Y00261153D01*
X00057404D01*
Y00258690D01*
D02*
G37*
D10*
X00142390Y00332710D02*
G03*
X00142390Y00332710I-00001250J00000000D01*
G01*
Y00373350D02*
G03*
X00142390Y00373350I-00001250J00000000D01*
G01*
X00504140Y00366560D02*
G03*
X00504140Y00366560I-00001250J00000000D01*
G01*
X00577800D02*
G03*
X00577800Y00366560I-00001250J00000000D01*
G01*
X00540970D02*
G03*
X00540970Y00366560I-00001250J00000000D01*
G01*
X00637512Y00222432D02*
G03*
X00637512Y00222432I-00001250J00000000D01*
G01*
X00638320Y00130840D02*
G03*
X00638320Y00130840I-00001250J00000000D01*
G01*
X00461930Y00101160D02*
G03*
X00461930Y00101160I-00001250J00000000D01*
G01*
X00312500Y00472000D02*
G03*
X00312500Y00472000I-00001250J00000000D01*
G01*
X00401250Y00464750D02*
G03*
X00401250Y00464750I-00001250J00000000D01*
G01*
D11*
X00137463Y00455627D02*
G03*
X00137329Y00395051I00008587J-00030307D01*
G01*
X00154771D02*
G03*
X00154637Y00455627I-00008722J00030268D01*
G01*
X00632291Y00468971D02*
G03*
X00632157Y00529547I-00008722J00030268D01*
G01*
X00614983D02*
G03*
X00614849Y00468971I00008587J-00030307D01*
G01*
X00707601Y00124628D02*
G03*
X00768177Y00124763I00030268J00008722D01*
G01*
Y00141937D02*
G03*
X00707601Y00142072I-00030307J-00008587D01*
G01*
X00620896Y00330930D02*
X00621896D01*
X00620896Y00349930D02*
X00621896D01*
X00634896Y00330930D02*
X00635896D01*
X00634896Y00349930D02*
X00635896D01*
X00620896Y00330930D02*
Y00349930D01*
X00635896Y00330930D02*
Y00349930D01*
X00633896Y00334930D02*
X00635896D01*
X00620896D02*
X00622896D01*
X00633896D01*
X00163390Y00300460D02*
Y00308210D01*
X00149390Y00300460D02*
X00163390D01*
Y00321710D02*
Y00329460D01*
X00149390D02*
X00163390D01*
Y00341100D02*
Y00348850D01*
X00149390Y00341100D02*
X00163390D01*
Y00362350D02*
Y00370100D01*
X00149390D02*
X00163390D01*
X00112050Y00406320D02*
X00126050Y00392320D01*
X00166050D02*
X00180050Y00406320D01*
Y00458320D01*
X00112050Y00406320D02*
Y00458320D01*
X00137550Y00436320D02*
Y00455320D01*
X00116550Y00436320D02*
X00137550D01*
X00154550D02*
X00175550D01*
X00154550D02*
Y00455320D01*
X00126050Y00392320D02*
X00137550D01*
X00154550D02*
X00166050D01*
X00154550Y00458320D02*
X00180050D01*
X00112050D02*
X00137550D01*
X00536400Y00234000D02*
X00573400D01*
X00585400Y00058000D02*
Y00221000D01*
X00536400Y00046000D02*
X00573400D01*
X00514400Y00234000D02*
X00514400Y00046000D01*
X00036800Y00419000D02*
X00064800D01*
Y00596800D01*
X00036800Y00419000D02*
Y00596800D01*
X00036900Y00596900D01*
X00064800D01*
X00038100Y00266700D02*
Y00368300D01*
X00063500D01*
Y00266700D02*
Y00368300D01*
X00038100Y00266700D02*
X00063500D01*
X00237490Y00667766D02*
X00440690D01*
X00237490Y00642366D02*
X00440690D01*
X00237490D02*
Y00667766D01*
X00440690Y00642366D02*
Y00667766D01*
X00589570Y00532240D02*
X00615070D01*
X00632070D02*
X00657570D01*
X00632070Y00466240D02*
X00643570D01*
X00603570D02*
X00615070D01*
X00632070Y00510240D02*
Y00529240D01*
Y00510240D02*
X00653070D01*
X00594070D02*
X00615070D01*
Y00529240D01*
X00589570Y00480240D02*
Y00532240D01*
X00657570Y00480240D02*
Y00532240D01*
X00643570Y00466240D02*
X00657570Y00480240D01*
X00589570D02*
X00603570Y00466240D01*
X00770870Y00141850D02*
Y00167350D01*
Y00099350D02*
Y00124850D01*
X00704870Y00113350D02*
Y00124850D01*
Y00141850D02*
Y00153350D01*
X00748870Y00124850D02*
X00767870D01*
X00748870Y00103850D02*
Y00124850D01*
Y00141850D02*
Y00162850D01*
Y00141850D02*
X00767870D01*
X00718870Y00167350D02*
X00770870D01*
X00718870Y00099350D02*
X00770870D01*
X00704870Y00113350D02*
X00718870Y00099350D01*
X00704870Y00153350D02*
X00718870Y00167350D01*
X00775170Y00176950D02*
Y00292950D01*
X00670170Y00176950D02*
X00780170D01*
X00670170D02*
Y00292950D01*
X00780170D01*
Y00176950D02*
Y00292950D01*
X00470640Y00344310D02*
X00478390D01*
X00470640D02*
Y00358310D01*
X00491890Y00344310D02*
X00499640D01*
Y00358310D01*
X00330000Y00225500D02*
X00330000Y00037500D01*
X00342000D01*
X00330000Y00225500D02*
X00342000D01*
X00359000Y00037500D02*
X00373000D01*
X00359000Y00225500D02*
X00373000D01*
X00371000Y00049500D02*
Y00212500D01*
X00544300Y00344310D02*
X00552050D01*
X00544300D02*
Y00358310D01*
X00565550Y00344310D02*
X00573300D01*
Y00358310D01*
X00507470Y00344310D02*
X00515220D01*
X00507470D02*
Y00358310D01*
X00528720Y00344310D02*
X00536470D01*
Y00358310D01*
X00780000Y00417400D02*
Y00533400D01*
X00670000D02*
X00780000D01*
X00670000Y00417400D02*
Y00533400D01*
Y00417400D02*
X00780000D01*
X00775000D02*
Y00533400D01*
X00780170Y00296330D02*
Y00412330D01*
X00670170D02*
X00780170D01*
X00670170Y00296330D02*
Y00412330D01*
Y00296330D02*
X00780170D01*
X00775170D02*
Y00412330D01*
X00614012Y00225682D02*
X00628012D01*
X00614012D02*
Y00233432D01*
Y00254682D02*
X00628012D01*
X00614012Y00246932D02*
Y00254682D01*
X00614820Y00134090D02*
X00628820D01*
X00614820D02*
Y00141840D01*
Y00163090D02*
X00628820D01*
X00614820Y00155340D02*
Y00163090D01*
X00184000Y00256770D02*
X00198000D01*
X00184000Y00038770D02*
X00198000D01*
X00155000Y00256770D02*
X00167000D01*
X00155000Y00038770D02*
X00167000D01*
X00155000Y00256770D02*
X00155000Y00038770D01*
X00196000Y00050770D02*
Y00243770D01*
X00478680Y00068160D02*
Y00098160D01*
X00469680Y00068160D02*
Y00098160D01*
Y00068160D02*
X00478680D01*
X00469680Y00098160D02*
X00478680D01*
X00365500Y00481500D02*
Y00518500D01*
X00314500Y00481500D02*
Y00518500D01*
X00365500D01*
X00314500Y00481500D02*
X00365500D01*
X00502500Y00476000D02*
Y00524000D01*
X00397500Y00476000D02*
Y00524000D01*
X00502500D01*
X00397500Y00476000D02*
X00502500D01*
X00620827Y00368726D02*
Y00358730D01*
X00625826D01*
X00627492Y00360396D01*
Y00367060D01*
X00625826Y00368726D01*
X00620827D01*
X00637489D02*
X00634156Y00367060D01*
X00630824Y00363728D01*
Y00360396D01*
X00632490Y00358730D01*
X00635822D01*
X00637489Y00360396D01*
Y00362062D01*
X00635822Y00363728D01*
X00630824D01*
X00174549Y00306496D02*
Y00296500D01*
X00179548D01*
X00181214Y00298166D01*
Y00304830D01*
X00179548Y00306496D01*
X00174549D01*
X00184546D02*
X00191211D01*
Y00304830D01*
X00184546Y00298166D01*
Y00296500D01*
X00174803Y00347898D02*
Y00337902D01*
X00179802D01*
X00181468Y00339568D01*
Y00346232D01*
X00179802Y00347898D01*
X00174803D01*
X00184800Y00346232D02*
X00186466Y00347898D01*
X00189799D01*
X00191465Y00346232D01*
Y00344566D01*
X00189799Y00342900D01*
X00191465Y00341234D01*
Y00339568D01*
X00189799Y00337902D01*
X00186466D01*
X00184800Y00339568D01*
Y00341234D01*
X00186466Y00342900D01*
X00184800Y00344566D01*
Y00346232D01*
X00186466Y00342900D02*
X00189799D01*
X00117359Y00475772D02*
X00115692Y00477438D01*
X00112360D01*
X00110694Y00475772D01*
Y00469108D01*
X00112360Y00467442D01*
X00115692D01*
X00117359Y00469108D01*
X00120691Y00467442D02*
X00124023D01*
X00122357D01*
Y00477438D01*
X00120691Y00475772D01*
X00135686Y00467442D02*
X00129022D01*
X00135686Y00474106D01*
Y00475772D01*
X00134020Y00477438D01*
X00130688D01*
X00129022Y00475772D01*
X00478079Y00223602D02*
Y00233598D01*
X00483078D01*
X00484744Y00231932D01*
Y00228600D01*
X00483078Y00226934D01*
X00478079D01*
X00493074Y00223602D02*
Y00233598D01*
X00488076Y00228600D01*
X00494741D01*
X00589992Y00170008D02*
Y00180004D01*
X00594990D01*
X00596656Y00178338D01*
Y00175006D01*
X00594990Y00173340D01*
X00589992D01*
X00593324D02*
X00596656Y00170008D01*
X00599989D02*
X00603321D01*
X00601655D01*
Y00180004D01*
X00599989Y00178338D01*
X00614984Y00170008D02*
X00608320D01*
X00614984Y00176672D01*
Y00178338D01*
X00613318Y00180004D01*
X00609986D01*
X00608320Y00178338D01*
X00651226Y00173746D02*
X00649560Y00172080D01*
Y00168748D01*
X00651226Y00167082D01*
X00657890D01*
X00659556Y00168748D01*
Y00172080D01*
X00657890Y00173746D01*
X00659556Y00177079D02*
Y00180411D01*
Y00178745D01*
X00649560D01*
X00651226Y00177079D01*
X00649560Y00192074D02*
Y00185410D01*
X00654558D01*
X00652892Y00188742D01*
Y00190408D01*
X00654558Y00192074D01*
X00657890D01*
X00659556Y00190408D01*
Y00187076D01*
X00657890Y00185410D01*
X00589992Y00206076D02*
Y00216072D01*
X00594990D01*
X00596656Y00214406D01*
Y00211074D01*
X00594990Y00209408D01*
X00589992D01*
X00593324D02*
X00596656Y00206076D01*
X00599989D02*
X00603321D01*
X00601655D01*
Y00216072D01*
X00599989Y00214406D01*
X00608320D02*
X00609986Y00216072D01*
X00613318D01*
X00614984Y00214406D01*
Y00212740D01*
X00613318Y00211074D01*
X00611652D01*
X00613318D01*
X00614984Y00209408D01*
Y00207742D01*
X00613318Y00206076D01*
X00609986D01*
X00608320Y00207742D01*
X00595387Y00270032D02*
X00593720Y00271698D01*
X00590388D01*
X00588722Y00270032D01*
Y00263368D01*
X00590388Y00261702D01*
X00593720D01*
X00595387Y00263368D01*
X00598719Y00261702D02*
X00602051D01*
X00600385D01*
Y00271698D01*
X00598719Y00270032D01*
X00612048Y00261702D02*
Y00271698D01*
X00607049Y00266700D01*
X00613714D01*
X00596443Y00297262D02*
Y00307258D01*
X00601442D01*
X00603108Y00305592D01*
Y00302260D01*
X00601442Y00300594D01*
X00596443D01*
X00599776D02*
X00603108Y00297262D01*
X00606440Y00305592D02*
X00608106Y00307258D01*
X00611438D01*
X00613105Y00305592D01*
Y00303926D01*
X00611438Y00302260D01*
X00609772D01*
X00611438D01*
X00613105Y00300594D01*
Y00298928D01*
X00611438Y00297262D01*
X00608106D01*
X00606440Y00298928D01*
X00670103Y00124796D02*
Y00134792D01*
X00675102D01*
X00676768Y00133126D01*
Y00129794D01*
X00675102Y00128128D01*
X00670103D01*
X00673436D02*
X00676768Y00124796D01*
X00686765D02*
X00680100D01*
X00686765Y00131460D01*
Y00133126D01*
X00685098Y00134792D01*
X00681766D01*
X00680100Y00133126D01*
X00068713Y00284562D02*
Y00294558D01*
X00073711D01*
X00075377Y00292892D01*
Y00289560D01*
X00073711Y00287894D01*
X00068713D01*
X00072045D02*
X00075377Y00284562D01*
X00078710Y00292892D02*
X00080376Y00294558D01*
X00083708D01*
X00085374Y00292892D01*
Y00291226D01*
X00083708Y00289560D01*
X00082042D01*
X00083708D01*
X00085374Y00287894D01*
Y00286228D01*
X00083708Y00284562D01*
X00080376D01*
X00078710Y00286228D01*
X00095371Y00294558D02*
X00092039Y00292892D01*
X00088707Y00289560D01*
Y00286228D01*
X00090373Y00284562D01*
X00093705D01*
X00095371Y00286228D01*
Y00287894D01*
X00093705Y00289560D01*
X00088707D01*
X00068967Y00309962D02*
Y00319958D01*
X00073965D01*
X00075631Y00318292D01*
Y00314960D01*
X00073965Y00313294D01*
X00068967D01*
X00072299D02*
X00075631Y00309962D01*
X00078964Y00318292D02*
X00080630Y00319958D01*
X00083962D01*
X00085628Y00318292D01*
Y00316626D01*
X00083962Y00314960D01*
X00082296D01*
X00083962D01*
X00085628Y00313294D01*
Y00311628D01*
X00083962Y00309962D01*
X00080630D01*
X00078964Y00311628D01*
X00095625Y00319958D02*
X00088961D01*
Y00314960D01*
X00092293Y00316626D01*
X00093959D01*
X00095625Y00314960D01*
Y00311628D01*
X00093959Y00309962D01*
X00090627D01*
X00088961Y00311628D01*
X00068713Y00332568D02*
Y00342564D01*
X00073711D01*
X00075377Y00340898D01*
Y00337566D01*
X00073711Y00335900D01*
X00068713D01*
X00072045D02*
X00075377Y00332568D01*
X00078710Y00340898D02*
X00080376Y00342564D01*
X00083708D01*
X00085374Y00340898D01*
Y00339232D01*
X00083708Y00337566D01*
X00082042D01*
X00083708D01*
X00085374Y00335900D01*
Y00334234D01*
X00083708Y00332568D01*
X00080376D01*
X00078710Y00334234D01*
X00088707Y00340898D02*
X00090373Y00342564D01*
X00093705D01*
X00095371Y00340898D01*
Y00339232D01*
X00093705Y00337566D01*
X00095371Y00335900D01*
Y00334234D01*
X00093705Y00332568D01*
X00090373D01*
X00088707Y00334234D01*
Y00335900D01*
X00090373Y00337566D01*
X00088707Y00339232D01*
Y00340898D01*
X00090373Y00337566D02*
X00093705D01*
X00068967Y00352380D02*
Y00362376D01*
X00073965D01*
X00075631Y00360710D01*
Y00357378D01*
X00073965Y00355712D01*
X00068967D01*
X00072299D02*
X00075631Y00352380D01*
X00078964Y00360710D02*
X00080630Y00362376D01*
X00083962D01*
X00085628Y00360710D01*
Y00359044D01*
X00083962Y00357378D01*
X00082296D01*
X00083962D01*
X00085628Y00355712D01*
Y00354046D01*
X00083962Y00352380D01*
X00080630D01*
X00078964Y00354046D01*
X00088961Y00362376D02*
X00095625D01*
Y00360710D01*
X00088961Y00354046D01*
Y00352380D01*
X00071425Y00573614D02*
Y00583610D01*
X00076424D01*
X00078090Y00581944D01*
Y00578612D01*
X00076424Y00576946D01*
X00071425D01*
X00081422Y00583610D02*
X00088087D01*
Y00581944D01*
X00081422Y00575280D01*
Y00573614D01*
X00039116Y00376428D02*
Y00386425D01*
X00044114D01*
X00045781Y00384759D01*
Y00381426D01*
X00044114Y00379760D01*
X00039116D01*
X00049113Y00378094D02*
X00050779Y00376428D01*
X00054111D01*
X00055777Y00378094D01*
Y00384759D01*
X00054111Y00386425D01*
X00050779D01*
X00049113Y00384759D01*
Y00383092D01*
X00050779Y00381426D01*
X00055777D01*
X00467360Y00129540D02*
Y00139537D01*
X00472358D01*
X00474025Y00137871D01*
Y00134538D01*
X00472358Y00132872D01*
X00467360D01*
X00470692D02*
X00474025Y00129540D01*
X00477357Y00137871D02*
X00479023Y00139537D01*
X00482355D01*
X00484021Y00137871D01*
Y00136205D01*
X00482355Y00134538D01*
X00480689D01*
X00482355D01*
X00484021Y00132872D01*
Y00131206D01*
X00482355Y00129540D01*
X00479023D01*
X00477357Y00131206D01*
X00487354D02*
X00489020Y00129540D01*
X00492352D01*
X00494018Y00131206D01*
Y00137871D01*
X00492352Y00139537D01*
X00489020D01*
X00487354Y00137871D01*
Y00136205D01*
X00489020Y00134538D01*
X00494018D01*
X00485902Y00624423D02*
X00492566D01*
X00489234D01*
Y00614426D01*
X00495899D02*
Y00624423D01*
X00500897D01*
X00502563Y00622757D01*
Y00619424D01*
X00500897Y00617758D01*
X00495899D01*
X00512560Y00614426D02*
X00505896D01*
X00512560Y00621091D01*
Y00622757D01*
X00510894Y00624423D01*
X00507562D01*
X00505896Y00622757D01*
X00212404Y00272491D02*
X00210738Y00274157D01*
X00207406D01*
X00205740Y00272491D01*
Y00265826D01*
X00207406Y00264160D01*
X00210738D01*
X00212404Y00265826D01*
X00215737Y00264160D02*
X00219069D01*
X00217403D01*
Y00274157D01*
X00215737Y00272491D01*
X00230732Y00274157D02*
X00227400Y00272491D01*
X00224067Y00269158D01*
Y00265826D01*
X00225734Y00264160D01*
X00229066D01*
X00230732Y00265826D01*
Y00267492D01*
X00229066Y00269158D01*
X00224067D01*
X00471678Y00388457D02*
Y00378460D01*
X00476676D01*
X00478343Y00380126D01*
Y00386791D01*
X00476676Y00388457D01*
X00471678D01*
X00488339D02*
X00481675D01*
Y00383458D01*
X00485007Y00385125D01*
X00486673D01*
X00488339Y00383458D01*
Y00380126D01*
X00486673Y00378460D01*
X00483341D01*
X00481675Y00380126D01*
X00329489Y00231222D02*
Y00241218D01*
X00334488D01*
X00336154Y00239552D01*
Y00236220D01*
X00334488Y00234554D01*
X00329489D01*
X00339486Y00239552D02*
X00341152Y00241218D01*
X00344484D01*
X00346151Y00239552D01*
Y00237886D01*
X00344484Y00236220D01*
X00346151Y00234554D01*
Y00232888D01*
X00344484Y00231222D01*
X00341152D01*
X00339486Y00232888D01*
Y00234554D01*
X00341152Y00236220D01*
X00339486Y00237886D01*
Y00239552D01*
X00341152Y00236220D02*
X00344484D01*
X00379476Y00114300D02*
Y00124297D01*
X00384474D01*
X00386141Y00122631D01*
Y00119298D01*
X00384474Y00117632D01*
X00379476D01*
X00382808D02*
X00386141Y00114300D01*
X00389473Y00122631D02*
X00391139Y00124297D01*
X00394471D01*
X00396137Y00122631D01*
Y00120964D01*
X00394471Y00119298D01*
X00392805D01*
X00394471D01*
X00396137Y00117632D01*
Y00115966D01*
X00394471Y00114300D01*
X00391139D01*
X00389473Y00115966D01*
X00404468Y00114300D02*
Y00124297D01*
X00399470Y00119298D01*
X00406134D01*
X00379476Y00144780D02*
Y00154777D01*
X00384474D01*
X00386141Y00153111D01*
Y00149778D01*
X00384474Y00148112D01*
X00379476D01*
X00382808D02*
X00386141Y00144780D01*
X00389473Y00153111D02*
X00391139Y00154777D01*
X00394471D01*
X00396137Y00153111D01*
Y00151445D01*
X00394471Y00149778D01*
X00392805D01*
X00394471D01*
X00396137Y00148112D01*
Y00146446D01*
X00394471Y00144780D01*
X00391139D01*
X00389473Y00146446D01*
X00399470Y00153111D02*
X00401136Y00154777D01*
X00404468D01*
X00406134Y00153111D01*
Y00151445D01*
X00404468Y00149778D01*
X00402802D01*
X00404468D01*
X00406134Y00148112D01*
Y00146446D01*
X00404468Y00144780D01*
X00401136D01*
X00399470Y00146446D01*
X00379476Y00173990D02*
Y00183987D01*
X00384474D01*
X00386141Y00182321D01*
Y00178988D01*
X00384474Y00177322D01*
X00379476D01*
X00382808D02*
X00386141Y00173990D01*
X00389473Y00182321D02*
X00391139Y00183987D01*
X00394471D01*
X00396137Y00182321D01*
Y00180655D01*
X00394471Y00178988D01*
X00392805D01*
X00394471D01*
X00396137Y00177322D01*
Y00175656D01*
X00394471Y00173990D01*
X00391139D01*
X00389473Y00175656D01*
X00406134Y00173990D02*
X00399470D01*
X00406134Y00180655D01*
Y00182321D01*
X00404468Y00183987D01*
X00401136D01*
X00399470Y00182321D01*
X00379476Y00203200D02*
Y00213197D01*
X00384474D01*
X00386141Y00211531D01*
Y00208198D01*
X00384474Y00206532D01*
X00379476D01*
X00382808D02*
X00386141Y00203200D01*
X00389473Y00211531D02*
X00391139Y00213197D01*
X00394471D01*
X00396137Y00211531D01*
Y00209865D01*
X00394471Y00208198D01*
X00392805D01*
X00394471D01*
X00396137Y00206532D01*
Y00204866D01*
X00394471Y00203200D01*
X00391139D01*
X00389473Y00204866D01*
X00399470Y00203200D02*
X00402802D01*
X00401136D01*
Y00213197D01*
X00399470Y00211531D01*
X00203841Y00141052D02*
Y00151048D01*
X00208839D01*
X00210506Y00149382D01*
Y00146050D01*
X00208839Y00144384D01*
X00203841D01*
X00207173D02*
X00210506Y00141052D01*
X00213838Y00149382D02*
X00215504Y00151048D01*
X00218836D01*
X00220502Y00149382D01*
Y00147716D01*
X00218836Y00146050D01*
X00217170D01*
X00218836D01*
X00220502Y00144384D01*
Y00142718D01*
X00218836Y00141052D01*
X00215504D01*
X00213838Y00142718D01*
X00223834Y00149382D02*
X00225501Y00151048D01*
X00228833D01*
X00230499Y00149382D01*
Y00142718D01*
X00228833Y00141052D01*
X00225501D01*
X00223834Y00142718D01*
Y00149382D01*
X00203841Y00170262D02*
Y00180258D01*
X00208839D01*
X00210506Y00178592D01*
Y00175260D01*
X00208839Y00173594D01*
X00203841D01*
X00207173D02*
X00210506Y00170262D01*
X00220502D02*
X00213838D01*
X00220502Y00176926D01*
Y00178592D01*
X00218836Y00180258D01*
X00215504D01*
X00213838Y00178592D01*
X00223834Y00171928D02*
X00225501Y00170262D01*
X00228833D01*
X00230499Y00171928D01*
Y00178592D01*
X00228833Y00180258D01*
X00225501D01*
X00223834Y00178592D01*
Y00176926D01*
X00225501Y00175260D01*
X00230499D01*
X00203841Y00200742D02*
Y00210738D01*
X00208839D01*
X00210506Y00209072D01*
Y00205740D01*
X00208839Y00204074D01*
X00203841D01*
X00207173D02*
X00210506Y00200742D01*
X00220502D02*
X00213838D01*
X00220502Y00207406D01*
Y00209072D01*
X00218836Y00210738D01*
X00215504D01*
X00213838Y00209072D01*
X00223834D02*
X00225501Y00210738D01*
X00228833D01*
X00230499Y00209072D01*
Y00207406D01*
X00228833Y00205740D01*
X00230499Y00204074D01*
Y00202408D01*
X00228833Y00200742D01*
X00225501D01*
X00223834Y00202408D01*
Y00204074D01*
X00225501Y00205740D01*
X00223834Y00207406D01*
Y00209072D01*
X00225501Y00205740D02*
X00228833D01*
X00205111Y00229952D02*
Y00239948D01*
X00210109D01*
X00211775Y00238282D01*
Y00234950D01*
X00210109Y00233284D01*
X00205111D01*
X00208443D02*
X00211775Y00229952D01*
X00221772D02*
X00215108D01*
X00221772Y00236616D01*
Y00238282D01*
X00220106Y00239948D01*
X00216774D01*
X00215108Y00238282D01*
X00225105Y00239948D02*
X00231769D01*
Y00238282D01*
X00225105Y00231618D01*
Y00229952D01*
X00508508Y00388457D02*
Y00378460D01*
X00513506D01*
X00515173Y00380126D01*
Y00386791D01*
X00513506Y00388457D01*
X00508508D01*
X00523503Y00378460D02*
Y00388457D01*
X00518505Y00383458D01*
X00525169D01*
X00545338Y00388457D02*
Y00378460D01*
X00550336D01*
X00552002Y00380126D01*
Y00386791D01*
X00550336Y00388457D01*
X00545338D01*
X00555335Y00386791D02*
X00557001Y00388457D01*
X00560333D01*
X00561999Y00386791D01*
Y00385125D01*
X00560333Y00383458D01*
X00558667D01*
X00560333D01*
X00561999Y00381792D01*
Y00380126D01*
X00560333Y00378460D01*
X00557001D01*
X00555335Y00380126D01*
X00756169Y00090962D02*
X00754502Y00092628D01*
X00751170D01*
X00749504Y00090962D01*
Y00084298D01*
X00751170Y00082632D01*
X00754502D01*
X00756169Y00084298D01*
X00759501Y00082632D02*
X00762833D01*
X00761167D01*
Y00092628D01*
X00759501Y00090962D01*
X00767831D02*
X00769498Y00092628D01*
X00772830D01*
X00774496Y00090962D01*
Y00089296D01*
X00772830Y00087630D01*
X00771164D01*
X00772830D01*
X00774496Y00085964D01*
Y00084298D01*
X00772830Y00082632D01*
X00769498D01*
X00767831Y00084298D01*
X00635915Y00553242D02*
X00634249Y00554908D01*
X00630916D01*
X00629250Y00553242D01*
Y00546578D01*
X00630916Y00544912D01*
X00634249D01*
X00635915Y00546578D01*
X00639247Y00544912D02*
X00642579D01*
X00640913D01*
Y00554908D01*
X00639247Y00553242D01*
X00647578Y00544912D02*
X00650910D01*
X00649244D01*
Y00554908D01*
X00647578Y00553242D01*
X00381082Y00476809D02*
X00389412D01*
X00391078Y00478475D01*
Y00481808D01*
X00389412Y00483474D01*
X00381082D01*
X00391078Y00493471D02*
Y00486806D01*
X00384414Y00493471D01*
X00382748D01*
X00381082Y00491805D01*
Y00488472D01*
X00382748Y00486806D01*
X00299802Y00480619D02*
X00308132D01*
X00309798Y00482285D01*
Y00485618D01*
X00308132Y00487284D01*
X00299802D01*
X00309798Y00495615D02*
X00299802D01*
X00304800Y00490616D01*
Y00497281D01*
X00431309Y00088828D02*
Y00080498D01*
X00432976Y00078832D01*
X00436308D01*
X00437974Y00080498D01*
Y00088828D01*
X00441306Y00087162D02*
X00442972Y00088828D01*
X00446305D01*
X00447971Y00087162D01*
Y00085496D01*
X00446305Y00083830D01*
X00444638D01*
X00446305D01*
X00447971Y00082164D01*
Y00080498D01*
X00446305Y00078832D01*
X00442972D01*
X00441306Y00080498D01*
X00283718Y00558383D02*
X00290382D01*
X00287050D01*
Y00548386D01*
X00293715D02*
Y00558383D01*
X00298713D01*
X00300379Y00556717D01*
Y00553384D01*
X00298713Y00551718D01*
X00293715D01*
X00303712Y00548386D02*
X00307044D01*
X00305378D01*
Y00558383D01*
X00303712Y00556717D01*
X00365678Y00595001D02*
X00355682D01*
Y00599999D01*
X00357348Y00601665D01*
X00360680D01*
X00362346Y00599999D01*
Y00595001D01*
Y00598333D02*
X00365678Y00601665D01*
Y00611662D02*
Y00604998D01*
X00359014Y00611662D01*
X00357348D01*
X00355682Y00609996D01*
Y00606664D01*
X00357348Y00604998D01*
X00355682Y00621659D02*
X00357348Y00618327D01*
X00360680Y00614995D01*
X00364012D01*
X00365678Y00616661D01*
Y00619993D01*
X00364012Y00621659D01*
X00362346D01*
X00360680Y00619993D01*
Y00614995D01*
X00360598Y00381641D02*
X00350602D01*
Y00386639D01*
X00352268Y00388306D01*
X00355600D01*
X00357266Y00386639D01*
Y00381641D01*
Y00384973D02*
X00360598Y00388306D01*
Y00398302D02*
Y00391638D01*
X00353934Y00398302D01*
X00352268D01*
X00350602Y00396636D01*
Y00393304D01*
X00352268Y00391638D01*
X00350602Y00408299D02*
Y00401634D01*
X00355600D01*
X00353934Y00404967D01*
Y00406633D01*
X00355600Y00408299D01*
X00358932D01*
X00360598Y00406633D01*
Y00403301D01*
X00358932Y00401634D01*
X00250831Y00122002D02*
Y00131998D01*
X00255829D01*
X00257495Y00130332D01*
Y00127000D01*
X00255829Y00125334D01*
X00250831D01*
X00254163D02*
X00257495Y00122002D01*
X00267492D02*
X00260828D01*
X00267492Y00128666D01*
Y00130332D01*
X00265826Y00131998D01*
X00262494D01*
X00260828Y00130332D01*
X00275823Y00122002D02*
Y00131998D01*
X00270825Y00127000D01*
X00277489D01*
X00250831Y00139782D02*
Y00149778D01*
X00255829D01*
X00257495Y00148112D01*
Y00144780D01*
X00255829Y00143114D01*
X00250831D01*
X00254163D02*
X00257495Y00139782D01*
X00267492D02*
X00260828D01*
X00267492Y00146446D01*
Y00148112D01*
X00265826Y00149778D01*
X00262494D01*
X00260828Y00148112D01*
X00270825D02*
X00272491Y00149778D01*
X00275823D01*
X00277489Y00148112D01*
Y00146446D01*
X00275823Y00144780D01*
X00274157D01*
X00275823D01*
X00277489Y00143114D01*
Y00141448D01*
X00275823Y00139782D01*
X00272491D01*
X00270825Y00141448D01*
X00250831Y00160102D02*
Y00170098D01*
X00255829D01*
X00257495Y00168432D01*
Y00165100D01*
X00255829Y00163434D01*
X00250831D01*
X00254163D02*
X00257495Y00160102D01*
X00267492D02*
X00260828D01*
X00267492Y00166766D01*
Y00168432D01*
X00265826Y00170098D01*
X00262494D01*
X00260828Y00168432D01*
X00277489Y00160102D02*
X00270825D01*
X00277489Y00166766D01*
Y00168432D01*
X00275823Y00170098D01*
X00272491D01*
X00270825Y00168432D01*
X00251227Y00177882D02*
Y00187878D01*
X00256225D01*
X00257892Y00186212D01*
Y00182880D01*
X00256225Y00181214D01*
X00251227D01*
X00254559D02*
X00257892Y00177882D01*
X00267888D02*
X00261224D01*
X00267888Y00184546D01*
Y00186212D01*
X00266222Y00187878D01*
X00262890D01*
X00261224Y00186212D01*
X00271221Y00177882D02*
X00274553D01*
X00272887D01*
Y00187878D01*
X00271221Y00186212D01*
X00345358Y00589921D02*
X00335362D01*
Y00594919D01*
X00337028Y00596586D01*
X00340360D01*
X00342026Y00594919D01*
Y00589921D01*
Y00593253D02*
X00345358Y00596586D01*
Y00606582D02*
Y00599918D01*
X00338694Y00606582D01*
X00337028D01*
X00335362Y00604916D01*
Y00601584D01*
X00337028Y00599918D01*
Y00609915D02*
X00335362Y00611581D01*
Y00614913D01*
X00337028Y00616579D01*
X00343692D01*
X00345358Y00614913D01*
Y00611581D01*
X00343692Y00609915D01*
X00337028D01*
X00379648Y00391364D02*
X00369652D01*
Y00396362D01*
X00371318Y00398028D01*
X00374650D01*
X00376316Y00396362D01*
Y00391364D01*
Y00394696D02*
X00379648Y00398028D01*
Y00401361D02*
Y00404693D01*
Y00403027D01*
X00369652D01*
X00371318Y00401361D01*
X00377982Y00409692D02*
X00379648Y00411358D01*
Y00414690D01*
X00377982Y00416356D01*
X00371318D01*
X00369652Y00414690D01*
Y00411358D01*
X00371318Y00409692D01*
X00372984D01*
X00374650Y00411358D01*
Y00416356D01*
X00322498Y00390094D02*
X00312502D01*
Y00395092D01*
X00314168Y00396758D01*
X00317500D01*
X00319166Y00395092D01*
Y00390094D01*
Y00393426D02*
X00322498Y00396758D01*
Y00400091D02*
Y00403423D01*
Y00401757D01*
X00312502D01*
X00314168Y00400091D01*
Y00408422D02*
X00312502Y00410088D01*
Y00413420D01*
X00314168Y00415086D01*
X00315834D01*
X00317500Y00413420D01*
X00319166Y00415086D01*
X00320832D01*
X00322498Y00413420D01*
Y00410088D01*
X00320832Y00408422D01*
X00319166D01*
X00317500Y00410088D01*
X00315834Y00408422D01*
X00314168D01*
X00317500Y00410088D02*
Y00413420D01*
X00073864Y00111842D02*
Y00121838D01*
X00078862D01*
X00080528Y00120172D01*
Y00116840D01*
X00078862Y00115174D01*
X00073864D01*
X00077196D02*
X00080528Y00111842D01*
X00083861D02*
X00087193D01*
X00085527D01*
Y00121838D01*
X00083861Y00120172D01*
X00092191Y00121838D02*
X00098856D01*
Y00120172D01*
X00092191Y00113508D01*
Y00111842D01*
X00073864Y00130892D02*
Y00140888D01*
X00078862D01*
X00080528Y00139222D01*
Y00135890D01*
X00078862Y00134224D01*
X00073864D01*
X00077196D02*
X00080528Y00130892D01*
X00083861D02*
X00087193D01*
X00085527D01*
Y00140888D01*
X00083861Y00139222D01*
X00098856Y00140888D02*
X00095524Y00139222D01*
X00092191Y00135890D01*
Y00132558D01*
X00093858Y00130892D01*
X00097190D01*
X00098856Y00132558D01*
Y00134224D01*
X00097190Y00135890D01*
X00092191D01*
X00073864Y00151212D02*
Y00161208D01*
X00078862D01*
X00080528Y00159542D01*
Y00156210D01*
X00078862Y00154544D01*
X00073864D01*
X00077196D02*
X00080528Y00151212D01*
X00083861D02*
X00087193D01*
X00085527D01*
Y00161208D01*
X00083861Y00159542D01*
X00098856Y00161208D02*
X00092191D01*
Y00156210D01*
X00095524Y00157876D01*
X00097190D01*
X00098856Y00156210D01*
Y00152878D01*
X00097190Y00151212D01*
X00093858D01*
X00092191Y00152878D01*
X00073864Y00171532D02*
Y00181528D01*
X00078862D01*
X00080528Y00179862D01*
Y00176530D01*
X00078862Y00174864D01*
X00073864D01*
X00077196D02*
X00080528Y00171532D01*
X00083861D02*
X00087193D01*
X00085527D01*
Y00181528D01*
X00083861Y00179862D01*
X00097190Y00171532D02*
Y00181528D01*
X00092191Y00176530D01*
X00098856D01*
X00304718Y00591150D02*
X00294722D01*
Y00596148D01*
X00296388Y00597815D01*
X00299720D01*
X00301386Y00596148D01*
Y00591150D01*
Y00594482D02*
X00304718Y00597815D01*
Y00601147D02*
Y00604479D01*
Y00602813D01*
X00294722D01*
X00296388Y00601147D01*
X00304718Y00609478D02*
Y00612810D01*
Y00611144D01*
X00294722D01*
X00296388Y00609478D01*
X00434544Y00147402D02*
Y00157398D01*
X00439542D01*
X00441208Y00155732D01*
Y00152400D01*
X00439542Y00150734D01*
X00434544D01*
X00437876D02*
X00441208Y00147402D01*
X00444541D02*
X00447873D01*
X00446207D01*
Y00157398D01*
X00444541Y00155732D01*
X00452872D02*
X00454538Y00157398D01*
X00457870D01*
X00459536Y00155732D01*
Y00149068D01*
X00457870Y00147402D01*
X00454538D01*
X00452872Y00149068D01*
Y00155732D01*
X00592379Y00087712D02*
Y00097708D01*
X00597378D01*
X00599044Y00096042D01*
Y00092710D01*
X00597378Y00091044D01*
X00592379D01*
X00595712D02*
X00599044Y00087712D01*
X00602376Y00089378D02*
X00604042Y00087712D01*
X00607374D01*
X00609041Y00089378D01*
Y00096042D01*
X00607374Y00097708D01*
X00604042D01*
X00602376Y00096042D01*
Y00094376D01*
X00604042Y00092710D01*
X00609041D01*
X00677469Y00068662D02*
Y00078658D01*
X00682468D01*
X00684134Y00076992D01*
Y00073660D01*
X00682468Y00071994D01*
X00677469D01*
X00680802D02*
X00684134Y00068662D01*
X00687466Y00076992D02*
X00689132Y00078658D01*
X00692465D01*
X00694131Y00076992D01*
Y00075326D01*
X00692465Y00073660D01*
X00694131Y00071994D01*
Y00070328D01*
X00692465Y00068662D01*
X00689132D01*
X00687466Y00070328D01*
Y00071994D01*
X00689132Y00073660D01*
X00687466Y00075326D01*
Y00076992D01*
X00689132Y00073660D02*
X00692465D01*
X00434899Y00165182D02*
Y00175178D01*
X00439898D01*
X00441564Y00173512D01*
Y00170180D01*
X00439898Y00168514D01*
X00434899D01*
X00438232D02*
X00441564Y00165182D01*
X00444896Y00175178D02*
X00451561D01*
Y00173512D01*
X00444896Y00166848D01*
Y00165182D01*
X00592379Y00118192D02*
Y00128188D01*
X00597378D01*
X00599044Y00126522D01*
Y00123190D01*
X00597378Y00121524D01*
X00592379D01*
X00595712D02*
X00599044Y00118192D01*
X00609041Y00128188D02*
X00605708Y00126522D01*
X00602376Y00123190D01*
Y00119858D01*
X00604042Y00118192D01*
X00607374D01*
X00609041Y00119858D01*
Y00121524D01*
X00607374Y00123190D01*
X00602376D01*
X00677469Y00108032D02*
Y00118028D01*
X00682468D01*
X00684134Y00116362D01*
Y00113030D01*
X00682468Y00111364D01*
X00677469D01*
X00680802D02*
X00684134Y00108032D01*
X00694131Y00118028D02*
X00687466D01*
Y00113030D01*
X00690798Y00114696D01*
X00692465D01*
X00694131Y00113030D01*
Y00109698D01*
X00692465Y00108032D01*
X00689132D01*
X00687466Y00109698D01*
X00590347Y00186010D02*
Y00196006D01*
X00595346D01*
X00597012Y00194340D01*
Y00191008D01*
X00595346Y00189342D01*
X00590347D01*
X00593680D02*
X00597012Y00186010D01*
X00605342D02*
Y00196006D01*
X00600344Y00191008D01*
X00607009D01*
X00598110Y00279482D02*
Y00289478D01*
X00603108D01*
X00604774Y00287812D01*
Y00284480D01*
X00603108Y00282814D01*
X00598110D01*
X00601442D02*
X00604774Y00279482D01*
X00608106D02*
X00611438D01*
X00609772D01*
Y00289478D01*
X00608106Y00287812D01*
X00597774Y00154148D02*
Y00160812D01*
X00596108Y00162478D01*
X00592775D01*
X00591109Y00160812D01*
Y00154148D01*
X00592775Y00152482D01*
X00596108D01*
X00594442Y00155814D02*
X00597774Y00152482D01*
X00596108D02*
X00597774Y00154148D01*
X00607771Y00152482D02*
X00601106D01*
X00607771Y00159146D01*
Y00160812D01*
X00606105Y00162478D01*
X00602772D01*
X00601106Y00160812D01*
X00654812Y00232430D02*
Y00239094D01*
X00653146Y00240760D01*
X00649814D01*
X00648148Y00239094D01*
Y00232430D01*
X00649814Y00230764D01*
X00653146D01*
X00651480Y00234096D02*
X00654812Y00230764D01*
X00653146D02*
X00654812Y00232430D01*
X00658144Y00230764D02*
X00661477D01*
X00659810D01*
Y00240760D01*
X00658144Y00239094D01*
X00155499Y00264242D02*
Y00274238D01*
X00160498D01*
X00162164Y00272572D01*
Y00269240D01*
X00160498Y00267574D01*
X00155499D01*
X00172161Y00274238D02*
X00168828Y00272572D01*
X00165496Y00269240D01*
Y00265908D01*
X00167162Y00264242D01*
X00170494D01*
X00172161Y00265908D01*
Y00267574D01*
X00170494Y00269240D01*
X00165496D01*
X00238239Y00673248D02*
Y00683244D01*
X00243238D01*
X00244904Y00681578D01*
Y00678246D01*
X00243238Y00676580D01*
X00238239D01*
X00254901Y00683244D02*
X00248236D01*
Y00678246D01*
X00251568Y00679912D01*
X00253235D01*
X00254901Y00678246D01*
Y00674914D01*
X00253235Y00673248D01*
X00249902D01*
X00248236Y00674914D01*
X00646735Y00395306D02*
Y00405302D01*
X00651734D01*
X00653400Y00403636D01*
Y00400304D01*
X00651734Y00398638D01*
X00646735D01*
X00656732Y00403636D02*
X00658398Y00405302D01*
X00661730D01*
X00663397Y00403636D01*
Y00401970D01*
X00661730Y00400304D01*
X00660064D01*
X00661730D01*
X00663397Y00398638D01*
Y00396972D01*
X00661730Y00395306D01*
X00658398D01*
X00656732Y00396972D01*
X00672389Y00161626D02*
Y00171622D01*
X00677388D01*
X00679054Y00169956D01*
Y00166624D01*
X00677388Y00164958D01*
X00672389D01*
X00689051Y00161626D02*
X00682386D01*
X00689051Y00168290D01*
Y00169956D01*
X00687384Y00171622D01*
X00684052D01*
X00682386Y00169956D01*
X00670246Y00541102D02*
Y00551098D01*
X00675244D01*
X00676910Y00549432D01*
Y00546100D01*
X00675244Y00544434D01*
X00670246D01*
X00680242Y00541102D02*
X00683575D01*
X00681908D01*
Y00551098D01*
X00680242Y00549432D01*
X00709219Y00029292D02*
Y00039288D01*
X00712552Y00035956D01*
X00715884Y00039288D01*
Y00029292D01*
X00724214D02*
Y00039288D01*
X00719216Y00034290D01*
X00725881D01*
X00074219Y00028022D02*
Y00038018D01*
X00077552Y00034686D01*
X00080884Y00038018D01*
Y00028022D01*
X00084216Y00036352D02*
X00085882Y00038018D01*
X00089214D01*
X00090881Y00036352D01*
Y00034686D01*
X00089214Y00033020D01*
X00087548D01*
X00089214D01*
X00090881Y00031354D01*
Y00029688D01*
X00089214Y00028022D01*
X00085882D01*
X00084216Y00029688D01*
X00706679Y00665562D02*
Y00675558D01*
X00710012Y00672226D01*
X00713344Y00675558D01*
Y00665562D01*
X00723341D02*
X00716676D01*
X00723341Y00672226D01*
Y00673892D01*
X00721674Y00675558D01*
X00718342D01*
X00716676Y00673892D01*
X00084775Y00640162D02*
Y00650158D01*
X00088108Y00646826D01*
X00091440Y00650158D01*
Y00640162D01*
X00094772D02*
X00098104D01*
X00096438D01*
Y00650158D01*
X00094772Y00648492D01*
X00027270Y00090088D02*
X00020606D01*
Y00085090D01*
X00023938D01*
X00020606D01*
Y00080092D01*
X00030602Y00090088D02*
X00033935D01*
X00032269D01*
Y00080092D01*
X00030602D01*
X00033935D01*
X00038933Y00090088D02*
Y00080092D01*
X00043931D01*
X00045598Y00081758D01*
Y00088422D01*
X00043931Y00090088D01*
X00038933D01*
X00048930Y00088422D02*
X00050596Y00090088D01*
X00053928D01*
X00055594Y00088422D01*
Y00086756D01*
X00053928Y00085090D01*
X00052262D01*
X00053928D01*
X00055594Y00083424D01*
Y00081758D01*
X00053928Y00080092D01*
X00050596D01*
X00048930Y00081758D01*
X00730850Y00603168D02*
X00724186D01*
Y00598170D01*
X00727518D01*
X00724186D01*
Y00593172D01*
X00734182Y00603168D02*
X00737515D01*
X00735849D01*
Y00593172D01*
X00734182D01*
X00737515D01*
X00742513Y00603168D02*
Y00593172D01*
X00747512D01*
X00749178Y00594838D01*
Y00601502D01*
X00747512Y00603168D01*
X00742513D01*
X00759174Y00593172D02*
X00752510D01*
X00759174Y00599836D01*
Y00601502D01*
X00757508Y00603168D01*
X00754176D01*
X00752510Y00601502D01*
X00045700Y00616122D02*
X00039036D01*
Y00611124D01*
X00042368D01*
X00039036D01*
Y00606126D01*
X00049033Y00616122D02*
X00052365D01*
X00050699D01*
Y00606126D01*
X00049033D01*
X00052365D01*
X00057363Y00616122D02*
Y00606126D01*
X00062362D01*
X00064028Y00607792D01*
Y00614456D01*
X00062362Y00616122D01*
X00057363D01*
X00067360Y00606126D02*
X00070692D01*
X00069026D01*
Y00616122D01*
X00067360Y00614456D01*
X00472918Y00022109D02*
X00471252Y00020442D01*
Y00017110D01*
X00472918Y00015444D01*
X00479582D01*
X00481248Y00017110D01*
Y00020442D01*
X00479582Y00022109D01*
X00481248Y00025441D02*
Y00028773D01*
Y00027107D01*
X00471252D01*
X00472918Y00025441D01*
Y00033772D02*
X00471252Y00035438D01*
Y00038770D01*
X00472918Y00040436D01*
X00479582D01*
X00481248Y00038770D01*
Y00035438D01*
X00479582Y00033772D01*
X00472918D01*
X00653908Y00292384D02*
X00652242Y00294050D01*
X00648910D01*
X00647243Y00292384D01*
Y00285720D01*
X00648910Y00284054D01*
X00652242D01*
X00653908Y00285720D01*
X00657240D02*
X00658906Y00284054D01*
X00662238D01*
X00663905Y00285720D01*
Y00292384D01*
X00662238Y00294050D01*
X00658906D01*
X00657240Y00292384D01*
Y00290718D01*
X00658906Y00289052D01*
X00663905D01*
X00333218Y00397114D02*
X00331552Y00395448D01*
Y00392116D01*
X00333218Y00390449D01*
X00339882D01*
X00341548Y00392116D01*
Y00395448D01*
X00339882Y00397114D01*
X00333218Y00400446D02*
X00331552Y00402112D01*
Y00405444D01*
X00333218Y00407111D01*
X00334884D01*
X00336550Y00405444D01*
X00338216Y00407111D01*
X00339882D01*
X00341548Y00405444D01*
Y00402112D01*
X00339882Y00400446D01*
X00338216D01*
X00336550Y00402112D01*
X00334884Y00400446D01*
X00333218D01*
X00336550Y00402112D02*
Y00405444D01*
X00654274Y00363078D02*
X00652608Y00361412D01*
Y00358079D01*
X00654274Y00356413D01*
X00660938D01*
X00662604Y00358079D01*
Y00361412D01*
X00660938Y00363078D01*
X00652608Y00366410D02*
Y00373075D01*
X00654274D01*
X00660938Y00366410D01*
X00662604D01*
X00263764Y00630712D02*
X00262098Y00632378D01*
X00258766D01*
X00257099Y00630712D01*
Y00624048D01*
X00258766Y00622382D01*
X00262098D01*
X00263764Y00624048D01*
X00273761Y00632378D02*
X00270428Y00630712D01*
X00267096Y00627380D01*
Y00624048D01*
X00268762Y00622382D01*
X00272094D01*
X00273761Y00624048D01*
Y00625714D01*
X00272094Y00627380D01*
X00267096D01*
X00454876Y00556544D02*
X00453210Y00558210D01*
X00449878D01*
X00448211Y00556544D01*
Y00549880D01*
X00449878Y00548214D01*
X00453210D01*
X00454876Y00549880D01*
X00464873Y00558210D02*
X00458208D01*
Y00553212D01*
X00461540Y00554878D01*
X00463206D01*
X00464873Y00553212D01*
Y00549880D01*
X00463206Y00548214D01*
X00459874D01*
X00458208Y00549880D01*
X00316708Y00605394D02*
X00315042Y00603728D01*
Y00600396D01*
X00316708Y00598729D01*
X00323372D01*
X00325038Y00600396D01*
Y00603728D01*
X00323372Y00605394D01*
X00325038Y00613725D02*
X00315042D01*
X00320040Y00608726D01*
Y00615391D01*
X00440294Y00137952D02*
X00438628Y00139618D01*
X00435295D01*
X00433629Y00137952D01*
Y00131288D01*
X00435295Y00129622D01*
X00438628D01*
X00440294Y00131288D01*
X00443626Y00137952D02*
X00445292Y00139618D01*
X00448624D01*
X00450291Y00137952D01*
Y00136286D01*
X00448624Y00134620D01*
X00446958D01*
X00448624D01*
X00450291Y00132954D01*
Y00131288D01*
X00448624Y00129622D01*
X00445292D01*
X00443626Y00131288D01*
X00599044Y00075722D02*
X00597378Y00077388D01*
X00594045D01*
X00592379Y00075722D01*
Y00069058D01*
X00594045Y00067392D01*
X00597378D01*
X00599044Y00069058D01*
X00609041Y00067392D02*
X00602376D01*
X00609041Y00074056D01*
Y00075722D01*
X00607374Y00077388D01*
X00604042D01*
X00602376Y00075722D01*
X00684530Y00096042D02*
X00682864Y00097708D01*
X00679532D01*
X00677866Y00096042D01*
Y00089378D01*
X00679532Y00087712D01*
X00682864D01*
X00684530Y00089378D01*
X00687862Y00087712D02*
X00691195D01*
X00689528D01*
Y00097708D01*
X00687862Y00096042D01*
D12*
X00327500Y00491500D02*
G03*
X00327500Y00491500I-00003000J00000000D01*
G01*
D13*
X00628396Y00336180D02*
D03*
D14*
X00509402Y00139998D02*
D03*
D15*
X00324998Y00131502D02*
D03*
X00149997Y00147773D02*
D03*
M02*
